<svg xmlns="http://www.w3.org/2000/svg" xmlns:xlink="http://www.w3.org/1999/xlink">   
    <symbol>
        <!-- Search -->
        <g id="hpa-search">
            <path id="Caminho_604" data-name="Caminho 604" d="M26.03,28.043a2,2,0,0,1-1.424-.589L19.748,22.6a.38.38,0,0,1,.056-.584A8.138,8.138,0,0,0,22.011,19.8a.38.38,0,0,1,.584-.056l4.858,4.858a2.013,2.013,0,0,1-1.424,3.437M20.6,22.376l4.541,4.541a1.254,1.254,0,1,0,1.773-1.773L22.376,20.6A8.874,8.874,0,0,1,20.6,22.376" transform="translate(-6.348 -6.348)" fill="#293a86" stroke="#2b327c" stroke-width="0.4"/>
            <path id="Caminho_605" data-name="Caminho 605" d="M8.906,17.812a8.908,8.908,0,1,1,4.975-1.519,8.916,8.916,0,0,1-4.975,1.519M8.906.76a8.147,8.147,0,1,0,8.146,8.146A8.155,8.155,0,0,0,8.906.76" transform="translate(0 0)" fill="#293a86" stroke="#2b327c" stroke-width="0.4"/>
        </g>
    </symbol>
</svg>
