<svg xmlns="http://www.w3.org/2000/svg" xmlns:xlink="http://www.w3.org/1999/xlink" width="41.86" height="41.856" viewBox="0 0 41.86 41.856">
  <defs>
    <clipPath id="clip-path">
      <rect id="Retângulo_2210" data-name="Retângulo 2210" width="41.86" height="41.856" fill="none" stroke="#2d2d2d" stroke-width="0.5"/>
    </clipPath>
  </defs>
  <g id="Grupo_117" data-name="Grupo 117" transform="translate(0 0)">
    <g id="Grupo_116" data-name="Grupo 116" transform="translate(0 0)" clip-path="url(#clip-path)">
      <path id="Caminho_594" data-name="Caminho 594" d="M20.93,41.856a3.667,3.667,0,0,1-2.6-1.077,2.3,2.3,0,0,0-2.525-.5A3.685,3.685,0,0,1,10.983,38.3l-.031-.076a2.308,2.308,0,0,0-2.134-1.421H8.735a3.687,3.687,0,0,1-3.683-3.683A2.305,2.305,0,0,0,3.62,30.986a3.683,3.683,0,0,1-2.01-4.805l.032-.077a2.3,2.3,0,0,0-.5-2.511l-.059-.059a3.684,3.684,0,0,1,0-5.21,2.3,2.3,0,0,0,.5-2.524A3.689,3.689,0,0,1,3.555,10.98l.077-.032a2.3,2.3,0,0,0,1.42-2.131V8.733A3.687,3.687,0,0,1,8.735,5.05a2.3,2.3,0,0,0,2.136-1.433,3.688,3.688,0,0,1,4.807-2.009l.079.032a2.307,2.307,0,0,0,2.51-.5l.059-.06a3.686,3.686,0,0,1,5.208,0,2.3,2.3,0,0,0,2.525.5,3.683,3.683,0,0,1,4.818,1.978l.032.076A2.306,2.306,0,0,0,33.042,5.05h.084a3.688,3.688,0,0,1,3.683,3.683,2.3,2.3,0,0,0,1.433,2.138,3.681,3.681,0,0,1,2.009,4.805l-.031.077a2.3,2.3,0,0,0,.5,2.511l.058.059a3.681,3.681,0,0,1,0,5.208h0a2.3,2.3,0,0,0-.5,2.524,3.687,3.687,0,0,1-1.979,4.818l-.076.032a2.3,2.3,0,0,0-1.42,2.132v.084a3.688,3.688,0,0,1-3.683,3.683,2.3,2.3,0,0,0-2.138,1.433,3.688,3.688,0,0,1-4.807,2.009l-.077-.032a2.308,2.308,0,0,0-2.511.5l-.059.06a3.669,3.669,0,0,1-2.6,1.076M16.7,38.728a3.67,3.67,0,0,1,2.6,1.08,2.312,2.312,0,0,0,3.267,0l.06-.06a3.671,3.671,0,0,1,4-.8l.079.032a2.313,2.313,0,0,0,3.014-1.261,3.67,3.67,0,0,1,3.408-2.284,2.313,2.313,0,0,0,2.311-2.311V33.04a3.674,3.674,0,0,1,2.263-3.4l.076-.032a2.313,2.313,0,0,0,1.242-3.023,3.67,3.67,0,0,1,.794-4.024,2.311,2.311,0,0,0,0-3.269l-.058-.058a3.674,3.674,0,0,1-.8-4l.031-.076a2.313,2.313,0,0,0-1.26-3.016,3.671,3.671,0,0,1-2.284-3.408,2.313,2.313,0,0,0-2.311-2.311h-.084a3.672,3.672,0,0,1-3.4-2.263l-.032-.076a2.31,2.31,0,0,0-3.023-1.242,3.67,3.67,0,0,1-4.026-.8,2.314,2.314,0,0,0-3.267,0l-.06.06a3.673,3.673,0,0,1-4,.8l-.079-.032a2.313,2.313,0,0,0-3.014,1.261A3.668,3.668,0,0,1,8.735,6.422,2.313,2.313,0,0,0,6.425,8.733v.084a3.674,3.674,0,0,1-2.263,3.4l-.077.032A2.314,2.314,0,0,0,2.843,15.27a3.67,3.67,0,0,1-.794,4.024,2.311,2.311,0,0,0,0,3.269l.059.058a3.674,3.674,0,0,1,.8,4l-.032.076a2.311,2.311,0,0,0,1.26,3.016,3.672,3.672,0,0,1,2.285,3.408,2.313,2.313,0,0,0,2.311,2.311h.083a3.671,3.671,0,0,1,3.4,2.263l.032.074a2.311,2.311,0,0,0,3.024,1.243,3.7,3.7,0,0,1,1.424-.287" transform="translate(0 -0.001)" fill="#2d2d2d" stroke="#2d2d2d" stroke-width="0.5"/>
      <path id="Caminho_595" data-name="Caminho 595" d="M11.963,15.692a3.675,3.675,0,1,1,3.674-3.676,3.679,3.679,0,0,1-3.674,3.676m0-5.978a2.3,2.3,0,1,0,2.3,2.3,2.3,2.3,0,0,0-2.3-2.3" transform="translate(3.354 3.375)" fill="#2d2d2d" stroke="#2d2d2d" stroke-width="0.5"/>
      <path id="Caminho_596" data-name="Caminho 596" d="M19.955,23.685a3.675,3.675,0,1,1,3.674-3.676,3.679,3.679,0,0,1-3.674,3.676m0-5.978a2.3,2.3,0,1,0,2.3,2.3,2.3,2.3,0,0,0-2.3-2.3" transform="translate(6.588 6.609)" fill="#2d2d2d" stroke="#2d2d2d" stroke-width="0.5"/>
      <path id="Caminho_597" data-name="Caminho 597" d="M10.331,28.249a.686.686,0,0,1-.566-1.073L23,7.819a.687.687,0,0,1,1.134.775L10.9,27.95a.685.685,0,0,1-.567.3" transform="translate(3.903 3.043)" fill="#2d2d2d" stroke="#2d2d2d" stroke-width="0.5"/>
    </g>
  </g>
</svg>
