<svg id="Grupo_9" data-name="Grupo 9" xmlns="http://www.w3.org/2000/svg" xmlns:xlink="http://www.w3.org/1999/xlink" width="153.898" height="44.081" viewBox="0 0 153.898 44.081">
  <defs>
    <clipPath id="clip-path">
      <rect id="Retângulo_1" data-name="Retângulo 1" width="153.898" height="44.081" fill="none"/>
    </clipPath>
  </defs>
  <g id="Grupo_1" data-name="Grupo 1" clip-path="url(#clip-path)">
    <path id="Caminho_1" data-name="Caminho 1" d="M685.433,86.025c.667-2.153,2.292-2.9,4.236-2.025a.752.752,0,0,1,.516.951c-.566,3.3-1.1,6.611-1.647,9.917-.017.1-.023.205-.034.307-.176,1.636.02,1.834,1.607,1.621a2.536,2.536,0,0,1-2.1,3.591,7.52,7.52,0,0,1-2.152.006c-1.2-.163-1.774-.948-2.057-2.57a24.824,24.824,0,0,1-2.361,1.789,7.155,7.155,0,0,1-6.465.554,5.725,5.725,0,0,1-3.544-4.631,11,11,0,0,1,4.478-10.9,6.912,6.912,0,0,1,9.525,1.39m-.72,5.172c.006-2.143-.9-3.472-2.7-3.749-4.368-.672-6.728,3.561-5.942,6.628a3.216,3.216,0,0,0,2.826,2.511c3.158.48,5.809-1.971,5.818-5.39" transform="translate(-536.429 -66.596)" fill="#2b327c"/>
    <path id="Caminho_2" data-name="Caminho 2" d="M223.727,93.311a2.757,2.757,0,0,0,1.875,3.208,8.426,8.426,0,0,0,7.9-.987,1.652,1.652,0,0,1,.74,2.066,3.337,3.337,0,0,1-2.26,2.274,11.928,11.928,0,0,1-8.9-.04,6.505,6.505,0,0,1-3.9-6.833,9.7,9.7,0,0,1,7.985-9.363c2.658-.554,5.312-.416,7.567,1.426a4.632,4.632,0,0,1,1.562,4.748,4.361,4.361,0,0,1-3.284,3.541,16.852,16.852,0,0,1-8.488.054c-.2-.041-.4-.093-.6-.132a.649.649,0,0,0-.192.039m.475-2.594a17.241,17.241,0,0,0,6.247.164,1.684,1.684,0,0,0,1.527-1.6,1.751,1.751,0,0,0-1.253-1.835,7.889,7.889,0,0,0-2.569-.318,4.522,4.522,0,0,0-3.952,3.593" transform="translate(-175.142 -66.608)" fill="#2b327c"/>
    <path id="Caminho_3" data-name="Caminho 3" d="M535.262,93.244a2.677,2.677,0,0,0,1.757,3.247,8.426,8.426,0,0,0,7.975-.961,1.662,1.662,0,0,1,.731,2.074,3.339,3.339,0,0,1-2.193,2.239,11.992,11.992,0,0,1-8.4.224,6.5,6.5,0,0,1-4.465-7.074,9.7,9.7,0,0,1,7.99-9.36c2.632-.547,5.261-.41,7.508,1.382a4.638,4.638,0,0,1,1.614,4.8,4.363,4.363,0,0,1-3.288,3.538A16.865,16.865,0,0,1,536,93.4c-.247-.051-.492-.106-.736-.158m.434-2.525a17.479,17.479,0,0,0,6.195.175,1.7,1.7,0,0,0,1.569-1.652,1.753,1.753,0,0,0-1.287-1.812,7.883,7.883,0,0,0-2.571-.3,4.494,4.494,0,0,0-3.905,3.593" transform="translate(-424.062 -66.608)" fill="#2b327c"/>
    <path id="Caminho_4" data-name="Caminho 4" d="M312.294,95.553a8.818,8.818,0,0,0,6.6,1.7,2.8,2.8,0,0,0,.378-.08c.994-.246,1.527-.723,1.5-1.416-.032-.909-.733-1.186-1.448-1.371-.972-.252-1.959-.444-2.939-.665-.2-.045-.4-.094-.6-.153-1.577-.466-2.961-1.188-3.324-2.973a4.9,4.9,0,0,1,1.616-4.9,9.18,9.18,0,0,1,7.095-2.009,10.394,10.394,0,0,1,3.563.834,2.338,2.338,0,0,1,.193,4.085,7.756,7.756,0,0,0-5.69-1.418,3.8,3.8,0,0,0-1.508.529,1.05,1.05,0,0,0,.127,1.956,30.69,30.69,0,0,0,3.1.918,16.278,16.278,0,0,1,1.984.628,3.983,3.983,0,0,1,2.5,4.772,5.04,5.04,0,0,1-2.928,3.853,12.554,12.554,0,0,1-9.13.434,2.438,2.438,0,0,1-.287-.115c-2.273-1.015-2.6-2.788-.806-4.608" transform="translate(-248.65 -66.843)" fill="#2b327c"/>
    <path id="Caminho_5" data-name="Caminho 5" d="M401.542,69.378c-.55,0-1.01-.036-1.461.009-.519.053-.672-.219-.747-.653-.327-1.894.635-3.044,2.806-3.233.194-1.214.423-2.448.577-3.692a1.074,1.074,0,0,1,.9-1.082,8.613,8.613,0,0,1,1.893-.268c1.325.053,1.875.808,1.665,2.12-.142.891-.285,1.783-.424,2.674a1.569,1.569,0,0,0,.026.3c.95,0,1.9.035,2.849-.013.548-.028.724.239.82.691a2.61,2.61,0,0,1-2.484,3.209c-.628.035-1.445-.133-1.827.2-.361.311-.269,1.153-.368,1.762-.264,1.629-.513,3.261-.79,4.888-.262,1.54.385,2.281,1.935,2.118a8.2,8.2,0,0,0,1.337-.37,2.462,2.462,0,0,1-1.068,3.675,5.658,5.658,0,0,1-5.42.029,2.693,2.693,0,0,1-1.5-2.62c.075-1.642.31-3.278.527-4.91.21-1.577.485-3.146.749-4.831" transform="translate(-319.078 -48.315)" fill="#2b327c"/>
    <path id="Caminho_6" data-name="Caminho 6" d="M632.259,73.728a2.418,2.418,0,0,1-1.331,3.4,4.4,4.4,0,0,1-.816.224c-3.035.6-4.609-.875-4.144-3.936.55-3.619,1.161-7.23,1.743-10.844.348-2.164.72-4.324,1.023-6.494a1.27,1.27,0,0,1,1.041-1.234,8.87,8.87,0,0,1,1.288-.233c1.628-.123,2.371.68,2.11,2.28Q631.938,64.444,630.685,72c-.017.1-.043.2-.057.3-.178,1.4.206,1.749,1.63,1.426" transform="translate(-500.178 -43.629)" fill="#2b327c"/>
    <path id="Caminho_7" data-name="Caminho 7" d="M466.971,86.8c.632-.673,1.167-1.33,1.79-1.889a4.476,4.476,0,0,1,3.833-1.238,2.052,2.052,0,0,1,1.691,2.921,11.809,11.809,0,0,1-1.174,1.912,4.438,4.438,0,0,0-5.569,1.36,10.969,10.969,0,0,0-1.954,5.46c-.212,1.4-.409,2.805-.676,4.2a1.109,1.109,0,0,1-.594.769,9.765,9.765,0,0,1-2.557.324,1.363,1.363,0,0,1-1.256-1.7c.722-4.581,1.465-9.159,2.179-13.741a.939.939,0,0,1,.773-.913,9.008,9.008,0,0,1,2.266-.244c1.131.1,1.527.738,1.389,1.882-.033.276-.084.55-.139.9" transform="translate(-367.993 -66.817)" fill="#2b327c"/>
    <path id="Caminho_8" data-name="Caminho 8" d="M10.6,56.2,2.428,57.388A2.831,2.831,0,0,0,.859,62.217l2.935,2.861L5.356,66.6A14.77,14.77,0,0,1,10.6,56.2" transform="translate(-0.001 -44.913)" fill="#ef7d00"/>
    <path id="Caminho_9" data-name="Caminho 9" d="M73.049,72.428a2.511,2.511,0,0,0,2.276-2.392A2.61,2.61,0,0,0,73.457,67.3a11.748,11.748,0,0,0-3.83-.474,6.743,6.743,0,0,0-5.892,5.356,25.707,25.707,0,0,0,9.314.244" transform="translate(-50.934 -53.395)" fill="#ef7d00"/>
    <path id="Caminho_10" data-name="Caminho 10" d="M71.109,8.231a14.062,14.062,0,0,1,8.872.616L76.393,1.578a2.831,2.831,0,0,0-5.078,0L67.434,9.442a16.587,16.587,0,0,1,3.675-1.211" transform="translate(-53.89 0)" fill="#ef7d00"/>
    <path id="Caminho_11" data-name="Caminho 11" d="M37.169,150.561a9.516,9.516,0,0,1-3.647-2.677l-.3,1.769-.594,3.464a2.831,2.831,0,0,0,4.108,2.985l7.952-4.181c.065-.034.13-.064.2-.093a16.333,16.333,0,0,1-7.711-1.268" transform="translate(-26.037 -118.182)" fill="#ef7d00"/>
    <path id="Caminho_12" data-name="Caminho 12" d="M85.408,57.47,77.38,56.3a7.088,7.088,0,0,1,1.356,6.127,6.5,6.5,0,0,1-4.9,5.28c-4.21,1.289-8.431.95-12.655.081-.3-.062-.6-.139-.9-.2a.957.957,0,0,0-.286.057,4.111,4.111,0,0,0,2.8,4.782c4.1,1.4,7.878,2,17.5-3.592a2.835,2.835,0,0,1,.245-.272L86.977,62.3a2.831,2.831,0,0,0-1.569-4.829" transform="translate(-47.907 -44.995)" fill="#ef7d00"/>
    <path id="Caminho_13" data-name="Caminho 13" d="M113.579,140.235a45.856,45.856,0,0,1-7.775,4.272,22.7,22.7,0,0,1-3.947,1.019,2.828,2.828,0,0,1,.824.282l7.952,4.18A2.831,2.831,0,0,0,114.74,147Z" transform="translate(-81.399 -112.069)" fill="#ef7d00"/>
    <text id="DISTRIBUIDORA" transform="translate(59.258 39.156)" fill="#c6c6c6" font-size="3" font-family="Montserrat-BoldItalic, Montserrat" font-weight="700" font-style="italic"><tspan x="0" y="0" letter-spacing="0.48em">DIS</tspan><tspan y="0" letter-spacing="0.479em">T</tspan><tspan y="0" letter-spacing="0.48em">RIB</tspan><tspan y="0" letter-spacing="0.479em">U</tspan><tspan y="0" letter-spacing="0.48em">IDOR</tspan><tspan y="0">A</tspan></text>
  </g>
</svg>
