<svg xmlns="http://www.w3.org/2000/svg" width="20.169" height="24.357" viewBox="0 0 20.169 24.357">
  <g id="noun-table-lamp-4514525" transform="translate(-170.96 -64.559)">
    <path id="Caminho_1801" data-name="Caminho 1801" d="M191.1,76.989l-1.971-11.138a1.511,1.511,0,0,0-1.577-1.281H174.539a1.5,1.5,0,0,0-1.577,1.183L170.99,76.89a1.587,1.587,0,0,0,1.577,1.873H189.62A1.532,1.532,0,0,0,191.1,76.989Z" transform="translate(0)" fill="#c84343"/>
    <path id="Caminho_1802" data-name="Caminho 1802" d="M284.188,343.861h-2.07V337.75H279.26v6.111h-2.07a.674.674,0,0,0-.69.69v1.479a.674.674,0,0,0,.69.69h7a.674.674,0,0,0,.69-.69v-1.479A.83.83,0,0,0,284.188,343.861Z" transform="translate(-99.595 -257.804)" fill="#c84343"/>
  </g>
</svg>
