<svg xmlns="http://www.w3.org/2000/svg" viewBox="0 0 35.15 47.63"><defs><style>.cls-1{fill:#fff;stroke:#fff;stroke-miterlimit:10;stroke-width:0.75px;}</style></defs><g id="Camada_2" data-name="Camada 2"><g id="Camada_1-2" data-name="Camada 1"><path class="cls-1" d="M34.21,47.26H1a.61.61,0,0,1-.61-.61h0V26.24a.6.6,0,0,1,.36-.55.58.58,0,0,1,.64.1L5.1,29.05l3.65-3.46a.63.63,0,0,1,.85,0l3.61,3.53L17,25.51a.62.62,0,0,1,.86,0l3.63,3.64,4-3.55a.59.59,0,0,1,.83,0L29.82,29l3.92-3.91a.57.57,0,0,1,.65-.14.64.64,0,0,1,.39.57V46.65A.62.62,0,0,1,34.21,47.26ZM1.59,46h32V27l-3.3,3.29a.6.6,0,0,1-.86,0l-3.53-3.44-4,3.56a.6.6,0,0,1-.84,0l-3.62-3.62-3.81,3.64a.63.63,0,0,1-.85,0L9.14,26.89l-3.6,3.43a.6.6,0,0,1-.83,0L1.59,27.59Z"/><path class="cls-1" d="M29,43.22H6a.61.61,0,0,1-.62-.6h0v-8.8A.6.6,0,0,1,6,33.2H6a.62.62,0,0,1,.61.61h0V42H28.39V33.72a.63.63,0,0,1,.7-.54.6.6,0,0,1,.53.54v8.89a.6.6,0,0,1-.6.61Z"/><path class="cls-1" d="M15.2,16.86H4.62A1.85,1.85,0,0,1,2.77,15h0v-.57A1.83,1.83,0,0,1,4.6,12.6H15.2A1.83,1.83,0,0,1,17,14.44V15A1.85,1.85,0,0,1,15.2,16.86Zm-10.58-3a.61.61,0,0,0-.62.6V15a.61.61,0,0,0,.62.62H15.2a.61.61,0,0,0,.6-.62v-.58a.6.6,0,0,0-.6-.6Z"/><path class="cls-1" d="M4.6,29.39A.62.62,0,0,1,4,28.78V16.51a.62.62,0,0,1,1.23,0V28.78A.63.63,0,0,1,4.6,29.39Z"/><path class="cls-1" d="M15.42,28.26a.61.61,0,0,1-.61-.61h0V16.74a.61.61,0,0,1,.61-.61.62.62,0,0,1,.61.61V27.65a.61.61,0,0,1-.61.61Z"/><path class="cls-1" d="M14.71,23.42H4.62a.62.62,0,1,1-.16-1.22H14.71a.61.61,0,0,1,.69.53.62.62,0,0,1-.54.69Z"/><path class="cls-1" d="M31.37,28.16h0a.59.59,0,0,1-.6-.59v0c0-.05.1-4.69,0-9.47a6.7,6.7,0,0,0-3.58-6,.64.64,0,0,1-.36-.56V1.6H23.61V11.7a.64.64,0,0,1-.32.54s-3.52,2-3.52,5.41V27a.62.62,0,0,1-.61.61.61.61,0,0,1-.61-.61h0v-9.3c0-3.52,2.86-5.67,3.83-6.3V1A.61.61,0,0,1,23,.38h4.44A.6.6,0,0,1,28,1V11.12A8,8,0,0,1,32,18.05c.09,4.81,0,9.48,0,9.52a.6.6,0,0,1-.6.6Z"/><path class="cls-1" d="M30.77,19.58H19.55a.62.62,0,0,1-.53-.69.6.6,0,0,1,.53-.53H30.77a.61.61,0,0,1,.69.53.62.62,0,0,1-.54.69A.38.38,0,0,1,30.77,19.58Z"/></g></g></svg>