<svg xmlns="http://www.w3.org/2000/svg" width="8.776" height="26.439" viewBox="0 0 8.776 26.439">
  <g id="noun_Bottle_1863846" transform="translate(-8 -2)">
    <g id="Grupo_59" data-name="Grupo 59" transform="translate(8 2)">
      <path id="Caminho_512" data-name="Caminho 512" d="M9.877,24.133V18.172a2.214,2.214,0,0,1,2.208-2.208h4.636a13.93,13.93,0,0,0-1.159-3.919,13.012,13.012,0,0,1-1.214-5.575V5.2h.276V2H10.208V5.2h.331V6.526a13.377,13.377,0,0,1-1.159,5.52A13.356,13.356,0,0,0,8,18.062v8.831a1.543,1.543,0,0,0,1.545,1.545h5.685a1.543,1.543,0,0,0,1.545-1.545v-.607H12.029A2.155,2.155,0,0,1,9.877,24.133Z" transform="translate(-8 -2)" fill="#3f9d4c"/>
      <path id="Caminho_513" data-name="Caminho 513" d="M13.4,30.764v7.9a1.414,1.414,0,0,0,1.35,1.464h5.8l-.083-10.692L14.75,29.3A1.414,1.414,0,0,0,13.4,30.764Z" transform="translate(-11.779 -15.736)" fill="#3f9d4c"/>
    </g>
  </g>
</svg>
