<svg xmlns="http://www.w3.org/2000/svg" width="21.896" height="20.906" viewBox="0 0 21.896 20.906">
  <g id="noun-cook-3407815" transform="translate(-84.002 -25.762)">
    <path id="Caminho_1793" data-name="Caminho 1793" d="M187.04,449.68v2.6a.875.875,0,0,0,.875.875h11.674a.874.874,0,0,0,.875-.875v-2.6Z" transform="translate(-98.802 -406.489)" fill="#59a6c8"/>
    <path id="Caminho_1794" data-name="Caminho 1794" d="M100.833,27.88a4.647,4.647,0,0,0-1.612.276,5.027,5.027,0,0,0-8.565,0,4.743,4.743,0,0,0-1.612-.276A5.04,5.04,0,0,0,88.239,37.9v3.546h13.423V37.9a5.04,5.04,0,0,0-.829-10.016Z" transform="translate(0 0)" fill="#59a6c8"/>
  </g>
</svg>
