<svg id="Componente_5_1" data-name="Componente 5 – 1" xmlns="http://www.w3.org/2000/svg" width="36.474" height="21" viewBox="0 0 36.474 21">
  <rect id="Retângulo_78" data-name="Retângulo 78" width="36.474" height="21" rx="1" fill="#004a97"/>
  <g id="__x0023_Layer_x0020_1" transform="translate(11.053 5.337)">
    <path id="Caminho_112" data-name="Caminho 112" d="M8.349,11.291a5.867,5.867,0,0,0,5.9-5.6A5.766,5.766,0,0,0,8.349,0H5.693A5.569,5.569,0,0,0,0,5.694a5.656,5.656,0,0,0,5.693,5.6Z" transform="translate(0 0)" fill="#0079be"/>
    <path id="Caminho_113" data-name="Caminho 113" d="M29.238,20.83A5.168,5.168,0,1,0,34.405,26,5.169,5.169,0,0,0,29.238,20.83ZM25.963,26h0a3.281,3.281,0,0,1,2.1-3.057v6.114A3.28,3.28,0,0,1,25.963,26Zm4.447,3.058h0V22.941a3.274,3.274,0,0,1,0,6.115Z" transform="translate(-23.532 -20.363)" fill="#fff"/>
    <path id="Caminho_151" data-name="Caminho 151" d="M8.349,11.291a5.867,5.867,0,0,0,5.9-5.6A5.766,5.766,0,0,0,8.349,0H5.693A5.569,5.569,0,0,0,0,5.694a5.656,5.656,0,0,0,5.693,5.6Z" transform="translate(0 0)" fill="#fff"/>
    <path id="Caminho_152" data-name="Caminho 152" d="M29.238,20.83A5.168,5.168,0,1,0,34.405,26,5.169,5.169,0,0,0,29.238,20.83ZM25.963,26h0a3.281,3.281,0,0,1,2.1-3.057v6.114A3.28,3.28,0,0,1,25.963,26Zm4.447,3.058h0V22.941a3.274,3.274,0,0,1,0,6.115Z" transform="translate(-23.532 -20.363)" fill="#004a97"/>
  </g>
</svg>
