<svg xmlns="http://www.w3.org/2000/svg" width="14.798" height="12.879" viewBox="0 0 14.798 12.879">
  <g id="noun-food-1554610" transform="translate(-94.64 -57.681)">
    <path id="Caminho_1835" data-name="Caminho 1835" d="M202.917,87.307a1,1,0,0,0-.2-.308.822.822,0,0,0-.5-.243,5.519,5.519,0,0,0-1.865.876,17.934,17.934,0,0,0-3.115,2.482l-2.547,2.547a.842.842,0,0,0,0,1.184l.016.016-3.5,3.471a.837.837,0,1,0,1.184,1.184l10.333-10.333a.866.866,0,0,0,.195-.876Z" transform="translate(-93.531 -28.233)" fill="#c84343"/>
    <path id="Caminho_1836" data-name="Caminho 1836" d="M173.04,274.96l.032.032v.016C173.072,274.992,173.056,274.976,173.04,274.96Z" transform="translate(-76.129 -210.987)" fill="#c84343"/>
    <path id="Caminho_1837" data-name="Caminho 1837" d="M94.689,353.409l-.049-.049Z" transform="translate(0 -287.116)" fill="#c84343"/>
    <path id="Caminho_1838" data-name="Caminho 1838" d="M397.105,320.88l-1.184,1.184,3.828,3.828a.837.837,0,0,0,1.184-1.184Z" transform="translate(-292.553 -255.577)" fill="#c84343"/>
    <path id="Caminho_1839" data-name="Caminho 1839" d="M135.65,57.776l2.4,2.4a1.607,1.607,0,0,1,.373,1.476l1.119,1.119-1.168,1.168-1.119-1.119a1.607,1.607,0,0,1-1.476-.373l-2.4-2.4a.31.31,0,0,1,.438-.438l2.368,2.368a.315.315,0,0,0,.454.032.353.353,0,0,0,0-.487l-2.352-2.4a.31.31,0,1,1,.438-.438l2.368,2.368a.338.338,0,0,0,.487,0,.333.333,0,0,0-.016-.47l-.016-.016-2.336-2.352a.308.308,0,0,1,0-.438.3.3,0,0,1,.438,0Z" transform="translate(-37.522)" fill="#c84343"/>
    <path id="Caminho_1840" data-name="Caminho 1840" d="M202.917,87.307a1,1,0,0,0-.2-.308.822.822,0,0,0-.5-.243,5.519,5.519,0,0,0-1.865.876,17.934,17.934,0,0,0-3.115,2.482l-2.547,2.547a.842.842,0,0,0,0,1.184l.016.016-3.5,3.471a.837.837,0,1,0,1.184,1.184l10.333-10.333a.866.866,0,0,0,.195-.876Z" transform="translate(-93.531 -28.233)" fill="#c84343"/>
  </g>
</svg>
