<svg xmlns="http://www.w3.org/2000/svg" viewBox="0 0 48.08 48.66"><defs><style>.cls-1{fill:#fff;stroke:#fff;stroke-miterlimit:10;stroke-width:0.75px;}</style></defs><g id="Camada_2" data-name="Camada 2"><g id="Camada_1-2" data-name="Camada 1"><path class="cls-1" d="M42.26,48.28H6a.63.63,0,0,1-.63-.62h0V24.74A.63.63,0,0,1,6,24.12H42.26a.63.63,0,0,1,.63.62V47.66A.63.63,0,0,1,42.26,48.28ZM6.66,47h35V25.38h-35Z"/><path class="cls-1" d="M31.12,48.28H18.31a.63.63,0,0,1-.63-.63V29.86a.64.64,0,0,1,.63-.64H31.12a.64.64,0,0,1,.63.64v17.8A.63.63,0,0,1,31.12,48.28ZM18.94,47H30.49V30.48H18.94Z"/><path class="cls-1" d="M40.38,11.53H7.8a.64.64,0,0,1-.64-.63V1A.64.64,0,0,1,7.8.38H40.38A.63.63,0,0,1,41,1V10.9A.63.63,0,0,1,40.38,11.53ZM8.43,10.28H39.75V1.64H8.43Z"/><path class="cls-1" d="M41.83,25.38H6c-2.45,0-4.14-.67-5-2C-.26,21.47.73,19,.78,18.86s0-.09.08-.14l6.56-8.64a.63.63,0,0,1,.89,0,.6.6,0,0,1,.11.8l-6.5,8.57a4.07,4.07,0,0,0,.16,3.28c.63.94,2,1.41,4,1.41H41.69c2.25,0,3.71-.46,4.35-1.47.83-1.31,0-3.25-.11-3.6l-6.4-8a.65.65,0,0,1,.1-.9.63.63,0,0,1,.9.1l6.45,8a.25.25,0,0,1,.08.12c.06.11,1.37,2.83.06,4.89C46.19,24.69,44.43,25.38,41.83,25.38Z"/><path class="cls-1" d="M6.14,24.87a.82.82,0,0,1-.3-.07.65.65,0,0,1-.26-.86l6.87-12.8a.64.64,0,0,1,.86-.27.63.63,0,0,1,.26.86h0L6.69,24.54A.61.61,0,0,1,6.14,24.87Z"/><path class="cls-1" d="M15.1,25.13h-.17a.66.66,0,0,1-.45-.78l3.44-12.81a.64.64,0,0,1,.78-.44.62.62,0,0,1,.44.77h0L15.7,24.68A.64.64,0,0,1,15.1,25.13Z"/><path class="cls-1" d="M42.11,24.87a.73.73,0,0,0,.3-.07.63.63,0,0,0,.26-.86L35.8,11.14a.63.63,0,0,0-.85-.27.64.64,0,0,0-.27.86h0l6.9,12.81A.66.66,0,0,0,42.11,24.87Z"/><path class="cls-1" d="M33.16,25.13h.16a.65.65,0,0,0,.45-.78L30.33,11.54a.63.63,0,0,0-1.22.33l3.47,12.78A.65.65,0,0,0,33.16,25.13Z"/><path class="cls-1" d="M24.14,25a.65.65,0,0,1-.63-.63V11.53a.64.64,0,0,1,.63-.64.64.64,0,0,1,.63.64v12.8a.62.62,0,0,1-.58.67Z"/></g></g></svg>