<svg xmlns="http://www.w3.org/2000/svg" width="19.318" height="25.106" viewBox="0 0 19.318 25.106">
  <g id="noun-castle-toy-473618" transform="translate(-187.319 -68.583)">
    <path id="Caminho_1819" data-name="Caminho 1819" d="M364.812,297.327a1.124,1.124,0,0,0-.688-.5.988.988,0,0,0-.16-.016H355.6v6.54a5.08,5.08,0,0,1,4.744,5.015h3.621a.963.963,0,0,0,.962-.961v-9.632a.949.949,0,0,0-.114-.442Z" transform="translate(-158.288 -214.674)" fill="#949d3f"/>
    <path id="Caminho_1820" data-name="Caminho 1820" d="M188.28,296.8a.963.963,0,0,0-.961.962v9.632a.962.962,0,0,0,.961.961H191.9a5.079,5.079,0,0,1,4.744-5.015V296.8Z" transform="translate(0 -214.667)" fill="#949d3f"/>
    <path id="Caminho_1821" data-name="Caminho 1821" d="M261.108,69.071c-.155-.223-.39-.488-.63-.488a.588.588,0,0,0-.39.223l-5.064,7.738h11.258c-1.112-1.608-4.457-6.443-5.173-7.474Z" transform="translate(-63.685)" fill="#949d3f"/>
    <path id="Caminho_1822" data-name="Caminho 1822" d="M250.27,213.88h11.842v4.259H250.27Z" transform="translate(-59.213 -136.671)" fill="#949d3f"/>
  </g>
</svg>
