<svg xmlns="http://www.w3.org/2000/svg" width="25.653" height="9.286" viewBox="0 0 25.653 9.286">
  <g id="noun-bread-1099005" transform="translate(-97.997 -188.79)">
    <path id="Caminho_832" data-name="Caminho 832" d="M110.824,188.79c-.585,0-1.161.029-1.725.083q.073.377.117.748v.006a14.52,14.52,0,0,1-.032,2.644.558.558,0,0,1-1.115.028,13.434,13.434,0,0,0-.527-2.333l0-.006c-.082-.277-.176-.549-.284-.817a18.5,18.5,0,0,0-2.49.678c.026.157.049.313.068.468v.006a14.521,14.521,0,0,1-.031,2.644.558.558,0,0,1-1.115.028,13.432,13.432,0,0,0-.527-2.333l0-.006c-.014-.046-.029-.092-.043-.137-3.109,1.452-5.12,3.539-5.12,5.057,0,2.564,5.743,2.528,12.827,2.528s12.827.036,12.827-2.528c0-1.606-2.254-3.852-5.68-5.305,0,.016,0,.032.006.047v.006a14.532,14.532,0,0,1-.032,2.645.558.558,0,0,1-1.114.03l0-.02c0,.006,0,.013,0,.019a13.441,13.441,0,0,0-.528-2.333l0-.006a9.033,9.033,0,0,0-.414-1.122,18.543,18.543,0,0,0-2.388-.517q.058.318.1.632v.006a14.52,14.52,0,0,1-.032,2.644.558.558,0,0,1-1.115.028,13.433,13.433,0,0,0-.527-2.333l0-.006a8.968,8.968,0,0,0-.43-1.158q-.331-.012-.667-.013Zm1.627,3.51v0l0-.023C112.45,192.286,112.451,192.293,112.451,192.3Zm1.115-.028c0-.007,0-.013,0-.02v.02Zm-9.877.7s0,0,0,0l0-.023c0,.007,0,.014,0,.021Zm1.115-.028c0-.007,0-.013,0-.02v.02Zm3.266-.639v0l0-.023C108.068,192.286,108.069,192.293,108.07,192.3Zm1.115-.028c0-.007,0-.013,0-.02v.02Z" fill="#bea87d"/>
  </g>
</svg>
