<svg id="Componente_4_1" data-name="Componente 4 – 1" xmlns="http://www.w3.org/2000/svg" width="36.474" height="21" viewBox="0 0 36.474 21">
  <rect id="Retângulo_77" data-name="Retângulo 77" width="36.474" height="21" rx="1" fill="#1a1a1a"/>
  <g id="Grupo_10" data-name="Grupo 10" transform="translate(6.632 6.449)">
    <path id="Caminho_108" data-name="Caminho 108" d="M432.292,171.3a2.673,2.673,0,0,1,3.46,2l1.83-.373a4.538,4.538,0,0,0-5.882-3.4Z" transform="translate(-428.603 -169.3)" fill="#ffcb05"/>
    <path id="Caminho_109" data-name="Caminho 109" d="M171.73,272.094l1.238-1.4a2.667,2.667,0,0,1,0-4l-1.238-1.4a4.536,4.536,0,0,0,0,6.794" transform="translate(-170.2 -264.163)" fill="#00a4e0"/>
    <path id="Caminho_110" data-name="Caminho 110" d="M435.753,597.3a2.668,2.668,0,0,1-2.614,2.133,2.634,2.634,0,0,1-.847-.137l-.592,1.772a4.542,4.542,0,0,0,5.882-3.392Z" transform="translate(-428.603 -592.231)" fill="#ef4123"/>
    <path id="Caminho_111" data-name="Caminho 111" d="M1028.332,276.386a3.227,3.227,0,0,1-.191-.367,2.781,2.781,0,0,1,1.388-3.617,2.785,2.785,0,0,1,2.558.186,2.731,2.731,0,0,1,1.142,1.378c.034.082.065.168.1.243Zm1.668-2.9a1.376,1.376,0,0,0-.835,1.463l2.511-1.081A1.334,1.334,0,0,0,1030,273.483Zm1.988,2.352a0,0,0,0,0,0,0l-.052-.036a1.477,1.477,0,0,1-.679.568,1.319,1.319,0,0,1-1.456-.147l-.034.052a0,0,0,0,0,0,0l-.637.953a2.755,2.755,0,0,0,.506.277,2.762,2.762,0,0,0,3.323-1.021Zm3.081-4.835v5.3l.824.334-.468,1.092-.909-.379a1.03,1.03,0,0,1-.448-.377,1.183,1.183,0,0,1-.175-.656V271Zm2.134,3.95a1.5,1.5,0,0,1,.515-1.131l-.846-.943a2.768,2.768,0,0,0,0,4.145l.844-.943A1.5,1.5,0,0,1,1037.2,274.95Zm1.5,1.5a1.51,1.51,0,0,1-.476-.078l-.4,1.2a2.771,2.771,0,0,0,3.593-2.067l-1.241-.253a1.5,1.5,0,0,1-1.472,1.2Zm0-4.271a2.791,2.791,0,0,0-.877.141l.4,1.2a1.5,1.5,0,0,1,1.947,1.127l1.241-.251A2.769,2.769,0,0,0,1038.708,272.182Z" transform="translate(-1017.753 -269.796)" fill="#fff"/>
  </g>
</svg>
