<svg xmlns="http://www.w3.org/2000/svg" width="23" height="23" viewBox="0 0 23 23">
  <g id="svgexport-15" transform="translate(0.186)">
    <circle id="Elipse_99" data-name="Elipse 99" cx="11.5" cy="11.5" r="11.5" transform="translate(-0.186)" fill="#cb2128"/>
    <path id="Caminho_537" data-name="Caminho 537" d="M22.079,16a6.087,6.087,0,0,0-2.432,11.664,6.016,6.016,0,0,1,.114-1.406c.114-.494.8-3.306.8-3.306a2.3,2.3,0,0,1-.19-.95c0-.912.532-1.558,1.178-1.558a.818.818,0,0,1,.836.912,11.866,11.866,0,0,1-.532,2.166A.952.952,0,0,0,22.8,24.7c1.14,0,1.938-1.482,1.938-3.23a2.281,2.281,0,0,0-2.546-2.318,2.875,2.875,0,0,0-3,2.926,1.584,1.584,0,0,0,.418,1.178.291.291,0,0,1,.076.342,2.32,2.32,0,0,0-.114.494.2.2,0,0,1-.3.152,2.375,2.375,0,0,1-1.254-2.318,4.023,4.023,0,0,1,4.331-3.8,3.622,3.622,0,0,1,3.838,3.5c0,2.394-1.33,4.179-3.268,4.179a1.69,1.69,0,0,1-1.482-.76s-.342,1.406-.418,1.672a4.5,4.5,0,0,1-.608,1.292,6.426,6.426,0,0,0,1.71.266A6.1,6.1,0,0,0,28.2,22.193,6.179,6.179,0,0,0,22.079,16Z" transform="translate(-10.301 -10.301)" fill="#fff"/>
  </g>
</svg>
