<svg xmlns="http://www.w3.org/2000/svg" width="11.795" height="14.506" viewBox="0 0 11.795 14.506">
  <g id="noun_description_2228899" transform="translate(105.223 8)">
    <path id="Caminho_527" data-name="Caminho 527" d="M158.663,75.942V67.62a.24.24,0,0,0,0-.036v0a.175.175,0,0,0-.044-.073l-.015-.015h0l-.344-.344-.888-.888-1.134-1.134-1.092-1.092c-.258-.257-.517-.517-.777-.775-.06-.06-.12-.121-.181-.181a.238.238,0,0,0-.168-.074c-.249,0-.5,0-.749,0h-4.424c-.237,0-.473,0-.711,0a1.261,1.261,0,0,0-1.262,1.22c0,.1,0,.2,0,.3V76c0,.116-.006.236,0,.352A1.263,1.263,0,0,0,148.13,77.5c.168,0,.334,0,.5,0h8.227c.179,0,.357,0,.536,0a1.259,1.259,0,0,0,1.244-1A2.951,2.951,0,0,0,158.663,75.942Zm-2.326-1.1a.149.149,0,0,1-.048.115.186.186,0,0,1-.027.023c-.006,0-.013.01-.021.01h0s-.01,0-.015.006l0,0-.006,0v0h0l-.011,0h-.039c-.276.01-.554,0-.829,0h-5.975a.166.166,0,0,1-.163-.162v-1.2a.024.024,0,0,1,0-.011.01.01,0,0,1,0-.006.023.023,0,0,1,0-.01s0,0,0-.006,0,0,0-.006a0,0,0,0,1,0,0,.023.023,0,0,0,0-.01s0,0,0,0,0,0,0-.006v0a0,0,0,0,1,0,0,.07.07,0,0,1,.006-.011l0-.008.008-.01a.313.313,0,0,1,.024-.023l0,0,.006,0,.006,0,.006,0,.01,0,.011,0,.01,0h0l.008,0h.027l.011,0h0c.276-.01.554,0,.829,0h5.972a.173.173,0,0,1,.163.17V74.84Zm0-3.313v.013a.045.045,0,0,1,0,.015.038.038,0,0,1,0,.013s0,0,0,.008,0,.006,0,.01a.161.161,0,0,1-.011.024l0,0,0,.006-.01.011,0,0,0,0h0l-.006.006-.006,0,0,0h0l-.006,0,0,0,0,0,0,0h0l-.006,0h0l-.008,0-.013,0h0a.18.18,0,0,1-.044,0,.012.012,0,0,0-.008,0h0c-.276.016-.554,0-.829,0h-5.973a.167.167,0,0,1-.163-.163V70.337a.219.219,0,0,1,0-.032.087.087,0,0,1,0-.016l0-.015s0,0,0,0a0,0,0,0,1,0,0s0,0,0-.006l.01-.015s0,0,0,0a0,0,0,0,1,0,0l0-.006v0l0-.006,0,0,.016-.015,0,0,.015-.01.006,0,.015-.008.006,0,.008,0,.01,0,.013,0,.011,0h.013a.01.01,0,0,0,.006,0l0,0h0c.276-.01.554,0,.83,0h5.972a.171.171,0,0,1,.163.168v1.2Zm.822-3.84a.165.165,0,0,1-.174.094h-2.937a.167.167,0,0,1-.166-.16V64.656a.166.166,0,0,1,.279-.115c.123.123.249.246.372.37q.8.8,1.6,1.6.489.489.98.98a.107.107,0,0,1,.034.037A.143.143,0,0,1,157.159,67.688Z" transform="translate(-252.092 -71)" fill="#fff"/>
  </g>
</svg>
