<svg xmlns="http://www.w3.org/2000/svg" width="58.156" height="30.794" viewBox="0 0 58.156 30.794">
  <g id="noun-five-stars-1468742" transform="translate(0.107 0.1)">
    <path id="Caminho_618" data-name="Caminho 618" d="M290.86,308.35l-5.112-.743-2.286-4.632h0a.656.656,0,0,0-1.13,0l-2.286,4.632-5.112.743h0a.63.63,0,0,0-.349,1.074l3.7,3.606-.873,5.092a.63.63,0,0,0,.914.664l4.572-2.4,4.572,2.4a.63.63,0,0,0,.914-.664l-.873-5.092,3.7-3.606a.63.63,0,0,0-.349-1.074Zm-4.467,4.009a.632.632,0,0,0-.181.557l.714,4.16-3.736-1.964h0a.631.631,0,0,0-.586,0l-3.736,1.964.714-4.16h0a.632.632,0,0,0-.181-.557l-3.022-2.946,4.177-.607a.63.63,0,0,0,.474-.345l1.868-3.785,1.868,3.785a.63.63,0,0,0,.474.345l4.177.607Z" transform="translate(-253.926 -288.274)" fill="#2d2d2d" stroke="#2d2d2d" stroke-width="0.2"/>
    <path id="Caminho_619" data-name="Caminho 619" d="M473.375,308.777a.631.631,0,0,0-.509-.429l-5.112-.743-2.286-4.632h0a.656.656,0,0,0-1.13,0l-2.286,4.632-5.112.743h0a.63.63,0,0,0-.349,1.075l3.7,3.606-.873,5.092a.63.63,0,0,0,.914.664l4.572-2.4,4.572,2.4a.63.63,0,0,0,.914-.664l-.873-5.092,3.7-3.606a.631.631,0,0,0,.159-.646Zm-4.975,3.58a.632.632,0,0,0-.181.558l.714,4.16-3.736-1.964h0a.631.631,0,0,0-.586,0l-3.736,1.964.714-4.16h0a.632.632,0,0,0-.181-.558l-3.022-2.946,4.177-.607a.63.63,0,0,0,.474-.345l1.868-3.785,1.868,3.785a.63.63,0,0,0,.474.345l4.177.607Z" transform="translate(-415.464 -288.271)" fill="#2d2d2d" stroke="#2d2d2d" stroke-width="0.2"/>
    <path id="Caminho_620" data-name="Caminho 620" d="M108.86,308.35l-5.112-.743-2.286-4.632h0a.656.656,0,0,0-1.13,0l-2.286,4.632-5.112.742a.63.63,0,0,0-.349,1.074l3.7,3.606-.873,5.092a.63.63,0,0,0,.914.664l4.572-2.4,4.572,2.4a.63.63,0,0,0,.914-.664l-.873-5.092,3.7-3.606a.63.63,0,0,0-.349-1.074Zm-4.467,4.009a.632.632,0,0,0-.181.557l.714,4.16-3.736-1.964h0a.631.631,0,0,0-.586,0l-3.736,1.964.714-4.16h0a.632.632,0,0,0-.181-.557l-3.022-2.946,4.177-.607a.63.63,0,0,0,.474-.345l1.868-3.785,1.868,3.785a.63.63,0,0,0,.474.345l4.177.607Z" transform="translate(-92.395 -288.274)" fill="#2d2d2d" stroke="#2d2d2d" stroke-width="0.2"/>
    <path id="Caminho_621" data-name="Caminho 621" d="M196.766,129.712a.63.63,0,0,0,.621-.736l-.873-5.092,3.7-3.606a.63.63,0,0,0-.349-1.074l-5.112-.743-2.286-4.632a.656.656,0,0,0-1.13,0l-2.286,4.632-5.112.743a.63.63,0,0,0-.349,1.074l3.7,3.606-.873,5.092a.63.63,0,0,0,.914.664l4.572-2.4,4.572,2.4a.637.637,0,0,0,.293.072Zm-4.572-3.745h0a.631.631,0,0,0-.586,0l-3.736,1.964.714-4.16h0a.633.633,0,0,0-.181-.558l-3.022-2.946,4.177-.607a.629.629,0,0,0,.474-.344l1.868-3.785,1.868,3.785a.629.629,0,0,0,.474.344l4.177.607-3.022,2.946a.633.633,0,0,0-.181.558l.714,4.16Z" transform="translate(-173.163 -113.507)" fill="#2d2d2d" stroke="#2d2d2d" stroke-width="0.2"/>
    <path id="Caminho_622" data-name="Caminho 622" d="M378.766,129.712a.63.63,0,0,0,.621-.736l-.873-5.092,3.7-3.606a.63.63,0,0,0-.349-1.074l-5.112-.743-2.286-4.632a.656.656,0,0,0-1.13,0l-2.286,4.632-5.112.743a.63.63,0,0,0-.349,1.074l3.7,3.606-.873,5.092a.63.63,0,0,0,.914.664l4.572-2.4,4.572,2.4a.638.638,0,0,0,.293.072Zm-4.572-3.745h0a.631.631,0,0,0-.586,0l-3.736,1.964.714-4.16h0a.633.633,0,0,0-.181-.558l-3.022-2.946,4.177-.607a.629.629,0,0,0,.474-.344l1.868-3.785,1.868,3.785a.629.629,0,0,0,.474.344l4.177.607-3.023,2.946a.633.633,0,0,0-.181.558l.714,4.16Z" transform="translate(-334.695 -113.507)" fill="#2d2d2d" stroke="#2d2d2d" stroke-width="0.2"/>
  </g>
</svg>
