<svg xmlns="http://www.w3.org/2000/svg" width="31.26" height="19.144" viewBox="0 0 31.26 19.144">
  <g id="Componente_1_1" data-name="Componente 1 – 1" transform="translate(0.301 0.303)">
    <g id="noun-box-2962114" transform="translate(-141.505 -153.963)">
      <path id="Caminho_845" data-name="Caminho 845" d="M185.735,225.306v12.8a.252.252,0,0,1-.322.241l-12.782-2.609.05-.245-.05.246a.251.251,0,0,1-.2-.249v-7.023a.252.252,0,0,1,.322-.241l10.309,2.1,2.193-5.125.231.1-.231-.1a.251.251,0,0,1,.482.1Zm-.5,12.493V226.527l-1.784,4.171a.252.252,0,0,1-.288.164h0l-10.228-2.088v6.515l12.3,2.51Z" transform="translate(-28.648 -65.863)" fill="#2b327c" stroke="#2b327c" stroke-width="0.6"/>
      <path id="Caminho_846" data-name="Caminho 846" d="M144.1,189.514l12.783,2.609-.05.245.05-.246a.251.251,0,0,1,.2.3.261.261,0,0,1-.023.066l-1.272,2.972-.994,2.323-.231-.1.231.1a.252.252,0,0,1-.3.142l-12.783-2.609.05-.245-.05.246a.251.251,0,0,1-.2-.3.26.26,0,0,1,.023-.065l2.265-5.3.231.1-.231-.1a.252.252,0,0,1,.3-.138Zm12.382,3.038-12.3-2.511-2.072,4.843,12.3,2.511Z" transform="translate(0 -32.929)" fill="#2b327c" stroke="#2b327c" stroke-width="0.6"/>
      <path id="Caminho_847" data-name="Caminho 847" d="M347.086,226.518V237.79l12.3-2.51v-6.515l-10.228,2.088h0a.251.251,0,0,1-.288-.164l-1.784-4.171Zm-.5,11.578V225.3a.251.251,0,0,1,.482-.1l-.231.1.231-.1,2.193,5.125,10.309-2.1a.252.252,0,0,1,.322.241v7.023a.251.251,0,0,1-.2.249l-.05-.246.05.245-12.782,2.609a.252.252,0,0,1-.322-.241Z" transform="translate(-190 -65.855)" fill="#2b327c" stroke="#2b327c" stroke-width="0.6"/>
      <path id="Caminho_848" data-name="Caminho 848" d="M359.486,190.048l-12.3,2.511,2.072,4.843,1.343-.274,10.958-2.237-2.072-4.843Zm-12.653,2.327-.05-.245,12.783-2.609a.251.251,0,0,1,.3.142l-.231.1.231-.1,2.265,5.3a.252.252,0,0,1-.173.362l-.05-.246.05.245-12.256,2.5-.527.108a.251.251,0,0,1-.3-.142l.231-.1-.231.1-2.266-5.3a.252.252,0,0,1,.173-.362Z" transform="translate(-189.998 -32.935)" fill="#2b327c" stroke="#2b327c" stroke-width="0.6"/>
      <path id="Caminho_849" data-name="Caminho 849" d="M172.645,156.6a.251.251,0,1,0,.1.491l12.8-2.613a.251.251,0,1,0-.1-.491Z" transform="translate(-28.663 -0.015)" fill="#2b327c" stroke="#2b327c" stroke-width="0.6"/>
      <path id="Caminho_850" data-name="Caminho 850" d="M359.6,157.081a.251.251,0,0,0,.1-.491l-12.8-2.613a.251.251,0,0,0-.1.491Z" transform="translate(-190.01 -0.009)" fill="#2b327c" stroke="#2b327c" stroke-width="0.6"/>
      <path id="Caminho_851" data-name="Caminho 851" d="M346.58,159.44a.251.251,0,1,0,.5,0v-5.226a.251.251,0,0,0-.5,0Z" transform="translate(-189.996)" fill="#2b327c" stroke="#2b327c" stroke-width="0.6"/>
    </g>
    <path id="Caminho_498" data-name="Caminho 498" d="M1.315,63.08.3,63.228a.352.352,0,0,0-.2.6l.366.357.195.19a1.841,1.841,0,0,1,.653-1.3" transform="translate(15.175 -50.538) rotate(8)" fill="#ef7d00"/>
    <path id="Caminho_499" data-name="Caminho 499" d="M72.7,75.712a.313.313,0,0,0,.284-.3.325.325,0,0,0-.233-.341,1.465,1.465,0,0,0-.477-.059.84.84,0,0,0-.734.667,3.194,3.194,0,0,0,1.16.03" transform="translate(-52.471 -71.825) rotate(8)" fill="#ef7d00"/>
    <path id="Caminho_500" data-name="Caminho 500" d="M76.2,1.02A1.752,1.752,0,0,1,77.3,1.1L76.856.191a.353.353,0,0,0-.633,0l-.483.981A2.071,2.071,0,0,1,76.2,1.02" transform="translate(-66.735 0.165) rotate(8)" fill="#ef7d00"/>
    <path id="Caminho_501" data-name="Caminho 501" d="M37.148,166.334a1.181,1.181,0,0,1-.454-.334l-.038.22-.074.432a.353.353,0,0,0,.513.372l.991-.521.024-.012a2.033,2.033,0,0,1-.961-.157" transform="translate(-6.253 -155.061) rotate(8)" fill="#ef7d00"/>
    <path id="Caminho_502" data-name="Caminho 502" d="M70.489,63.345l-1-.145a.883.883,0,0,1,.169.763.809.809,0,0,1-.61.658,3.132,3.132,0,0,1-1.576.01l-.111-.025a.122.122,0,0,0-.036.007.512.512,0,0,0,.348.6c.511.175.981.248,2.18-.448a.336.336,0,0,1,.031-.034l.8-.78a.353.353,0,0,0-.2-.6" transform="translate(-49.994 -59.793) rotate(8)" fill="#ef7d00"/>
    <path id="Caminho_503" data-name="Caminho 503" d="M115.79,157.41a5.716,5.716,0,0,1-.969.532,2.83,2.83,0,0,1-.492.127.349.349,0,0,1,.1.035l.991.521a.353.353,0,0,0,.513-.372Z" transform="translate(-82.702 -157.324) rotate(8)" fill="#ef7d00"/>
  </g>
</svg>
