<svg id="noun-eye-248964" xmlns="http://www.w3.org/2000/svg" width="14.915" height="9.278" viewBox="0 0 14.915 9.278">
  <path id="Caminho_532" data-name="Caminho 532" d="M287.761,215.806a1.958,1.958,0,1,1-1.958-1.958,1.958,1.958,0,0,1,1.958,1.958" transform="translate(-278.346 -211.167)" fill="#fff"/>
  <path id="Caminho_533" data-name="Caminho 533" d="M112.62,127.438s-3.98-4.2-7.165-4.2-7.165,4.2-7.165,4.2c-.39.378-.39.5,0,.882,0,0,3.98,4.2,7.165,4.2s7.165-4.2,7.165-4.2C113.009,127.938,113.009,127.816,112.62,127.438Zm-7.165,3.378a2.937,2.937,0,1,1,2.937-2.936A2.937,2.937,0,0,1,105.454,130.816Z" transform="translate(-97.997 -123.24)" fill="#fff"/>
</svg>
