<svg xmlns="http://www.w3.org/2000/svg" width="19.318" height="19.301" viewBox="0 0 19.318 19.301">
  <g id="noun-blow-dryer-382121" transform="translate(-144.918 -75.071)">
    <path id="Caminho_1825" data-name="Caminho 1825" d="M432.886,156.73a.968.968,0,1,0,.968.968.97.97,0,0,0-.968-.968" transform="translate(-273.486 -77.814)" fill="#c84343"/>
    <path id="Caminho_1826" data-name="Caminho 1826" d="M161.337,91.467v-.252a1.943,1.943,0,0,0,.968-1.679V83.783h-.067a4.808,4.808,0,0,0-3.7-8.627l-13.622,1.828v5.794L158.437,84.6v2.039l-.968,2.9h.968a1.92,1.92,0,0,0,.968,1.679v.252a2.9,2.9,0,0,0,2.9,2.9h.968V92.441H162.3a.974.974,0,0,1-.963-.973m-1.931-8.688a2.9,2.9,0,1,1,2.9-2.9,2.9,2.9,0,0,1-2.9,2.9" transform="translate(0 0)" fill="#c84343"/>
  </g>
</svg>
