<svg xmlns="http://www.w3.org/2000/svg" width="19.456" height="19.456" viewBox="0 0 19.456 19.456">
  <g id="source_icons_instagram" transform="translate(-2.25 -2.25)">
    <path id="Caminho_101" data-name="Caminho 101" d="M11.99,15.98A3.99,3.99,0,1,0,8,11.99,3.99,3.99,0,0,0,11.99,15.98Z" transform="translate(-0.012 -0.012)" fill="none" stroke="#5c2a82" stroke-linecap="round" stroke-linejoin="round" stroke-width="1.5"/>
    <path id="Caminho_102" data-name="Caminho 102" d="M3,15.968V7.988A4.988,4.988,0,0,1,7.988,3h7.98a4.988,4.988,0,0,1,4.988,4.988v7.98a4.988,4.988,0,0,1-4.988,4.988H7.988A4.988,4.988,0,0,1,3,15.968Z" transform="translate(0 0)" fill="none" stroke="#5c2a82" stroke-width="1.5"/>
    <path id="Caminho_103" data-name="Caminho 103" d="M17.5,6.51l.01-.011" transform="translate(-0.036 -0.009)" fill="none" stroke="#5c2a82" stroke-linecap="round" stroke-linejoin="round" stroke-width="1.5"/>
  </g>
</svg>
