<svg xmlns="http://www.w3.org/2000/svg" xmlns:xlink="http://www.w3.org/1999/xlink" width="47.39" height="26.817" viewBox="0 0 47.39 26.817">
  <defs>
    <clipPath id="clip-path">
      <rect id="Retângulo_2207" data-name="Retângulo 2207" width="47.39" height="26.817" fill="#2d2d2d" stroke="#2d2d2d" stroke-width="0.4"/>
    </clipPath>
  </defs>
  <g id="Grupo_104" data-name="Grupo 104" transform="translate(0 0)">
    <g id="Grupo_103" data-name="Grupo 103" transform="translate(0 0)" clip-path="url(#clip-path)">
      <path id="Caminho_581" data-name="Caminho 581" d="M33.61,23.539H12.576a.565.565,0,1,1,0-1.131H33.044V2.106a.975.975,0,0,0-.974-.974H2.1a.975.975,0,0,0-.974.974V21.433a.976.976,0,0,0,.974.975h3.5a.565.565,0,1,1,0,1.131H2.1A2.108,2.108,0,0,1,0,21.433V2.106A2.108,2.108,0,0,1,2.1,0H32.07a2.108,2.108,0,0,1,2.1,2.106V22.974a.565.565,0,0,1-.565.565" transform="translate(0 0)" fill="#2d2d2d" stroke="#2d2d2d" stroke-width="0.4"/>
      <path id="Caminho_582" data-name="Caminho 582" d="M41.347,23.047H39.7a.565.565,0,1,1,0-1.131h1.643a.976.976,0,0,0,.974-.975V12.783a.975.975,0,0,0-.081-.388l-3.311-7.6a.037.037,0,0,0-.034-.023H30.237V21.916h2.73a.565.565,0,1,1,0,1.131h-3.3a.565.565,0,0,1-.565-.565V4.2a.565.565,0,0,1,.565-.565H38.9a1.168,1.168,0,0,1,1.072.7l3.309,7.6a2.079,2.079,0,0,1,.175.84v8.158a2.107,2.107,0,0,1-2.1,2.106" transform="translate(3.938 0.492)" fill="#2d2d2d" stroke="#2d2d2d" stroke-width="0.4"/>
      <path id="Caminho_583" data-name="Caminho 583" d="M38.893,11.4H32.043a.566.566,0,0,1-.565-.567V6.546a.566.566,0,0,1,.565-.567h5a.566.566,0,0,1,.519.342l1.852,4.291a.566.566,0,0,1-.519.79M32.609,10.27h5.423l-1.364-3.16h-4.06Z" transform="translate(4.259 0.809)" fill="#2d2d2d" stroke="#2d2d2d" stroke-width="0.4"/>
      <path id="Caminho_584" data-name="Caminho 584" d="M8.481,24.538a3.844,3.844,0,1,1,3.844-3.844,3.849,3.849,0,0,1-3.844,3.844m0-6.556a2.712,2.712,0,1,0,2.712,2.712,2.716,2.716,0,0,0-2.712-2.712" transform="translate(0.627 2.28)" fill="#2d2d2d" stroke="#2d2d2d" stroke-width="0.4"/>
      <path id="Caminho_585" data-name="Caminho 585" d="M35.92,24.538a3.844,3.844,0,1,1,3.844-3.844,3.849,3.849,0,0,1-3.844,3.844m0-6.556a2.712,2.712,0,1,0,2.712,2.712,2.716,2.716,0,0,0-2.712-2.712" transform="translate(4.34 2.28)" fill="#2d2d2d" stroke="#2d2d2d" stroke-width="0.4"/>
    </g>
  </g>
</svg>
