<svg xmlns="http://www.w3.org/2000/svg" width="21.34" height="15.101" viewBox="0 0 21.34 15.101">
  <g id="youtube-svgrepo-com" transform="translate(0 -67.393)">
    <path id="Caminho_164" data-name="Caminho 164" d="M16.908,67.393H4.432A4.432,4.432,0,0,0,0,71.825v6.237a4.432,4.432,0,0,0,4.432,4.432H16.908a4.432,4.432,0,0,0,4.432-4.432V71.825A4.432,4.432,0,0,0,16.908,67.393Zm-3,7.854L8.075,78.03a.234.234,0,0,1-.335-.211v-5.74a.234.234,0,0,1,.34-.209l5.835,2.957A.234.234,0,0,1,13.911,75.247Z" transform="translate(0 0)" fill="#d84237"/>
  </g>
</svg>
