<svg xmlns="http://www.w3.org/2000/svg" width="31.264" height="19.139" viewBox="0 0 31.264 19.139">
  <g id="noun-box-2962114" transform="translate(-141.2 -153.655)">
    <path id="Caminho_845" data-name="Caminho 845" d="M185.735,225.306v12.8a.252.252,0,0,1-.322.241l-12.782-2.609.05-.245-.05.246a.251.251,0,0,1-.2-.249v-7.023a.252.252,0,0,1,.322-.241l10.309,2.1,2.193-5.125.231.1-.231-.1a.251.251,0,0,1,.482.1Zm-.5,12.493V226.527l-1.784,4.171a.252.252,0,0,1-.288.164h0l-10.228-2.088v6.515l12.3,2.51Z" transform="translate(-28.648 -65.863)" fill="#2b327c" stroke="#2b327c" stroke-width="0.6"/>
    <path id="Caminho_846" data-name="Caminho 846" d="M144.1,189.514l12.783,2.609-.05.245.05-.246a.251.251,0,0,1,.2.3.26.26,0,0,1-.023.066l-1.272,2.972-.994,2.323-.231-.1.231.1a.252.252,0,0,1-.3.142l-12.783-2.609.05-.245-.05.246a.251.251,0,0,1-.2-.3.26.26,0,0,1,.023-.065l2.265-5.3.231.1-.231-.1A.252.252,0,0,1,144.1,189.514Zm12.382,3.038-12.3-2.511-2.072,4.843,12.3,2.511Z" transform="translate(0 -32.929)" fill="#2b327c" stroke="#2b327c" stroke-width="0.6"/>
    <path id="Caminho_847" data-name="Caminho 847" d="M347.086,226.518V237.79l12.3-2.51v-6.515l-10.228,2.088h0a.251.251,0,0,1-.288-.164l-1.784-4.171Zm-.5,11.578V225.3a.251.251,0,0,1,.482-.1l-.231.1.231-.1,2.193,5.125,10.309-2.1a.252.252,0,0,1,.322.241v7.023a.251.251,0,0,1-.2.249l-.05-.246.05.245-12.782,2.609a.252.252,0,0,1-.322-.241Z" transform="translate(-190 -65.855)" fill="#2b327c" stroke="#2b327c" stroke-width="0.6"/>
    <path id="Caminho_848" data-name="Caminho 848" d="M359.486,190.048l-12.3,2.511,2.072,4.843,1.343-.274,10.958-2.237-2.072-4.843Zm-12.653,2.327-.05-.245,12.783-2.609a.251.251,0,0,1,.3.142l-.231.1.231-.1,2.265,5.3a.252.252,0,0,1-.173.362l-.05-.246.05.245-12.256,2.5-.527.108a.251.251,0,0,1-.3-.142l.231-.1-.231.1-2.266-5.3a.252.252,0,0,1,.173-.362Z" transform="translate(-189.998 -32.935)" fill="#2b327c" stroke="#2b327c" stroke-width="0.6"/>
    <path id="Caminho_849" data-name="Caminho 849" d="M172.645,156.6a.25.25,0,0,0,.1.491l12.8-2.613a.25.25,0,1,0-.1-.491Z" transform="translate(-28.663 -0.015)" fill="#2b327c" stroke="#2b327c" stroke-width="0.6"/>
    <path id="Caminho_850" data-name="Caminho 850" d="M359.6,157.081a.25.25,0,1,0,.1-.491l-12.8-2.613a.25.25,0,1,0-.1.491Z" transform="translate(-190.01 -0.009)" fill="#2b327c" stroke="#2b327c" stroke-width="0.6"/>
    <path id="Caminho_851" data-name="Caminho 851" d="M346.58,159.44a.251.251,0,1,0,.5,0v-5.226a.251.251,0,0,0-.5,0Z" transform="translate(-189.996)" fill="#2b327c" stroke="#2b327c" stroke-width="0.6"/>
  </g>
</svg>
