<svg xmlns="http://www.w3.org/2000/svg" width="14.659" height="14.659" viewBox="0 0 14.659 14.659">
  <g id="noun_menu_3568792" transform="translate(0 0)">
    <g id="Grupo_17" data-name="Grupo 17" transform="translate(0 0)">
      <g id="Grupo_16" data-name="Grupo 16">
        <path id="Caminho_169" data-name="Caminho 169" d="M14.864,9H9.489A.488.488,0,0,0,9,9.489v5.375a.488.488,0,0,0,.489.489h5.375a.488.488,0,0,0,.489-.489V9.489A.488.488,0,0,0,14.864,9Z" transform="translate(-9 -9)" fill="#707070"/>
        <path id="Caminho_170" data-name="Caminho 170" d="M31.864,9H26.489A.488.488,0,0,0,26,9.489v5.375a.488.488,0,0,0,.489.489h5.375a.488.488,0,0,0,.489-.489V9.489A.488.488,0,0,0,31.864,9Z" transform="translate(-17.693 -9)" fill="#707070"/>
        <path id="Caminho_171" data-name="Caminho 171" d="M14.864,26H9.489A.488.488,0,0,0,9,26.489v5.375a.488.488,0,0,0,.489.489h5.375a.488.488,0,0,0,.489-.489V26.489A.488.488,0,0,0,14.864,26Z" transform="translate(-9 -17.693)" fill="#707070"/>
        <path id="Caminho_172" data-name="Caminho 172" d="M31.864,26H26.489a.488.488,0,0,0-.489.489v5.375a.488.488,0,0,0,.489.489h5.375a.488.488,0,0,0,.489-.489V26.489A.488.488,0,0,0,31.864,26Z" transform="translate(-17.693 -17.693)" fill="#707070"/>
      </g>
    </g>
  </g>
</svg>
