<svg xmlns="http://www.w3.org/2000/svg" width="7.734" height="10.714" viewBox="0 0 7.734 10.714">
  <g id="noun_Phone_1778896" transform="translate(89.483 92.002)">
    <g id="Grupo_12" data-name="Grupo 12" transform="translate(-89.483 -92.002)">
      <path id="Caminho_161" data-name="Caminho 161" d="M25.179,14.154,24.12,12.319a.619.619,0,0,0-.851-.186l-.938.542A6.555,6.555,0,0,1,19.91,8.483l.938-.542a.619.619,0,0,0,.265-.83L20.054,5.277a.619.619,0,0,0-.851-.185l-.98.566c-1.618.934-.05,4.87.709,6.185s3.384,4.641,5,3.707l.98-.566A.619.619,0,0,0,25.179,14.154Z" transform="translate(-17.517 -4.999)" fill="#ef7d00" fill-rule="evenodd"/>
    </g>
  </g>
</svg>
