<svg id="Componente_79_1" data-name="Componente 79 – 1" xmlns="http://www.w3.org/2000/svg" width="36.474" height="21" viewBox="0 0 36.474 21">
  <rect id="Retângulo_74" data-name="Retângulo 74" width="36.474" height="21" rx="1" fill="#00579f"/>
  <g id="g4158" transform="translate(-73.166 -97.048)">
    <path id="polygon9" d="M435.166,117.145h-1.659l1.038-6.418H436.2Z" transform="translate(-345.124 -5.563)" fill="#fff"/>
    <path id="path11" d="M570.157,105.321a4.089,4.089,0,0,0-1.488-.273c-1.639,0-2.793.874-2.8,2.123-.014.922.826,1.434,1.454,1.741s.86.519.86.8c-.007.43-.519.628-1,.628a3.3,3.3,0,0,1-1.557-.341l-.219-.1-.232,1.441a5.05,5.05,0,0,0,1.851.342c1.741,0,2.875-.86,2.888-2.192.007-.731-.437-1.29-1.393-1.748-.58-.294-.936-.492-.936-.792.007-.273.3-.553.956-.553a2.82,2.82,0,0,1,1.236.246l.15.068.226-1.386Z" transform="translate(-474.098)" fill="#fff"/>
    <path id="path13" d="M793.089,114.871c.137-.369.663-1.8.663-1.8s.136-.376.218-.614l.116.553s.314,1.536.383,1.857Zm2.048-4.144h-1.284a.819.819,0,0,0-.867.533l-2.465,5.885h1.741l.348-.963h2.131c.048.225.2.963.2.963h1.537l-1.339-6.418Z" transform="translate(-694.825 -5.563)" fill="#fff"/>
    <path id="path15" d="M169.933,110.727l-1.625,4.376-.178-.888a4.912,4.912,0,0,0-2.294-2.69l1.489,5.612h1.755l2.608-6.411Z" transform="translate(-82.935 -5.563)" fill="#fff"/>
    <path id="path17" d="M83.863,110.727h-2.67l-.027.13a5.553,5.553,0,0,1,4.029,3.359l-.58-2.95a.687.687,0,0,0-.751-.539Z" transform="translate(0 -5.563)" fill="#faa61a"/>
  </g>
</svg>
