<svg xmlns="http://www.w3.org/2000/svg" width="10.812" height="15.934" viewBox="0 0 10.812 15.934">
  <g id="noun-pacifier-479968" transform="translate(-178.95 -27.999)">
    <path id="Caminho_1841" data-name="Caminho 1841" d="M185.791,34.852c.295-1.908,1.268-2.936,1.268-4.15a2.7,2.7,0,0,0-5.406,0c0,1.214.973,2.242,1.268,4.15-2.289.2-3.971.862-3.971,1.65,0,.945,2.42,1.712,5.406,1.712s5.406-.767,5.406-1.712C189.762,35.714,188.08,35.051,185.791,34.852Z" fill="#803cab"/>
    <path id="Caminho_1842" data-name="Caminho 1842" d="M223.008,354.578a2.973,2.973,0,1,1-5.537,0,9.839,9.839,0,0,1-1.233-.3,4.234,4.234,0,1,0,8,0,9.8,9.8,0,0,1-1.233.3Z" transform="translate(-35.884 -315.967)" fill="#803cab"/>
  </g>
</svg>
