<svg xmlns="http://www.w3.org/2000/svg" width="20.074" height="20.031" viewBox="0 0 20.074 20.031">
  <g id="XMLID_801_" transform="translate(0 -0.341)">
    <path id="XMLID_802_" d="M9.281,99.73H5.251a.324.324,0,0,0-.324.324V113a.324.324,0,0,0,.324.324h4.03A.324.324,0,0,0,9.6,113V100.054A.324.324,0,0,0,9.281,99.73Z" transform="translate(-4.608 -92.953)" fill="#0e76a8"/>
    <path id="XMLID_803_" d="M2.659.341A2.657,2.657,0,1,0,5.316,3,2.661,2.661,0,0,0,2.659.341Z" transform="translate(0 0)" fill="#0e76a8"/>
    <path id="XMLID_804_" d="M114.224,94.761a4.733,4.733,0,0,0-3.541,1.486v-.841a.324.324,0,0,0-.324-.324H106.5a.324.324,0,0,0-.324.324v12.947a.324.324,0,0,0,.324.324h4.021a.324.324,0,0,0,.324-.324v-6.406c0-2.159.586-3,2.091-3,1.639,0,1.769,1.348,1.769,3.111v6.295a.324.324,0,0,0,.324.324h4.023a.324.324,0,0,0,.324-.324v-7.1C119.375,98.042,118.763,94.761,114.224,94.761Z" transform="translate(-99.3 -88.306)" fill="#0e76a8"/>
  </g>
</svg>
