<svg xmlns="http://www.w3.org/2000/svg" width="14.788" height="15.089" viewBox="0 0 14.788 15.089">
  <g id="noun-paper-1869572" transform="translate(-104.84 -29.844)">
    <path id="Caminho_1831" data-name="Caminho 1831" d="M315.844,29.844l2.47.574h-2.6Z" transform="translate(-204.51 0)" fill="#28628e"/>
    <path id="Caminho_1832" data-name="Caminho 1832" d="M107.938,126.827l-3.1-11.739,3.046-.8v10.633h5.5l.952.221Z" transform="translate(0 -81.893)" fill="#28628e"/>
    <path id="Caminho_1833" data-name="Caminho 1833" d="M422.11,84.393h2.458V72.5l2.761.642L424.58,84.967Z" transform="translate(-307.701 -41.37)" fill="#28628e"/>
    <path id="Caminho_1834" data-name="Caminho 1834" d="M221.25,56.594h-7.71V68.735h8.516V56.594Zm.066,6.186h-7.035v-.232h7.035Zm0-1.321h-7.035v-.232h7.035Zm0-1.322h-7.035V59.9h7.035Zm0-1.321h-7.035v-.232h7.035Z" transform="translate(-105.422 -25.943)" fill="#28628e"/>
  </g>
</svg>
