<svg xmlns="http://www.w3.org/2000/svg" width="115.978" height="26.786" viewBox="0 0 115.978 26.786">
  <g id="g29" transform="translate(-0.93 -1.606)">
    <g id="svg_1" transform="translate(26.95 13.728)">
      <g id="svg_2" transform="translate(0 0.207)">
        <g id="svg_3">
          <path id="svg_4" d="M76.621,48.269v-10.8h2.623V46h4.178v2.272h-6.8Z" transform="translate(-76.621 -37.472)" fill="#2c3c69"/>
          <path id="svg_5" d="M106.44,50.21v.305a2.677,2.677,0,0,1-.015.29h-5.5a1.324,1.324,0,0,0,.191.58,1.66,1.66,0,0,0,.411.45,2.026,2.026,0,0,0,1.212.4,2.1,2.1,0,0,0,1.007-.221,1.988,1.988,0,0,0,.671-.572l1.738,1.1a3.515,3.515,0,0,1-1.41,1.2,4.676,4.676,0,0,1-2.036.419,4.868,4.868,0,0,1-1.616-.267,3.924,3.924,0,0,1-1.334-.778,3.6,3.6,0,0,1-.9-1.258,4.212,4.212,0,0,1-.328-1.708,4.273,4.273,0,0,1,.32-1.685,3.81,3.81,0,0,1,.869-1.281,3.864,3.864,0,0,1,1.3-.816,4.437,4.437,0,0,1,1.616-.29,4.091,4.091,0,0,1,1.54.282,3.357,3.357,0,0,1,1.2.816,3.772,3.772,0,0,1,.785,1.3,5,5,0,0,1,.282,1.738Zm-2.3-.961a1.5,1.5,0,0,0-.374-1.022,1.412,1.412,0,0,0-1.121-.427,1.9,1.9,0,0,0-.671.114,1.747,1.747,0,0,0-.534.312,1.549,1.549,0,0,0-.366.465,1.361,1.361,0,0,0-.152.556h3.217Z" transform="translate(-90.997 -43.12)" fill="#2c3c69"/>
          <path id="svg_6" d="M126.182,44.835v2.909a1.307,1.307,0,0,0,.206.8.88.88,0,0,0,.739.267,2.579,2.579,0,0,0,.389-.031,1.326,1.326,0,0,0,.343-.091l.031,1.83a4.187,4.187,0,0,1-.656.16,4.648,4.648,0,0,1-.793.068,3.736,3.736,0,0,1-1.281-.191,1.976,1.976,0,0,1-.831-.551,2.152,2.152,0,0,1-.45-.856,4.147,4.147,0,0,1-.137-1.108v-3.21h-1.22v-1.86h1.2v-2h2.455v2h1.784v1.86h-1.784Z" transform="translate(-106.743 -39.772)" fill="#2c3c69"/>
          <path id="svg_7" d="M151.842,48.561a2.8,2.8,0,0,0-.717-.488,1.98,1.98,0,0,0-.869-.2,1.531,1.531,0,0,0-.648.137.482.482,0,0,0-.3.473.471.471,0,0,0,.328.458,7.109,7.109,0,0,0,1.06.3,5.766,5.766,0,0,1,.862.26,3.041,3.041,0,0,1,.785.442,2.121,2.121,0,0,1,.564.671,1.972,1.972,0,0,1,.213.945,2.277,2.277,0,0,1-1.045,2.013,3.252,3.252,0,0,1-1.044.442,5,5,0,0,1-1.159.137,5.726,5.726,0,0,1-1.823-.3,3.823,3.823,0,0,1-1.486-.877l1.4-1.479a2.783,2.783,0,0,0,.823.61,2.284,2.284,0,0,0,1.037.244,1.361,1.361,0,0,0,.6-.145.519.519,0,0,0,.3-.51.547.547,0,0,0-.366-.519,6.6,6.6,0,0,0-1.144-.351,5.877,5.877,0,0,1-.793-.244,2.5,2.5,0,0,1-.709-.412,2.042,2.042,0,0,1-.511-.64,1.961,1.961,0,0,1-.2-.915,2.216,2.216,0,0,1,.29-1.167,2.452,2.452,0,0,1,.747-.785,3.325,3.325,0,0,1,1.014-.45,4.358,4.358,0,0,1,1.106-.145,5.352,5.352,0,0,1,1.669.267,3.609,3.609,0,0,1,1.38.8l-1.373,1.419Z" transform="translate(-122.522 -43.118)" fill="#2c3c69"/>
          <path id="svg_8" d="M179.568,48.269v-10.8h7.258v2.2h-4.742v2.043h4.483V43.8h-4.483v2.242H187.1v2.227Z" transform="translate(-144.179 -37.472)" fill="#2c3c69"/>
          <path id="svg_9" d="M211.156,53.975V49.827a3.409,3.409,0,0,0-.053-.61,1.682,1.682,0,0,0-.176-.511.914.914,0,0,0-.343-.351,1.092,1.092,0,0,0-.557-.13,1.272,1.272,0,0,0-.587.13,1.2,1.2,0,0,0-.419.359,1.625,1.625,0,0,0-.251.526,2.263,2.263,0,0,0-.084.618v4.117H206.17V46.38h2.425v1.052h.031a2.5,2.5,0,0,1,.359-.48,2.142,2.142,0,0,1,.518-.4,3.23,3.23,0,0,1,.648-.275,2.563,2.563,0,0,1,.747-.107,2.81,2.81,0,0,1,1.3.275,2.48,2.48,0,0,1,.862.709,2.793,2.793,0,0,1,.473,1,4.54,4.54,0,0,1,.145,1.129v4.7h-2.517Z" transform="translate(-161.636 -43.178)" fill="#2c3c69"/>
          <path id="svg_10" d="M235.97,48.777a1.526,1.526,0,0,0-.58-.442,1.78,1.78,0,0,0-.747-.168,1.577,1.577,0,0,0-.717.16,1.751,1.751,0,0,0-.549.427,2.014,2.014,0,0,0-.359.618,2.141,2.141,0,0,0-.13.747,2.253,2.253,0,0,0,.122.747,1.814,1.814,0,0,0,.358.618,1.7,1.7,0,0,0,.564.419,1.732,1.732,0,0,0,.739.152,2.072,2.072,0,0,0,.755-.145,1.447,1.447,0,0,0,.6-.419l1.388,1.693a3.267,3.267,0,0,1-1.22.717,4.811,4.811,0,0,1-1.586.259,5.03,5.03,0,0,1-1.68-.275,3.9,3.9,0,0,1-1.355-.8,3.757,3.757,0,0,1-.905-1.273,4.472,4.472,0,0,1,0-3.37,3.762,3.762,0,0,1,.905-1.273,4,4,0,0,1,1.355-.808,4.859,4.859,0,0,1,1.665-.282,4.359,4.359,0,0,1,.816.077,5.445,5.445,0,0,1,.778.206,3.524,3.524,0,0,1,.686.32,2.881,2.881,0,0,1,.541.419l-1.448,1.677Z" transform="translate(-177.499 -43.12)" fill="#2c3c69"/>
          <path id="svg_11" d="M258.629,48.438a1.961,1.961,0,0,0-.328-.061c-.107-.01-.211-.015-.312-.015a1.789,1.789,0,0,0-.846.183,1.725,1.725,0,0,0-.549.441,1.667,1.667,0,0,0-.3.563,1.887,1.887,0,0,0-.091.532v3.893h-2.5V46.389h2.409v1.1h.031a2.472,2.472,0,0,1,.824-.952,2.118,2.118,0,0,1,1.235-.369,2.9,2.9,0,0,1,.3.015,1.144,1.144,0,0,1,.237.046Z" transform="translate(-192.83 -43.177)" fill="#2c3c69"/>
          <path id="svg_12" d="M275.051,55.526a6.623,6.623,0,0,1-.511,1.06,3.2,3.2,0,0,1-.671.793,2.654,2.654,0,0,1-.915.5,4.111,4.111,0,0,1-1.243.168,5.926,5.926,0,0,1-.724-.046,4.529,4.529,0,0,1-.648-.122l.275-2.1a2.808,2.808,0,0,0,.4.1,2.422,2.422,0,0,0,.4.038,1.131,1.131,0,0,0,.839-.267,2.167,2.167,0,0,0,.442-.755l.244-.625-3.172-7.472h2.775l1.693,4.88h.046l1.51-4.88h2.653Z" transform="translate(-203.376 -43.586)" fill="#2c3c69"/>
          <path id="svg_13" d="M305.369,50.147a4.791,4.791,0,0,1-.244,1.525,3.928,3.928,0,0,1-.709,1.288,3.5,3.5,0,0,1-1.136.892,3.372,3.372,0,0,1-1.525.336,3.189,3.189,0,0,1-1.327-.282,2.37,2.37,0,0,1-.976-.77h-.03v4.5h-2.5V46.38H299.3v.93h.046a3.087,3.087,0,0,1,.968-.8,2.952,2.952,0,0,1,1.456-.343,3.426,3.426,0,0,1,1.494.32,3.38,3.38,0,0,1,1.136.869,3.951,3.951,0,0,1,.717,1.273A4.592,4.592,0,0,1,305.369,50.147Zm-2.425,0a2.3,2.3,0,0,0-.114-.717,1.866,1.866,0,0,0-.336-.618,1.681,1.681,0,0,0-1.334-.6,1.683,1.683,0,0,0-.762.168,1.816,1.816,0,0,0-.572.442,2.02,2.02,0,0,0-.366.625,2.047,2.047,0,0,0,0,1.433,2.012,2.012,0,0,0,.366.625,1.817,1.817,0,0,0,.572.442,1.681,1.681,0,0,0,.762.167,1.719,1.719,0,0,0,.778-.167,1.652,1.652,0,0,0,.557-.442,1.936,1.936,0,0,0,.336-.633A2.37,2.37,0,0,0,302.944,50.147Z" transform="translate(-221.19 -43.178)" fill="#2c3c69"/>
          <path id="svg_14" d="M326.132,44.835v2.909a1.308,1.308,0,0,0,.206.8.88.88,0,0,0,.739.267,2.579,2.579,0,0,0,.389-.031,1.326,1.326,0,0,0,.343-.091l.031,1.83a4.188,4.188,0,0,1-.656.16,4.648,4.648,0,0,1-.793.068,3.736,3.736,0,0,1-1.281-.191,1.976,1.976,0,0,1-.831-.551,2.153,2.153,0,0,1-.45-.856,4.148,4.148,0,0,1-.137-1.108v-3.21h-1.22v-1.86h1.2v-2h2.455v2h1.784v1.86h-1.784Z" transform="translate(-237.958 -39.772)" fill="#2c3c69"/>
        </g>
      </g>
      <path id="svg_15" d="M142.456,36.87a1.274,1.274,0,0,0-1.338,1.231,1.158,1.158,0,0,0,1.231,1.216.9.9,0,0,0,.178-.017,1.391,1.391,0,0,1-1.127,1l-.1.016v1.161l.129-.012a2.741,2.741,0,0,0,1.613-.741,3.041,3.041,0,0,0,.858-2.258,1.476,1.476,0,0,0-1.445-1.6Z" transform="translate(-118.946 -36.87)" fill="#2c3c69"/>
    </g>
    <g id="svg_16" transform="translate(6.953 7.73)">
      <path id="svg_17" d="M28.089,25.659H25.325V24.24a2.056,2.056,0,0,0-4.111,0v1.419H18.45V24.24a4.82,4.82,0,1,1,9.639,0v1.419Z" transform="translate(-18.45 -19.42)" fill="#f9a11d"/>
    </g>
    <path id="svg_18" d="M25.317,37.568H13.448a.924.924,0,0,0-.921.921v8.78a.924.924,0,0,0,.921.921H25.317a.924.924,0,0,0,.921-.921v-8.78a.924.924,0,0,0-.921-.921Zm-5.333,5.765v1.19a.6.6,0,1,1-1.2,0V43.333a1.221,1.221,0,1,1,1.2,0Z" transform="translate(-7.61 -23.6)" fill="#2c3c69"/>
    <path id="svg_19" d="M4.635,30.55H1.771a.841.841,0,1,1,0-1.682H4.635a.841.841,0,1,1,0,1.682Z" transform="translate(0 -17.89)" fill="#f9a11d"/>
    <path id="svg_20" d="M11.646,13.888a.836.836,0,0,1-.534-.191L8.847,11.834a.841.841,0,0,1,1.068-1.3L12.181,12.4a.841.841,0,0,1-.535,1.491Z" transform="translate(-4.994 -5.734)" fill="#f9a11d"/>
    <path id="svg_21" d="M30.864,6.174a.841.841,0,0,1-.841-.841V2.447a.841.841,0,1,1,1.682,0V5.333A.841.841,0,0,1,30.864,6.174Z" transform="translate(-19.092 0)" fill="#f9a11d"/>
    <g id="svg_22" transform="translate(16.05 4.61)">
      <g id="svg_23">
        <path id="svg_24" d="M45.757,13.888a.841.841,0,0,1-.535-1.491l2.265-1.863a.841.841,0,0,1,1.068,1.3L46.29,13.7A.836.836,0,0,1,45.757,13.888Z" transform="translate(-44.915 -10.343)" fill="#f9a11d"/>
      </g>
    </g>
    <path id="svg_25" d="M54.439,30.55H51.548a.841.841,0,1,1,0-1.682h2.891a.841.841,0,0,1,0,1.682Z" transform="translate(-32.666 -17.89)" fill="#f9a11d"/>
  </g>
</svg>
