<svg xmlns="http://www.w3.org/2000/svg" width="8.719" height="23.376" viewBox="0 0 8.719 23.376">
  <g id="noun-broom-106375" transform="translate(-290.995 -39.82)">
    <path id="Caminho_1828" data-name="Caminho 1828" d="M342.4,40.8V28.367c0-.2-.3-.362-.659-.362s-.659.162-.659.362V40.8a4.724,4.724,0,0,1,1.319,0Z" transform="translate(-46.383 11.815)" fill="#8f7c56"/>
    <path id="Caminho_1829" data-name="Caminho 1829" d="M308.759,352.958a3.559,3.559,0,0,0-2.461-3.383v-.981c0-.605-2.19-.605-2.19,0v.981a3.558,3.558,0,0,0-2.461,3.383s-.007.233-.019.605h7.153c-.015-.372-.021-.605-.021-.605Z" transform="translate(-9.847 -295.164)" fill="#8f7c56"/>
    <path id="Caminho_1830" data-name="Caminho 1830" d="M299.714,434.573a7.569,7.569,0,0,1-.61-2.379c-.068-.564-.119-1.255-.152-1.761h-7.2c-.033.506-.085,1.2-.152,1.761a7.565,7.565,0,0,1-.609,2.379h.948a7.427,7.427,0,0,0,.49-1.954,17.6,17.6,0,0,0-.014,1.954h4.645a26.447,26.447,0,0,0-.022-2.956,11.3,11.3,0,0,0,.741,2.956Z" transform="translate(0 -371.377)" fill="#8f7c56"/>
  </g>
</svg>
