<svg xmlns="http://www.w3.org/2000/svg" viewBox="0 0 28.92 48.36"><defs><style>.cls-1{fill:#fff;stroke:#fff;stroke-miterlimit:10;stroke-width:0.75px;}</style></defs><g id="Camada_2" data-name="Camada 2"><g id="Camada_1-2" data-name="Camada 1"><path class="cls-1" d="M7.9,38.39a.63.63,0,0,1-.16-.27L5.8,31.34a35.55,35.55,0,0,1-.42-18.06,23.28,23.28,0,0,1,4-8.6l3-4.07a.54.54,0,0,1,.44-.23.53.53,0,0,1,.46.19l3.37,3.79a23.62,23.62,0,0,1,4.74,8.23,35.82,35.82,0,0,1,1.14,18l-1.34,7a.62.62,0,0,1-.55.47L16,38.2a.58.58,0,0,1-.61-.55h0A.6.6,0,0,1,16,37l4.14-.18L21.4,30.4A34.57,34.57,0,0,0,20.29,13a22.17,22.17,0,0,0-4.5-7.82L12.9,1.88,10.3,5.37a22.16,22.16,0,0,0-3.82,8.18A34.6,34.6,0,0,0,6.89,31L8.7,37.36l4.05-.18a.6.6,0,0,1,.61.56.58.58,0,0,1-.56.6h0l-4.51.2A.67.67,0,0,1,7.9,38.39Z"/><path class="cls-1" d="M10.84,17.87a3.85,3.85,0,0,1-1.28-2.72,3.93,3.93,0,0,1,7.86-.34h0a3.92,3.92,0,0,1-6.58,3.06Zm4.53-4.93a2.78,2.78,0,0,0-3.92.16,2.82,2.82,0,0,0-.72,2,2.77,2.77,0,1,0,4.64-2.16Z"/><path class="cls-1" d="M5.69,47.85h0l-2.5-2.63a10.45,10.45,0,0,1,.5-14.77A10.14,10.14,0,0,1,5.6,29a.58.58,0,0,1,.8.23l0,.12L8.82,37.8a.71.71,0,0,1,0,.29L6.61,47.55a.59.59,0,0,1-.42.43A.63.63,0,0,1,5.69,47.85Zm-.11-17.4a9.28,9.28,0,0,0-2.39,12.9,10.43,10.43,0,0,0,.89,1.1l1.68,1.81L7.7,38Z"/><path class="cls-1" d="M23.27,47.09a.67.67,0,0,1-.16-.25l-3-9.23a.71.71,0,0,1,0-.29l1.6-8.6a.54.54,0,0,1,.31-.41.57.57,0,0,1,.51,0,10.46,10.46,0,0,1,5,13.89,11.29,11.29,0,0,1-1.24,2L24.13,47a.63.63,0,0,1-.56.22A.77.77,0,0,1,23.27,47.09Zm-2-9.7,2.64,8.06,1.52-1.94a9.29,9.29,0,0,0-1.6-13,9.11,9.11,0,0,0-1.12-.75Z"/><path class="cls-1" d="M14.33,47.43c-.43-.4-.88-1.56-1.4-4.76a73.92,73.92,0,0,1-.85-8.25,12.51,12.51,0,0,1,.34-4.68,1.9,1.9,0,0,1,3.41-.14,12.72,12.72,0,0,1,.74,4.62h0a79.31,79.31,0,0,1-.13,8.3c-.35,4.67-.93,5.08-1.54,5.1A.74.74,0,0,1,14.33,47.43Zm.3-17.56c-.12-.11-.26-.11-.5-.1a.55.55,0,0,0-.63.41,12.06,12.06,0,0,0-.26,4.19A56.05,56.05,0,0,0,14.83,46a57.19,57.19,0,0,0,.58-11.69h0a12.39,12.39,0,0,0-.61-4.15A.92.92,0,0,0,14.63,29.87Z"/><path class="cls-1" d="M8.81,6.39a.58.58,0,0,1,.66-.94h0a7,7,0,0,0,7.11-.33.58.58,0,0,1,.65,1h0a8.23,8.23,0,0,1-8.29.38h0Z"/></g></g></svg>