<svg xmlns="http://www.w3.org/2000/svg" width="23" height="23" viewBox="0 0 23 23">
  <g id="svgexport-14" transform="translate(-0.407)">
    <circle id="Elipse_98" data-name="Elipse 98" cx="11.5" cy="11.5" r="11.5" transform="translate(0.407)" fill="#25d366"/>
    <path id="Caminho_536" data-name="Caminho 536" d="M23.437,18.41c-.194-.1-1.142-.561-1.319-.625s-.306-.1-.435.1-.5.624-.611.752-.225.136-.417.049a5.248,5.248,0,0,1-1.554-.96,5.862,5.862,0,0,1-1.074-1.339c-.113-.194-.013-.3.084-.4s.194-.223.291-.34a1.557,1.557,0,0,0,.192-.32.357.357,0,0,0-.016-.34c-.049-.1-.435-1.048-.6-1.426s-.315-.33-.435-.33-.241-.01-.369-.01a.729.729,0,0,0-.516.233,2.159,2.159,0,0,0-.675,1.6,3.787,3.787,0,0,0,.788,1.989,8.634,8.634,0,0,0,3.3,2.9c.462.194.821.31,1.1.407a2.682,2.682,0,0,0,1.215.078,1.986,1.986,0,0,0,1.3-.922,1.6,1.6,0,0,0,.116-.922c-.049-.087-.175-.136-.369-.223m-3.522,4.812h-.01a6.467,6.467,0,0,1-3.269-.892l-.233-.139-2.425.631.65-2.357-.155-.243a6.431,6.431,0,1,1,5.447,3m5.466-11.835A7.85,7.85,0,0,0,19.911,9.11a7.689,7.689,0,0,0-6.693,11.535l-1.1,3.985,4.1-1.069a7.777,7.777,0,0,0,3.693.936h0A7.721,7.721,0,0,0,27.642,16.8a7.631,7.631,0,0,0-2.26-5.44" transform="translate(-7.955 -6.071)" fill="#fff"/>
  </g>
</svg>
