<svg id="noun-box-4509516" xmlns="http://www.w3.org/2000/svg" width="17.863" height="12.922" viewBox="0 0 17.863 12.922">
  <path id="Caminho_890" data-name="Caminho 890" d="M366.533,329.93v3.651a.357.357,0,0,1-.225.332l-6.977,2.74v-6.266l.818,1.068a1.074,1.074,0,0,0,.861.436,1.019,1.019,0,0,0,.389-.075Z" transform="translate(-350.041 -323.731)" fill="#fff"/>
  <path id="Caminho_891" data-name="Caminho 891" d="M159.957,330.2c-.093,1.057-.15,4.5-.154,6.459l-6.969-2.736a.357.357,0,0,1-.225-.332v-3.651l4.9,1.8.032.011.193.071a1.019,1.019,0,0,0,.389.075,1.071,1.071,0,0,0,.85-.421Z" transform="translate(-151.231 -323.742)" fill="#fff"/>
  <path id="Caminho_892" data-name="Caminho 892" d="M134.385,172.434l-1.829-2.208a.076.076,0,0,0-.021-.014.377.377,0,0,0-.071-.061l-.043-.021c-.011,0-.021-.011-.032-.014l-6.741-2.122a.326.326,0,0,0-.218,0l-6.741,2.122c-.011,0-.021.011-.032.014l-.043.021a.554.554,0,0,0-.071.057c-.007.007-.014.011-.021.018l-1.829,2.208a.349.349,0,0,0-.071.321.354.354,0,0,0,.221.239l6.534,2.4a.3.3,0,0,0,.125.025.35.35,0,0,0,.282-.143l1.758-2.29,1.754,2.29a.35.35,0,0,0,.282.143.3.3,0,0,0,.125-.025l6.534-2.4a.346.346,0,0,0,.221-.239.34.34,0,0,0-.071-.322Zm-8.845-.407-5.5-1.586,5.5-1.733,5.5,1.733Z" transform="translate(-116.607 -167.975)" fill="#fff"/>
</svg>
