<svg xmlns="http://www.w3.org/2000/svg" width="16.077" height="16.077" viewBox="0 0 16.077 16.077">
  <g id="noun-cookie-2385493" transform="translate(-139.999 -70)">
    <path id="Caminho_1773" data-name="Caminho 1773" d="M150.272,70.315a2.9,2.9,0,0,0,1.522,2.463,2.9,2.9,0,0,0,4.1,3.57,8.03,8.03,0,1,1-5.626-6.033ZM144.465,76.7a.893.893,0,1,0-.893-.893A.893.893,0,0,0,144.465,76.7Zm2.679-2.679a.893.893,0,1,0-.893-.893A.893.893,0,0,0,147.145,74.019Zm2.9,5.806a1.116,1.116,0,1,0-1.117-1.116A1.116,1.116,0,0,0,150.048,79.825Zm-5.136,1.786a.893.893,0,1,0-.893-.893A.893.893,0,0,0,144.912,81.611Zm-2.679-3.126a.447.447,0,1,0-.446-.447A.447.447,0,0,0,142.232,78.485Zm4.466.446a.447.447,0,1,0-.447-.446A.447.447,0,0,0,146.7,78.932Zm1.786,4.019a.447.447,0,1,0-.447-.446A.447.447,0,0,0,148.485,82.951Zm0-6.7a.447.447,0,1,0-.447-.446A.447.447,0,0,0,148.485,76.252Zm3.126,5.806a.447.447,0,1,0-.446-.447A.447.447,0,0,0,151.61,82.058Z" fill="#644715"/>
  </g>
</svg>
