<svg xmlns="http://www.w3.org/2000/svg" width="11.501" height="16.854" viewBox="0 0 11.501 16.854">
  <g id="noun-mouse-1028721" transform="translate(-178.037 -27.995)">
    <path id="Caminho_1827" data-name="Caminho 1827" d="M188.943,35.454c-.618-1.936-.374-6.276-.374-6.276.292-.752-3.727-1.133-4.557-1.184v1.178a.681.681,0,0,1,.595.675v2.831a.681.681,0,0,1-.595.675v1.2h-.448v-1.2a.681.681,0,0,1-.6-.675V29.848a.681.681,0,0,1,.6-.675V27.995c-.83.051-4.519.432-4.557,1.183,0,0,.244,4.34-.374,6.276-1.121,3.512-1.27,9.115,5.155,9.4,6.425-.281,6.276-5.884,5.155-9.4Z" transform="translate(0)" fill="#202020"/>
  </g>
</svg>
