<svg xmlns="http://www.w3.org/2000/svg" width="10.765" height="11.989" viewBox="0 0 10.765 11.989">
  <g id="noun-snow-1959861" transform="translate(0.012 0.011)">
    <path id="Caminho_1850" data-name="Caminho 1850" d="M334.306,24.522V13.335a.367.367,0,1,0-.731,0V24.522a.367.367,0,1,0,.731,0Z" transform="translate(-328.573 -12.945)" fill="#3e70a2"/>
    <path id="Caminho_1851" data-name="Caminho 1851" d="M257.472,52.469l-.6.6-.96.96-.22.22h.518l-.6-.6-.96-.96-.22-.22a.367.367,0,0,0-.518.518l.6.6.96.96.22.22a.37.37,0,0,0,.518,0l.6-.6.96-.96.22-.22a.367.367,0,0,0-.518-.518Z" transform="translate(-250.582 -51.461)" fill="#3e70a2"/>
    <path id="Caminho_1852" data-name="Caminho 1852" d="M258.047,397.047l-1.782-1.782a.37.37,0,0,0-.518,0l-1.782,1.782a.367.367,0,1,0,.518.518l1.782-1.782h-.518l1.782,1.782a.367.367,0,1,0,.518-.518Z" transform="translate(-250.639 -386.605)" fill="#3e70a2"/>
    <path id="Caminho_1853" data-name="Caminho 1853" d="M126.942,143.962l-.26-.151-.7-.408-1.045-.6-1.255-.734-1.39-.8-1.409-.813-1.308-.756-1.111-.627-.8-.458-.376-.22h-.016a.367.367,0,0,0-.37.627l.26.151.7.408,1.045.6,1.255.734,1.39.8,1.409.816,1.308.756,1.111.627.8.458.376.22h.016a.366.366,0,1,0,.37-.631Z" transform="translate(-116.545 -135.5)" fill="#3e70a2"/>
    <path id="Caminho_1854" data-name="Caminho 1854" d="M112.456,89.236l.22.822.351,1.311.082.314.257-.452-.822.22-1.311.351-.314.082a.367.367,0,1,0,.194.706l.822-.22,1.311-.351.314-.082a.373.373,0,0,0,.257-.452l-.22-.822-.351-1.311-.082-.314a.367.367,0,1,0-.706.194Z" transform="translate(-110.635 -87.061)" fill="#3e70a2"/>
    <path id="Caminho_1855" data-name="Caminho 1855" d="M450.186,300.159l-.822.22-1.311.351-.314.082a.374.374,0,0,0-.257.452l.22.822.351,1.311.082.314a.367.367,0,1,0,.706-.195l-.22-.822-.351-1.311-.082-.314-.257.452.822-.22,1.311-.351.314-.082a.367.367,0,0,0-.195-.706Z" transform="translate(-439.939 -293.714)" fill="#3e70a2"/>
    <path id="Caminho_1856" data-name="Caminho 1856" d="M117.124,144.589l.26-.151.7-.408,1.045-.6,1.255-.734,1.39-.8,1.409-.816,1.308-.756,1.111-.627.8-.458.376-.22h.016a.367.367,0,1,0-.37-.627l-.26.151-.706.408-1.045.6-1.255.734-1.39.8-1.409.816-1.308.756-1.111.627-.8.458-.376.22h-.016a.367.367,0,0,0,.367.627Z" transform="translate(-116.414 -135.49)" fill="#3e70a2"/>
    <path id="Caminho_1857" data-name="Caminho 1857" d="M448.12,89.189l-.22.822-.351,1.311-.082.314a.37.37,0,0,0,.257.452l.822.22,1.311.351.314.082a.367.367,0,1,0,.195-.706l-.822-.22-1.311-.351-.314-.082.257.452.22-.822.352-1.311.082-.314a.368.368,0,0,0-.709-.2Z" transform="translate(-439.909 -87.202)" fill="#3e70a2"/>
    <path id="Caminho_1858" data-name="Caminho 1858" d="M111.057,300.861l.822.22,1.311.351.314.082-.257-.452-.22.822-.351,1.311-.082.314a.367.367,0,0,0,.706.195l.22-.822.351-1.311.082-.314a.37.37,0,0,0-.257-.452l-.822-.22-1.311-.351-.314-.082a.367.367,0,0,0-.195.706Z" transform="translate(-110.761 -293.707)" fill="#3e70a2"/>
  </g>
</svg>
