<svg xmlns="http://www.w3.org/2000/svg" width="20.215" height="18.473" viewBox="0 0 20.215 18.473">
  <g id="noun-leaf-4513958" transform="translate(-119.472 -70)">
    <path id="Caminho_1799" data-name="Caminho 1799" d="M124.443,77.219a11.846,11.846,0,0,0-.384-1.306,10.918,10.918,0,0,1,.538,1.075,16.254,16.254,0,0,1,2.381-2.15A9.392,9.392,0,0,0,121.14,70s-4.224,6.3.768,11.366a18.336,18.336,0,0,1,1.229-2.458C123.521,78.371,123.982,77.833,124.443,77.219Z" transform="translate(0)" fill="#3f9d4c"/>
    <path id="Caminho_1800" data-name="Caminho 1800" d="M200.537,130.587c-11.289-2.457-19.123,8.6-17.049,13.363a40.344,40.344,0,0,1,8.755-7.449c-4.07,3.993-5.99,7.065-6.758,9.292a7.239,7.239,0,0,0,3.686.077C201.843,143.566,200.537,130.587,200.537,130.587Z" transform="translate(-60.889 -57.592)" fill="#3f9d4c"/>
  </g>
</svg>
