<svg id="Componente_7_1" data-name="Componente 7 – 1" xmlns="http://www.w3.org/2000/svg" width="36.474" height="21" viewBox="0 0 36.474 21">
  <rect id="Retângulo_80" data-name="Retângulo 80" width="36.474" height="21" rx="1" fill="#87b862"/>
  <g id="pagseguro-155" transform="translate(14.883 8.47)">
    <path id="Caminho_160" data-name="Caminho 160" d="M297.665,68.574a1.833,1.833,0,0,0-.789-.189c-.348,0-.869.16-.869.555,0,.554,1.509.469,1.509,1.52,0,.835-.789,1.292-1.755,1.292a3.418,3.418,0,0,1-1.115-.166l.2-.619a1.94,1.94,0,0,0,.938.214c.406-.006.857-.189.857-.612,0-.6-1.5-.537-1.5-1.5,0-.908.908-1.245,1.779-1.245a2.635,2.635,0,0,1,.938.171Zm.9,1.9a.851.851,0,0,0-.039.269c0,.387.3.542.646.542a1.7,1.7,0,0,0,.88-.263l-.028.509a2.471,2.471,0,0,1-1.092.223c-.623,0-1.212-.269-1.212-.972a1.953,1.953,0,0,1,1.881-2.017c.464,0,.989.166.989.691,0,.9-1.306,1.019-2.023,1.019Zm.966-1.251c-.433,0-.747.451-.891.823.514,0,1.234-.091,1.234-.542.007-.212-.148-.282-.34-.282Zm3.7,2.08c-.257,1.155-.68,1.68-1.95,1.68a3.2,3.2,0,0,1-.994-.157l.155-.567a1.718,1.718,0,0,0,.823.2,1.033,1.033,0,0,0,1.12-.915l.092-.377a1.156,1.156,0,0,1-1.035.525.794.794,0,0,1-.874-.851,2.182,2.182,0,0,1,2.274-2.075,3.614,3.614,0,0,1,.929.122Zm-.56-2.011a1.423,1.423,0,0,0-1.269,1.474c0,.257.091.446.371.446.537,0,.834-.685.955-1.194l.166-.689a.757.757,0,0,0-.223-.037Zm3.727,1.749a6.4,6.4,0,0,0-.109.645h-.737l.079-.514a1.212,1.212,0,0,1-1.023.577c-.472,0-.787-.232-.787-.708a1.6,1.6,0,0,1,.028-.326l.405-1.9h.789l-.358,1.73a1.436,1.436,0,0,0-.046.3.338.338,0,0,0,.378.378c.429,0,.629-.393.708-.761l.354-1.646h.787Zm2.578-1.538a.658.658,0,0,0-.232-.039c-.521,0-.812.5-.909.961l-.268,1.262h-.8l.472-2.229a6.3,6.3,0,0,0,.115-.634h.743l-.108.59a1.11,1.11,0,0,1,.938-.658.771.771,0,0,1,.228.029Zm1.154,2.247a1.089,1.089,0,0,1-1.219-1.041,1.815,1.815,0,0,1,1.852-1.949,1.075,1.075,0,0,1,1.212,1.034,1.831,1.831,0,0,1-1.846,1.955Zm.5-2.458c-.59,0-.886.834-.886,1.331,0,.343.131.6.5.6.577,0,.909-.84.909-1.332,0-.344-.155-.6-.526-.6Z" transform="translate(-294.646 -67.82)"/>
  </g>
  <g id="pagseguro-155-2" data-name="pagseguro-155" transform="translate(5.366 8.469)">
    <path id="Caminho_160-2" data-name="Caminho 160" d="M288.4,70.269h-.731l-.3,1.411h-.835l.812-3.812h1.573a1.008,1.008,0,0,1,1.077.965,1.438,1.438,0,0,1-1.6,1.434Zm.1-1.841h-.445l-.275,1.281h.286c.56,0,1.078-.127,1.078-.8,0-.3-.317-.487-.643-.487Zm4.156,2.233a5.376,5.376,0,0,0-.137,1.017h-.806c.012-.142.064-.412.109-.674a1.252,1.252,0,0,1-1.1.737.825.825,0,0,1-.869-.914,2.166,2.166,0,0,1,2.244-2.081,3.4,3.4,0,0,1,.96.132Zm-.715-1.383a1.427,1.427,0,0,0-1.259,1.464c0,.257.091.469.387.469.4,0,.783-.551.944-1.238l.155-.663a.646.646,0,0,0-.227-.031Zm3.776,2.017c-.257,1.155-.68,1.68-1.949,1.68a3.2,3.2,0,0,1-.995-.157l.151-.569a1.719,1.719,0,0,0,.823.2,1.034,1.034,0,0,0,1.12-.915l.091-.377a1.155,1.155,0,0,1-1.034.525.8.8,0,0,1-.875-.851,2.183,2.183,0,0,1,2.276-2.075,3.612,3.612,0,0,1,.929.125Zm-.56-2.011a1.424,1.424,0,0,0-1.269,1.474c0,.257.091.446.372.446.538,0,.835-.685.955-1.194l.166-.689A.765.765,0,0,0,295.162,69.285Z" transform="translate(-286.54 -67.869)" fill="#fff"/>
  </g>
</svg>
