<svg id="Componente_86_1" data-name="Componente 86 – 1" xmlns="http://www.w3.org/2000/svg" width="58.894" height="58.894" viewBox="0 0 58.894 58.894">
  <path id="Caminho_570" data-name="Caminho 570" d="M304.158,54.8A83.149,83.149,0,0,0,292.2,39.932c-4.792-4.777-11.5-5.846-16.376-2.979l-5.636-5.637a1.9,1.9,0,0,0-2.687,0L256.756,42.063a1.9,1.9,0,0,0,0,2.686l5.637,5.637c-2.866,4.881-1.794,11.588,2.99,16.386a93.736,93.736,0,0,0,16.785,13.639,59.106,59.106,0,0,1,9.61,7.42A3.753,3.753,0,0,0,294.4,88.9a3.567,3.567,0,0,0,2.538-1.041L313.3,71.5a3.618,3.618,0,0,0,1.044-2.578,3.688,3.688,0,0,0-1.087-2.6,65.575,65.575,0,0,1-9.1-11.519M268.847,35.346l4.029,4.03-8.059,8.06-4.032-4.03Zm-2.037,15.47,9.447-9.447a7.648,7.648,0,0,1,5.5-2.2,10.555,10.555,0,0,1,5.67,1.775L266.4,61.969c-2.441-3.8-2.409-8.337.406-11.153m2.065,14.055,1.331-1.331a95.313,95.313,0,0,0,15.1,12.119,74.385,74.385,0,0,1,7.7,5.595,1.9,1.9,0,0,0,2.573-.1L306.536,70.2a1.9,1.9,0,0,0,.072-2.609,77.435,77.435,0,0,1-7.2-9.644,1.9,1.9,0,0,0-3.169,2.1,85.873,85.873,0,0,0,6.358,8.723l-8.477,8.479c-2.353-1.875-4.562-3.335-6.71-4.754a91.761,91.761,0,0,1-14.514-11.636l17.416-17.416A80.306,80.306,0,0,1,300.989,56.9a68.791,68.791,0,0,0,9.5,12.03L294.37,85.051a63.16,63.16,0,0,0-10.107-7.81,90.33,90.33,0,0,1-15.388-12.37" transform="translate(-255.448 -30.004)" fill="#fff"/>
  <path id="Caminho_571" data-name="Caminho 571" d="M272.542,77.7h-5.7V72a1.9,1.9,0,0,0-1.9-1.9h-7.6a1.9,1.9,0,0,0,0,3.8h5.7v5.7a1.9,1.9,0,0,0,1.9,1.9h5.7v5.7a1.9,1.9,0,0,0,3.8,0V79.6a1.9,1.9,0,0,0-1.9-1.9" transform="translate(-255.444 -30.208)" fill="#fff"/>
  <path id="Caminho_572" data-name="Caminho 572" d="M297.448,41.4h5.7v5.7a1.9,1.9,0,0,0,1.9,1.9h7.6a1.9,1.9,0,0,0,0-3.8h-5.7V39.5a1.9,1.9,0,0,0-1.9-1.9h-5.7V31.9a1.9,1.9,0,0,0-3.8,0v7.6a1.9,1.9,0,0,0,1.9,1.9" transform="translate(-255.652 -30)" fill="#fff"/>
</svg>
