<svg xmlns="http://www.w3.org/2000/svg" width="14.207" height="24" viewBox="0 0 14.207 24">
  <g id="noun-hammer-100088" transform="translate(-209.28 -48.145)">
    <path id="Caminho_1795" data-name="Caminho 1795" d="M304.206,173.806V166.32h-3.017v7.486a4.377,4.377,0,0,1-.449,1.756,4.85,4.85,0,0,0-.557,1.948v5.919a.971.971,0,0,0,1.005.926h3.017a.971.971,0,0,0,1.007-.926V177.51a4.846,4.846,0,0,0-.558-1.948A4.383,4.383,0,0,1,304.206,173.806Z" transform="translate(-86.315 -112.21)" fill="#644715"/>
    <path id="Caminho_1796" data-name="Caminho 1796" d="M321.46,48.145h-1.005a1.216,1.216,0,0,0-1.036,1.242h3.086a1.221,1.221,0,0,0-1.045-1.242Z" transform="translate(-104.579)" fill="#644715"/>
    <path id="Caminho_1797" data-name="Caminho 1797" d="M222.48,63.436h-2.011a.973.973,0,0,0-1.006.925H214.37c-6.032,0-5.027,5.553-5.027,5.553a5.428,5.428,0,0,1,4.052-1.835v0h.037c.294-.01.6-.012.938-.012h.065v.012h3.017v-.012h2.011a.973.973,0,0,0,1.006.926h2.011a.971.971,0,0,0,1.007-.926v-3.7a.971.971,0,0,0-1.007-.925Z" transform="translate(0 -14.519)" fill="#644715"/>
  </g>
</svg>
