<svg xmlns="http://www.w3.org/2000/svg" width="51.888" height="54.316" viewBox="0 0 51.888 54.316">
  <path id="Caminho_574" data-name="Caminho 574" d="M667.077,44.849a8.006,8.006,0,0,1,2.988-4.928,9.643,9.643,0,0,1,4.508-2.018c.6-.1.626-.083.739-.719a6.757,6.757,0,0,1,3.14-4.46c.851-.581,1.706-1.162,2.518-1.8a3.116,3.116,0,0,0,1.172-2.549c.006-.441,0-.883,0-1.368a6.719,6.719,0,0,1,1.917.115,16.959,16.959,0,0,1,5.728,3.073,17.212,17.212,0,0,1,5.429,7.286,26.908,26.908,0,0,1,.8,2.718.434.434,0,0,0,.352.377,19.861,19.861,0,0,1,8.592,4.7,12.7,12.7,0,0,1,4.136,7.129A10.747,10.747,0,0,1,706.63,61.5a11.576,11.576,0,0,1-2.389,2.106.8.8,0,0,0-.3.447c-.642,2.872-1.268,5.746-1.9,8.62-.428,1.951-.842,3.905-1.292,5.852A3.529,3.529,0,0,1,697.21,81.3q-4.939,0-9.878,0-5.262,0-10.523.01c-2.507,0-5.015.03-7.521-.014a3.407,3.407,0,0,1-3.132-2.179,9.484,9.484,0,0,1-.547-1.947c-.495-2.223-.969-4.45-1.451-6.676-.27-1.249-.544-2.5-.807-3.747a.686.686,0,0,0-.332-.473,11.934,11.934,0,0,1-5.564-9.209,11.378,11.378,0,0,1,.869-5.963,10.374,10.374,0,0,1,7.013-5.886c.557-.154,1.133-.237,1.739-.361m36.339,16.346a6.355,6.355,0,0,0,2.129-1.9,9.038,9.038,0,0,0,.6-8.361,14.188,14.188,0,0,0-4.81-5.54,18.139,18.139,0,0,0-7.049-2.953c-.2-.041-.255-.122-.273-.311a13.453,13.453,0,0,0-.694-3.207,14.617,14.617,0,0,0-4.243-6.143,16.26,16.26,0,0,0-4.85-2.969c-.029.083-.059.15-.078.221a5.1,5.1,0,0,1-1.741,2.8c-.812.635-1.678,1.2-2.505,1.815a13.3,13.3,0,0,0-1.372,1.119,3.936,3.936,0,0,0-1.1,2.877c-.009.438,0,.876,0,1.338h-.938a7.736,7.736,0,0,0-5.843,2.553,5.247,5.247,0,0,0,.261,7.517,11.876,11.876,0,0,0,4.444,2.528,31.088,31.088,0,0,0,8.509,1.5c1.317.071,2.64.084,3.96.065a1.279,1.279,0,0,1,1.414,1.139,1.227,1.227,0,0,1-1.282,1.245,44.7,44.7,0,0,1-10.263-.843,19.657,19.657,0,0,1-6.73-2.565,8.192,8.192,0,0,1-3.4-4.33c-.176-.512-.3-1.042-.45-1.569-.234.038-.457.069-.677.111s-.444.086-.66.149a7.867,7.867,0,0,0-5.351,4.65,10.717,10.717,0,0,0,.56,8.733,10.746,10.746,0,0,0,5.187,4.469,22.728,22.728,0,0,0,8.528,1.775,34.917,34.917,0,0,0,7.742-.489,22.515,22.515,0,0,0,7.072-2.493,39.333,39.333,0,0,0,4.363-3.044,11.753,11.753,0,0,1,4.484-2.251,5.049,5.049,0,0,1,3.758.374,1.954,1.954,0,0,1,1.245,1.738,1.217,1.217,0,0,0,.055.253m-37.429,6.618c.024.135.036.218.053.3.3,1.364.608,2.727.907,4.092.4,1.846.8,3.694,1.206,5.54a1.462,1.462,0,0,0,1.523,1.207h27.356a1.258,1.258,0,0,0,1.452-1.183c.148-.7.307-1.407.462-2.11.56-2.548,1.126-5.095,1.68-7.645.251-1.154.51-2.308.71-3.471a11.488,11.488,0,0,0,.167-2.056c-.011-1.04-.48-1.464-1.514-1.444a7.174,7.174,0,0,0-3.6,1.168c-.356.216-.683.478-1.083.76.976.088,1.377.559,1.311,1.448-.02.267-.061.534-.1.8q-.372,2.716-.745,5.432c-.187,1.375-.36,2.751-.558,4.124a1.16,1.16,0,0,1-1.4.964,1.19,1.19,0,0,1-.932-1.37c.11-.7.2-1.4.3-2.108q.376-2.731.747-5.465c.139-1.02.278-2.04.419-3.074a.982.982,0,0,0-.1.051q-1.743,1.161-3.482,2.328a.38.38,0,0,0-.153.248c-.074.922-.136,1.846-.2,2.769-.13,1.826-.254,3.651-.393,5.476a1.182,1.182,0,0,1-1.25,1.057,1.17,1.17,0,0,1-1.09-1.216c.094-1.58.2-3.158.311-4.737.05-.746.1-1.493.159-2.262-.083.019-.124.024-.163.036-1.008.338-2.012.684-3.023,1.008-.189.061-.192.164-.186.31q.062,1.566.121,3.131c.031.839.071,1.678.084,2.517a1.184,1.184,0,0,1-1.136,1.214,1.163,1.163,0,0,1-1.2-1.1c-.067-1.074-.1-2.15-.151-3.226-.034-.77-.064-1.542-.1-2.312l-3.085.362c.029.246.059.479.086.712.17,1.441.35,2.882.5,4.325a1.183,1.183,0,0,1-2.353.224c-.114-.951-.219-1.9-.33-2.854-.089-.768-.185-1.535-.273-2.263l-3.257-.1c.012.064.02.126.035.186.361,1.525.727,3.05,1.084,4.576a1.171,1.171,0,0,1-.9,1.438,1.191,1.191,0,0,1-1.455-1.051c-.4-1.717-.792-3.433-1.176-5.151a.362.362,0,0,0-.347-.333,22.5,22.5,0,0,1-4.943-1.268" transform="translate(-657.382 -27)" fill="#fff"/>
</svg>
