<svg id="Componente_8_1" data-name="Componente 8 – 1" xmlns="http://www.w3.org/2000/svg" width="36.474" height="21" viewBox="0 0 36.474 21">
  <rect id="Retângulo_75" data-name="Retângulo 75" width="36.474" height="21" rx="1" fill="#2b327c"/>
  <g id="Mastercard-logo" transform="translate(9.947 5.526)">
    <g id="Grupo_11" data-name="Grupo 11">
      <rect id="rect19" width="4.611" height="8.284" transform="translate(6.207 1.127)" fill="#ff5a00"/>
      <path id="XMLID_330_" d="M6.514,5.269A5.284,5.284,0,0,1,8.52,1.127a5.268,5.268,0,1,0-3.25,9.412A5.241,5.241,0,0,0,8.52,9.412,5.259,5.259,0,0,1,6.514,5.269Z" fill="#eb001b"/>
      <path id="path22" d="M508.12,5.269a5.264,5.264,0,0,1-8.52,4.142,5.28,5.28,0,0,0,0-8.284,5.264,5.264,0,0,1,8.52,4.142Z" transform="translate(-491.08)" fill="#f79e1b"/>
    </g>
  </g>
</svg>
