<svg xmlns="http://www.w3.org/2000/svg" width="12.904" height="13.184" viewBox="0 0 12.904 13.184">
  <g id="noun-make-up-3929287" transform="translate(-98.001 -28)">
    <path id="Caminho_1843" data-name="Caminho 1843" d="M262.069,28a4.509,4.509,0,0,0-4.363,4.644,4.761,4.761,0,0,0,1.481,3.484h1.9a3.623,3.623,0,0,1-2.446-3.484,3.43,3.43,0,1,1,6.847,0,3.619,3.619,0,0,1-2.518,3.506h0a.525.525,0,0,1,.382.5v.431a4.616,4.616,0,0,0,3.076-4.437A4.511,4.511,0,0,0,262.069,28Z" transform="translate(-155.527 0)" fill="#59a6c8"/>
    <path id="Caminho_1844" data-name="Caminho 1844" d="M308.418,78.346a3.21,3.21,0,1,0-3.2,3.413A3.319,3.319,0,0,0,308.418,78.346Z" transform="translate(-198.672 -45.702)" fill="#59a6c8"/>
    <path id="Caminho_1845" data-name="Caminho 1845" d="M130.593,58.311a.733.733,0,0,0-.39-.644l-.769-.4a.62.62,0,0,0-.908.551v3.955h2.067Z" transform="translate(-29.726 -28.43)" fill="#59a6c8"/>
    <path id="Caminho_1846" data-name="Caminho 1846" d="M117.054,240.63H114.24v.99h2.814Z" transform="translate(-15.814 -207.068)" fill="#59a6c8"/>
    <path id="Caminho_1847" data-name="Caminho 1847" d="M101.1,290.15a.756.756,0,0,1,.343-.413.524.524,0,0,1-.192-.4v-.564a.525.525,0,0,1,.416-.514V286.89H98v5.486a.926.926,0,0,0,.926.926h1.812a.92.92,0,0,0,.541-.176.892.892,0,0,1-.221-.362,4.129,4.129,0,0,1,.038-2.615Z" transform="translate(0 -252.118)" fill="#59a6c8"/>
    <path id="Caminho_1848" data-name="Caminho 1848" d="M222.109,400.34h-5.495a.53.53,0,0,0-.505.368,3.918,3.918,0,0,0-.037,2.477.69.69,0,0,0,.656.475h5.256a.684.684,0,0,0,.667-.514,4.626,4.626,0,0,0-.031-2.411.535.535,0,0,0-.511-.394Z" transform="translate(-114.804 -362.6)" fill="#59a6c8"/>
    <path id="Caminho_1849" data-name="Caminho 1849" d="M230.5,347.5v.564a.3.3,0,0,0,.3.306h5.535a.3.3,0,0,0,.3-.3V347.5a.3.3,0,0,0-.3-.3H230.8A.3.3,0,0,0,230.5,347.5Z" transform="translate(-129.033 -310.845)" fill="#59a6c8"/>
  </g>
</svg>
