<svg xmlns="http://www.w3.org/2000/svg" width="71.784" height="47.894" viewBox="0 0 71.784 47.894">
  <path id="Caminho_578" data-name="Caminho 578" d="M515.22,72.939c-.319,1.162-.555,2.356-.979,3.478a6.838,6.838,0,0,1-2.666,3.508,6.4,6.4,0,0,1-3.528.968q-28.7,0-57.4,0c-2.949,0-5.017-1.505-6.223-4.367a13.864,13.864,0,0,1-.972-6.03c.041-1.02.64-1.552,1.753-1.577.907-.022,1.817,0,2.636,0,2.069-16.415,11.129-26.265,27.281-29.748-.68-2.379-.1-4.436,2.3-5.662a4.083,4.083,0,0,1,4.663.522,4.431,4.431,0,0,1,1.378,5.271c.694.135,1.367.261,2.039.4a31.372,31.372,0,0,1,24.434,24.017,42.008,42.008,0,0,1,.641,4.569c.056.53.235.671.73.643.652-.037,1.308.005,1.962-.012a1.765,1.765,0,0,1,1.949,1.229Zm-7.51-4.059c-1.027-10.65-5.928-18.832-15.424-23.643-10.571-5.354-20.95-4.3-30.4,2.862C455.107,53.241,451.634,60.35,451,68.88Zm4.478,3.093h-65.91a26.68,26.68,0,0,0,.9,3.3c.74,1.8,1.559,2.632,3.885,2.628q28.274-.043,56.55-.017c.28,0,.561-.006.84-.015a2.8,2.8,0,0,0,2.31-1.257,7.81,7.81,0,0,0,1.424-4.635M479.363,36.052a1.472,1.472,0,0,0-1.505,1.42A1.512,1.512,0,0,0,479.335,39a1.529,1.529,0,0,0,1.478-1.469,1.483,1.483,0,0,0-1.45-1.482" transform="translate(-443.435 -33)" fill="#fff"/>
</svg>
