<svg xmlns="http://www.w3.org/2000/svg" width="44.982" height="45.024" viewBox="0 0 44.982 45.024">
  <g id="Grupo_7" data-name="Grupo 7" transform="translate(-189.018 -973.813)">
    <path id="Caminho_23" data-name="Caminho 23" d="M186.7,1248.2c-18.48,2.611-20.488,19.283-20.488,19.283v25.741h25.61s19.082-1.135,19.283-19.414,0-25.61,0-25.61Z" transform="translate(22.805 -274.385)" fill="#00557c"/>
    <path id="path2" d="M214.8,401.444l0,2.7h-.446v-.451h-2.039a1.777,1.777,0,0,0-1.6,1.9l.037,1.175v.284h2.134a.437.437,0,0,0,.361-.121,1.166,1.166,0,0,0,.16-.449h.334v2.832H213.4a1.064,1.064,0,0,0-.154-.458.441.441,0,0,0-.367-.13h-2.311v4.661a.916.916,0,0,0,.087.475.649.649,0,0,0,.341.216v.414h-2.8v-.432a.684.684,0,0,0,.341-.207.866.866,0,0,0,.087-.466v-5.3a.6.6,0,0,0-.114-.414.762.762,0,0,0-.341-.19v-.432h.454v-.19a5.683,5.683,0,0,1,.935-3.643,3.426,3.426,0,0,1,2.8-1.1h1.994l0-.675Z" transform="translate(-14.627 588.145)" fill="#fff" fill-rule="evenodd"/>
    <path id="path4" d="M239.763,401.431v11.883a.86.86,0,0,1-.1.5.786.786,0,0,1-.4.225v.451h3.3v-.451a.832.832,0,0,1-.4-.216.813.813,0,0,1-.1-.487V402.6a.86.86,0,0,1,.1-.5.786.786,0,0,1,.4-.225v-.451Z" transform="translate(-38.72 588.155)" fill="#fff" fill-rule="evenodd"/>
    <path id="path6" d="M263.2,421.982a2.841,2.841,0,0,0-.747-2.062,2.633,2.633,0,0,0-1.984-.773,3.008,3.008,0,0,0-1.117.2,2.39,2.39,0,0,0-.859.576,2.632,2.632,0,0,0-.558.9,3.526,3.526,0,0,0,0,2.328,2.559,2.559,0,0,0,.558.885,2.445,2.445,0,0,0,.859.567,3.008,3.008,0,0,0,1.117.2,2.649,2.649,0,0,0,1.984-.764A2.81,2.81,0,0,0,263.2,421.982Zm2.388,0a4.71,4.71,0,0,1-.4,1.993,4.4,4.4,0,0,1-1.1,1.486,4.9,4.9,0,0,1-1.624.936,5.963,5.963,0,0,1-1.993.326,6.038,6.038,0,0,1-2-.326,4.888,4.888,0,0,1-1.632-.936,4.3,4.3,0,0,1-1.091-1.486,5.2,5.2,0,0,1,0-3.977,4.364,4.364,0,0,1,1.091-1.5,4.809,4.809,0,0,1,1.632-.945,6.038,6.038,0,0,1,2-.326,5.963,5.963,0,0,1,1.993.326,4.825,4.825,0,0,1,1.624.945,4.462,4.462,0,0,1,1.1,1.5A4.725,4.725,0,0,1,265.59,421.982Z" transform="translate(-51.192 575.917)" fill="#fff" fill-rule="evenodd"/>
    <path id="path8" d="M305.04,425.188a.766.766,0,0,0,.1.471,1.111,1.111,0,0,0,.4.24v.444h-3.024V425.9a.71.71,0,0,0,.385-.213.924.924,0,0,0,.086-.48v-7.072a.965.965,0,0,0-.093-.5.609.609,0,0,0-.378-.213v-.444h2.525V418.3l.43-.435a2.771,2.771,0,0,1,1.8-.689l0-.443h.675v2.926h-.674c0-.117,0-.263,0-.379-1.543-.741-2.064,1.1-2.17,1.93a6.566,6.566,0,0,0-.057.835v3.145Z" transform="translate(-87.741 576.299)" fill="#fff" fill-rule="evenodd"/>
    <path id="path10" d="M335.484,421.154v-.675a2.425,2.425,0,0,0-.231-1.066,2.693,2.693,0,0,0-.6-.817,2.654,2.654,0,0,0-.835-.524,2.606,2.606,0,0,0-.968-.186,2.92,2.92,0,0,0-1.2.2,2.712,2.712,0,0,0-.924.613,2.768,2.768,0,0,0-.6.933,3.2,3.2,0,0,0-.213,1.181,3.32,3.32,0,0,0,.2,1.181,2.823,2.823,0,0,0,.577.941,2.577,2.577,0,0,0,.906.622,2.862,2.862,0,0,0,1.19.2,2.675,2.675,0,0,0,.977-.187,2.851,2.851,0,0,0,.862-.524,2.558,2.558,0,0,0,.613-.817A2.467,2.467,0,0,0,335.484,421.154Zm3.091,4.37h-3.091v-.817a3.561,3.561,0,0,1-1.27.737,5.149,5.149,0,0,1-1.768.293,5.552,5.552,0,0,1-1.954-.338,4.587,4.587,0,0,1-1.572-.968,4.463,4.463,0,0,1-1.048-1.545,5.327,5.327,0,0,1-.382-2.069,4.871,4.871,0,0,1,.417-2.061,4.506,4.506,0,0,1,1.128-1.528,5.019,5.019,0,0,1,1.625-.95,5.656,5.656,0,0,1,1.927-.329,4.768,4.768,0,0,1,1.705.284,4.719,4.719,0,0,1,1.261.693v-.764h3.02v.444a.936.936,0,0,0-.471.222.766.766,0,0,0-.115.489v7.07a.725.725,0,0,0,.115.48,1,1,0,0,0,.471.213Z" transform="translate(-107.095 576.905)" fill="#fff" fill-rule="evenodd"/>
  </g>
</svg>
