<svg id="Componente_1_1" data-name="Componente 1 – 1" xmlns="http://www.w3.org/2000/svg" width="210.09" height="27.596" viewBox="0 0 210.09 27.596">
  <g id="Pernod_Ricard_logo_2019" transform="translate(34.702 -47.936)">
    <path id="Caminho_1" data-name="Caminho 1" d="M424.17,282.2c0,3.291,1.932,4.978,4.283,4.978s4.275-1.688,4.275-4.978c0-3.205-1.925-4.893-4.275-4.893S424.17,278.994,424.17,282.2Zm10.327,4.725h2.015v1.688h-3.783v-1.856a5.272,5.272,0,0,1-4.443,2.109c-3.612,0-5.962-2.869-5.962-6.666s2.35-6.665,5.962-6.665a5.146,5.146,0,0,1,4.365,2.109v-5.23h-2.015v-1.687H434.5Z" transform="translate(-261.124 -217.788)" fill="#123f75"/>
    <path id="Caminho_2" data-name="Caminho 2" d="M180.821,310.5h2.016v1.688h-5.961V310.5h2.015v-9.449h-2.015v-1.6h3.777v1.772a4.145,4.145,0,0,1,5.122-1.772V301.3c-3.022-.843-4.954.76-4.954,3.712Z" transform="translate(-25.504 -241.36)" fill="#123f75"/>
    <g id="Grupo_4" data-name="Grupo 4" transform="translate(0 52.936)">
      <path id="Caminho_14" data-name="Caminho 14" d="M4.2,273.022v7.593H7.3c3.359,0,4.87-1.35,4.87-3.8s-1.427-3.8-4.87-3.8Zm0,14.258H6.381v1.772H0V287.28H2.182V272.938H0V271.25H7.3c4.03,0,6.8,1.772,6.8,5.568s-2.77,5.567-6.8,5.567H4.2Z" transform="translate(0 -271.158)" fill="#123f75"/>
      <path id="Caminho_15" data-name="Caminho 15" d="M100.965,304.783a4.2,4.2,0,1,0-8.4,0Zm1.512,3.459c-.588,2.193-2.6,3.881-5.709,3.881-3.779,0-6.129-2.362-6.129-6.666,0-4.049,2.434-6.665,6.129-6.665,4.029,0,6.549,3.122,6.045,7.678H92.57a4.119,4.119,0,0,0,4.2,3.965,3.769,3.769,0,0,0,3.693-2.193Z" transform="translate(-75.108 -293.981)" fill="#123f75"/>
      <path id="b" d="M180.821,310.5h2.016v1.688h-5.961V310.5h2.015v-9.449h-2.015v-1.6h3.777v1.772a4.145,4.145,0,0,1,5.122-1.772V301.3c-3.022-.843-4.954.76-4.954,3.712Z" transform="translate(-146.567 -294.295)" fill="#123f75"/>
      <path id="Caminho_16" data-name="Caminho 16" d="M251.663,310.589h2.015v1.688H247.8v-1.687h2.016v-5.4c0-2.952-1.764-4.218-3.779-4.218-1.931,0-3.609,1.35-3.609,4.387v5.231h2.015v1.688h-5.877v-1.687h2.015v-9.449h-2.015v-1.6h3.779v1.772a4.886,4.886,0,0,1,4.113-2.025c2.771,0,5.206,1.6,5.206,5.906Z" transform="translate(-197.686 -294.387)" fill="#123f75"/>
      <path id="Caminho_17" data-name="Caminho 17" d="M343.262,310.438c2.518,0,4.282-1.772,4.282-4.978s-1.764-4.893-4.282-4.893c-2.434,0-4.281,1.688-4.281,4.893s1.847,4.978,4.281,4.978Zm0-11.643c3.946,0,6.213,2.869,6.213,6.665,0,3.881-2.267,6.666-6.213,6.666-3.861,0-6.129-2.785-6.129-6.666C337.133,301.664,339.4,298.795,343.262,298.795Z" transform="translate(-279.363 -293.983)" fill="#123f75"/>
      <path id="a" d="M424.17,282.2c0,3.291,1.932,4.978,4.283,4.978s4.275-1.688,4.275-4.978c0-3.205-1.925-4.893-4.275-4.893S424.17,278.994,424.17,282.2Zm10.327,4.725h2.015v1.688h-3.783v-1.856a5.272,5.272,0,0,1-4.443,2.109c-3.612,0-5.962-2.869-5.962-6.666s2.35-6.665,5.962-6.665a5.146,5.146,0,0,1,4.365,2.109v-5.23h-2.015v-1.687H434.5Z" transform="translate(-349.955 -270.724)" fill="#123f75"/>
      <path id="Caminho_18" data-name="Caminho 18" d="M558.8,272.614v6.58h4.108c2.686,0,3.783-1.266,3.783-3.291,0-1.939-1.1-3.29-3.783-3.29Zm-4.2-1.856h8.3c3.358,0,5.8,1.856,5.8,5.146,0,2.869-1.768,4.557-4.365,5.063l2.854,5.906h2.35v1.772h-3.693l-3.693-7.593H558.8v5.821h1.925v1.772h-6.122v-1.772h2.183V272.53h-2.183Z" transform="translate(-459.57 -270.75)" fill="#123f75"/>
      <path id="Caminho_19" data-name="Caminho 19" d="M656.869,273.159h2.1v-2.446h-2.1Zm2.1,13.752h2.015V288.6h-5.966v-1.688h2.015v-9.449h-2.015v-1.6h3.951Z" transform="translate(-542.779 -270.713)" fill="#123f75"/>
      <path id="Caminho_20" data-name="Caminho 20" d="M712.381,307.223a5.849,5.849,0,0,1-6.133,4.894c-3.861,0-6.133-2.785-6.133-6.666,0-3.8,2.272-6.665,6.133-6.665a5.211,5.211,0,0,1,4.287,2.109v-1.772h1.757v4.641h-2.015a4.088,4.088,0,0,0-4.029-3.206c-2.44,0-4.287,1.688-4.287,4.893s1.847,4.978,4.287,4.978a4.258,4.258,0,0,0,4.2-3.206Z" transform="translate(-580.145 -293.976)" fill="#123f75"/>
      <path id="Caminho_21" data-name="Caminho 21" d="M786.836,305.451c0,3.291,1.847,4.978,4.2,4.978s4.276-1.688,4.276-4.978c0-3.205-1.925-4.893-4.276-4.893S786.836,302.246,786.836,305.451Zm8.394-6.327h3.861v1.6h-2.015v9.449h2.015v1.688H795.23v-1.856a5.045,5.045,0,0,1-4.365,2.109c-3.615,0-5.966-2.869-5.966-6.666s2.35-6.665,5.965-6.665a5.045,5.045,0,0,1,4.365,2.109Z" transform="translate(-650.402 -293.976)" fill="#123f75"/>
    </g>
  </g>
  <g id="Grupo_6" data-name="Grupo 6" transform="translate(-393.298 -1318)">
    <g id="Grupo_5" data-name="Grupo 5" transform="translate(422.263 1342.004) rotate(180)">
      <g id="Grupo_1" data-name="Grupo 1" transform="translate(0.178 8.586)">
        <path id="Caminho_3" data-name="Caminho 3" d="M4.845,2.377A12.428,12.428,0,0,0,8.711,0a7.264,7.264,0,0,0,.461,2.087A9.4,9.4,0,0,1,6.229,5.043,14.378,14.378,0,0,1,1.154,7.129,12.719,12.719,0,0,1,0,3.3a11.981,11.981,0,0,0,4.845-.928Z" fill="#76a0cd"/>
        <path id="Caminho_4" data-name="Caminho 4" d="M3.865,4.405A13.326,13.326,0,0,0,6.919,0,5.2,5.2,0,0,0,8.533,1.739,20.556,20.556,0,0,1,6.342,6.26,16.2,16.2,0,0,1,2.826,9.8,14.6,14.6,0,0,1,0,6.956,16.168,16.168,0,0,0,3.865,4.405Z" transform="translate(2.652 2.775)" fill="#76a0cd"/>
        <path id="Caminho_5" data-name="Caminho 5" d="M2.076,5.1A20.626,20.626,0,0,0,3.345,0,6.612,6.612,0,0,0,5.652.7a24.269,24.269,0,0,1-.523,5.1,34.226,34.226,0,0,1-1.323,4.811A12.316,12.316,0,0,1,0,9.563S1.384,6.9,2.076,5.1Z" transform="translate(8.361 4.811)" fill="#76a0cd"/>
      </g>
      <path id="Caminho_6" data-name="Caminho 6" d="M5.48,2.145a11.858,11.858,0,0,0,5.653,1.044A5.9,5.9,0,0,0,8.595,5.043,17.842,17.842,0,0,1,4.21,4.985,11.213,11.213,0,0,1,0,3.362,13.177,13.177,0,0,1,2.249,0,12.419,12.419,0,0,0,5.48,2.145Z" transform="translate(1.451)" fill="#123f75"/>
      <path id="Caminho_7" data-name="Caminho 7" d="M4.788,1.044A13.079,13.079,0,0,0,9.576.405a5.517,5.517,0,0,0-.638,2.145A15.179,15.179,0,0,1,4.557,4.115,10.618,10.618,0,0,1,0,3.942,15.21,15.21,0,0,1,.634,0,11.565,11.565,0,0,0,4.788,1.044Z" transform="translate(0 5.34)" fill="#123f75"/>
    </g>
    <g id="c" transform="translate(393.298 1318)">
      <g id="Grupo_3" data-name="Grupo 3" transform="translate(0.178)">
        <path id="Caminho_8" data-name="Caminho 8" d="M393.889,75.573a12.428,12.428,0,0,1,3.866,2.377,7.265,7.265,0,0,1,.461-2.087,9.4,9.4,0,0,0-2.943-2.956A14.378,14.378,0,0,0,390.2,70.82a12.718,12.718,0,0,0-1.154,3.825,11.981,11.981,0,0,1,4.845.928Z" transform="translate(-389.044 -62.531)" fill="#76a0cd"/>
        <path id="Caminho_9" data-name="Caminho 9" d="M415.436,29.992A13.326,13.326,0,0,1,418.49,34.4a5.2,5.2,0,0,1,1.615-1.739,20.556,20.556,0,0,0-2.192-4.521A16.2,16.2,0,0,0,414.4,24.6a14.6,14.6,0,0,0-2.826,2.84,16.168,16.168,0,0,1,3.865,2.551Z" transform="translate(-408.919 -21.754)" fill="#76a0cd"/>
        <path id="Caminho_10" data-name="Caminho 10" d="M462.141,5.924a20.626,20.626,0,0,1,1.269,5.1,6.612,6.612,0,0,1,2.307-.7,24.271,24.271,0,0,0-.523-5.1A34.233,34.233,0,0,0,463.871.417a12.316,12.316,0,0,0-3.806,1.044s1.384,2.666,2.076,4.463Z" transform="translate(-451.703 -0.417)" fill="#76a0cd"/>
      </g>
      <path id="Caminho_11" data-name="Caminho 11" d="M405.336,163.523a11.858,11.858,0,0,1,5.653-1.044,5.9,5.9,0,0,1-2.538-1.855,17.842,17.842,0,0,0-4.385.058,11.213,11.213,0,0,0-4.21,1.623,13.178,13.178,0,0,0,2.249,3.362,12.421,12.421,0,0,1,3.23-2.145Z" transform="translate(-398.405 -141.664)" fill="#123f75"/>
      <path id="Caminho_12" data-name="Caminho 12" d="M392.321,125.99a13.079,13.079,0,0,1,4.788.638,5.516,5.516,0,0,1-.638-2.145,15.179,15.179,0,0,0-4.381-1.565,10.618,10.618,0,0,0-4.557.174,15.21,15.21,0,0,0,.634,3.942,11.566,11.566,0,0,1,4.153-1.044Z" transform="translate(-387.534 -108.369)" fill="#123f75"/>
    </g>
    <path id="Caminho_22" data-name="Caminho 22" d="M440.5,182.2a6.883,6.883,0,0,1,5.89,3.535,14.807,14.807,0,0,0,3.514-2.2,12.277,12.277,0,0,0-18.745,0,13.826,13.826,0,0,0,3.52,2.2A6.829,6.829,0,0,1,440.5,182.2Z" transform="translate(-32.726 1159.864)" fill="#123f75"/>
  </g>
</svg>
