<svg xmlns="http://www.w3.org/2000/svg" width="198.871" height="48.583" viewBox="0 0 198.871 48.583">
  <g id="layer1" transform="translate(-190.427 -309.376)">
    <g id="g3048" transform="translate(184.427 309.761)">
      <g id="Camada_x0020_1" transform="translate(0)">
        <path id="path2993" d="M188.719,621.719a25.451,25.451,0,0,1-1.093-3.623c-.406-2.713,1.011-4.5,2.315-4.91,1.463-.407,2.033.326,2.6,2.033.731,2.6.813,6.005.567,10.88-.32,6.659-3.652,14.7-11.935,14.535-7.148-.157-10.313-4.787-10.641-11.852-.024-.52-.039-1.041-.041-1.567v-.158a33.049,33.049,0,0,1,1.5-9.643c.731-2.521,1.384-3.418,3.655-3.9,1.785-.326,1.624,1.539,1.219,3.74A43.278,43.278,0,0,0,175.892,630c.319,5.848,3,8.123,5.928,8.123,4.386.085,6.333-3.57,7.149-8.854C189.615,625.047,189.128,623.016,188.719,621.719Zm93.515,5.767c1.708,0,2.2,2.02,1.79,3.244a5.21,5.21,0,0,1-4.141,3.007C279.393,632.516,279.148,627.486,282.234,627.486Zm-31.749,2.753c0-1.375-.735-2.514-1.622-2.514-.739,0-2.438.809-2.438,3.409a5.039,5.039,0,0,0,1.055,3.417A4.21,4.21,0,0,0,250.485,630.239Zm-25.262-16.565a2.385,2.385,0,0,0-2.518-2.19,3.224,3.224,0,0,0-2.839,3.65,2.382,2.382,0,0,0,2.44,2.442c1.78,0,3.079-2.031,2.916-3.9Zm13.208,4.77c-.141-2.271-.692-3.3-1.911-3.213-1.618.1-2.365,5.186-2.034,10.535.211,3.49.73,4.027,1.215,3.994C236.594,629.707,238.74,623.472,238.431,618.444Zm53.874,8.549c-1.006,4.176-4.058,10.318-8.612,10.318-1.054,0-2.922-.409-2.922-1.465,0-1.139,7.151-1.3,7.151-6.74,0-2.028-1.867-4.874-4.63-4.874-3.655,0-7.22,3.984-7.22,9.5,0,4.95,3.075,6.576,6.161,6.576,5.362,0,8.611-4.388,10.315-8.041.816,2.436,1.3,8.041,3.333,8.041.81,0,1.382-.406,2.357-2.6,2.43-5.445,4.788-11.7,8.039-11.7,1.215,0,.487,2.2,3.409,2.2a2.373,2.373,0,0,0,2.349-2.443c0-1.87-1.7-3.327-4.3-3.327-7.636,0-9.255,11.452-10.475,11.452-2.032,0-1.382-9.178-2.846-9.178C293.117,624.72,292.478,626.269,292.3,626.993Zm-64.97,9.745a5.693,5.693,0,0,0,4.957-3.033,30.328,30.328,0,0,1-1.708-7.859c-.484-7.874,2.548-15.279,5.869-15.483,2.434-.148,4.382,2.156,4.606,5.889.6,9.81-2.669,13.906-4.3,17.438a5.81,5.81,0,0,0,4.792,3.7,3.144,3.144,0,0,0,2.034-.735,8.057,8.057,0,0,1-.329-2.354c0-5.685,3.656-10.479,6.824-10.479,2.518,0,3.98,3.33,3.98,5.527,0,2.594-2.195,4.711-5.441,6.742a3.9,3.9,0,0,0,2.519.975c4.633,0,7.058-5.606,8.852-10.725.324-.977.9-2.354,2.03-2.354,1.95,0,2.764,12.833,6,12.833,1.385,0,2.52-2.845,2.52-5.032,0-1.627-.568-1.79-.568-4.145,0-2.6,1.381-4.787,3.254-4.787,1.136,0,1.546,1.132,1.546,2.51,0,5.2-3.741,14.866-9.256,14.866-4.149,0-3.826-7.148-5.286-7.148-1.632,0-3.905,7.229-11.938,7.229a5.157,5.157,0,0,1-3.818-1.952,9.341,9.341,0,0,1-5.443,1.871c-3,0-4.3-3.087-5.52-3.087-1.465,0-3.084,3.168-7.962,3.168-3.9,0-4.548-5.193-5.926-5.193-1.221,0-3.088,5.193-5.117,5.193-3.416,0-4.141-9.012-7.15-9.012-2.354,0-9.8,9.154-11.816,8.944-.812-.085-1.154-.691-1.068-1.5a57.452,57.452,0,0,1,1.474-5.554c.657-2.47,1.259-5.176,1.6-6.04a2.158,2.158,0,0,1,1.96-1.425c.365.035.474.715.587,1.276.41,2.008.983,4.056,1.63,4.056,1.141,0,4.909-7.23,7.1-7.23,2.685,0,3.006,11.373,6.658,11.373,1.221,0,2.118-1.46,2.926-3.251.084-3.01.894-7.3,3.331-7.3,1.707,0,2.52,3.814,1.3,7.147,0,3.975,2.6,4.95,4.305,4.95Z" transform="translate(-107.166 -601.59)" fill="#08569b" fill-rule="evenodd"/>
        <path id="path2995" d="M485.828,311.784a.783.783,0,0,1-.813-.4c-.163-.325-.108-.849-.415-1.083a3.15,3.15,0,0,0,.884.09c.813,0,1.59-.559,2.187-.559a.467.467,0,0,1,.52.5C488.191,311.135,486.588,311.784,485.828,311.784Zm.4,2.04c1.876,0,3.592-1.5,3.592-2.815a1.1,1.1,0,0,0-1.03-1.21.793.793,0,0,1,.18.578c0,.993-1.513,2.094-3.157,2.094a.69.69,0,0,0-.777.631C485.033,313.608,485.522,313.824,486.225,313.824Zm-.144.758c.235,1.714,2.832,4.025,3.536,3.97.471-.04.651-2.238.651-3.97,0-.992.054-1.769-.469-1.95A4.123,4.123,0,0,1,486.081,314.582Z" transform="translate(-437.579 -301.559)" fill="#08569b" fill-rule="evenodd"/>
        <path id="path2997" d="M210.1,395.405c.613,0,.486-3.755,1.479-3.755.235,0,.307.235.307.523,0,.848-.416,2.094-.416,2.78,0,.343.09.452.253.452.434,0,1.192-4.134,1.931-4.134.235,0,.343.235.343.47,0,.866-1.1,3.357-1.1,4.061,0,.109.036.2.126.2.451,0,1.354-1.949,1.642-2.923.163-.506.379-.777.578-.777.18,0,.343.2.343.615a15.272,15.272,0,0,1-1.7,4.8c-.613,1.191-1.569,2.9-1.569,3.861a1.914,1.914,0,0,0,.793,1.607c-1.155-.072-1.624-.18-2.057-1.082-1.932,3.844,3.555,3.465,1.678,6.875-.343-.613-3.05-1.244-3.05-4.818,0-3.086,2.707-4.891,2.707-6.172a.823.823,0,0,0-.324-.668c-.6-.507-.615-.92-1.083-.92-.342,0-.759.794-.325,1.5.145.235.271.379.271.6,0,.5-.795,1.858-1.354,1.858s-.992-1.388-.992-3.627c0-1.986.451-3.989,1.01-3.989.162,0,.216.108.216.253,0,.235-.072.7-.072,1.5C209.738,395.332,209.937,395.405,210.1,395.405Z" transform="translate(-202.222 -371.029)" fill="#08569b" fill-rule="evenodd"/>
        <path id="path2999" d="M244.467,404.456c.759,0,1.39-.561,1.39-1.8V400.81a3.155,3.155,0,0,1,.524-2.058,3.24,3.24,0,0,0-.054.722c0,1.552.866,2.618.866,4.115,0,.559-.162.866-.595.866-.415,0-.379-.379-.47-.379-.072,0-.18.234-.18.487a.976.976,0,0,0,1.028.974,1.238,1.238,0,0,0,1.173-1.263c0-1.623-1.263-3.429-1.263-5.161a4.059,4.059,0,0,1,.361-1.661c0,3.592,3.05,6.209,3.05,7.706a.6.6,0,0,1-.631.615.59.59,0,0,1-.614-.578c0-.126-.018-.162-.072-.162a.924.924,0,0,0-.433.831,1.351,1.351,0,0,0,1.39,1.318,1.6,1.6,0,0,0,1.588-1.643c0-1.894-3.7-4.764-3.7-7.832a4.242,4.242,0,0,1,.469-2.022,6.2,6.2,0,0,0-3.122,5.36c0,1.553-.054,2.328-.848,2.328-.415,0-.524-.378-.668-.378-.108,0-.162.324-.162.414A.989.989,0,0,0,244.467,404.456Z" transform="translate(-231.989 -374.792)" fill="#08569b" fill-rule="evenodd"/>
        <path id="path3001" d="M435.1,313.306a8.11,8.11,0,0,0,2.562-.561.981.981,0,0,1,.469-.125c.633,0,.47.721,1.048.721.451,0,1.029-.379,1.373-.379.538,0,1.314,1.7,1.314,2.491,0,.92-1.387,1.48-3.031,1.48a3.854,3.854,0,0,1-3.844-3.448A.191.191,0,0,1,435.1,313.306Zm3.935,2.292c.795,0,1.391-.361,1.391-.578,0-.071-.108-.126-.343-.126a9.92,9.92,0,0,1-1.589-.163c-.759-.127-1.337-.415-1.554-.415-.072,0-.109.036-.109.09C436.832,314.876,437.7,315.6,439.036,315.6Z" transform="translate(-395.279 -303.964)" fill="#08569b" fill-rule="evenodd"/>
        <path id="path3003" d="M243.7,497.757a2.627,2.627,0,0,0-1.553,2.564,5.032,5.032,0,0,0,5.018,4.494,2.938,2.938,0,0,0,3.285-3.052c0-2.725-1.678-4.638-3.861-4.638a2.177,2.177,0,0,0-2.257,2.147,2.988,2.988,0,0,0,3.05,2.979,1.521,1.521,0,0,0,1.606-1.551,2,2,0,0,0-1.823-1.931.529.529,0,0,0-.559.559c0,.432.595.867,1.335.867a.971.971,0,0,0,.4-.073.438.438,0,0,1,.054.217c0,.415-.4.668-1.011.668a1.767,1.767,0,0,1-1.805-1.771c0-.648.56-1.117,1.372-1.117a2.684,2.684,0,0,1,2.562,2.852c0,1.28-.7,2.022-2.147,2.022-2.888,0-4.3-2.6-3.664-5.235Z" transform="translate(-230.84 -461.29)" fill="#08569b" fill-rule="evenodd"/>
        <path id="path3005" d="M298.355,534.238a8.52,8.52,0,0,0,1.092-.072c.27,0,.289.162.289.271,0,.4-.885.885-2.455.885a1.594,1.594,0,0,1-1.643-1.029,7.115,7.115,0,0,1-3.628,1.1c-3.7,0-4.638-1.608-5.793-2.13-.885-.4-2.238.379-4.133-1.732a4.565,4.565,0,0,0,.867.072c1.659,0,2.544-.81,2.544-2.111a4.613,4.613,0,0,0-.037-.5,3.583,3.583,0,0,1,1.933,2.6c.036.181.775.343,1.244.343a1.469,1.469,0,0,0,1.606-1.335,4.057,4.057,0,0,0,3.935-3.087,4.287,4.287,0,0,1,1.876,1.319,3.25,3.25,0,0,1,1.082-.163,6.945,6.945,0,0,1,2,.343c.037-.235.072-.524.434-.524.541,0,.4.6.578.937.09.181.542.289.542.65a.463.463,0,0,1-.47.471.788.788,0,0,1-.217-.036c-.361.126-.379,2.724-1.895,2.724a3.039,3.039,0,0,1-2.6-2.074.773.773,0,0,0-.65-.56c-.288,0-.451.054-.793.434a6.275,6.275,0,0,1-4.6,1.984c-.614,0-1.1-.055-1.228-.055-.073,0-.073.018-.073.036,0,.127.613.615,1.949.615,3.176,0,3.953-1.787,4.458-1.787a.418.418,0,0,1,.414.289,3.544,3.544,0,0,0,3.367,2.128Zm-1.4-3.607a.722.722,0,1,0,.722-.723A.725.725,0,0,0,296.955,530.631Z" transform="translate(-264.895 -487.196)" fill="#08569b" fill-rule="evenodd"/>
        <path id="path3007" d="M443.2,483.177c-.253,0-.524.2-.524.687a1.143,1.143,0,0,0,.65.991,1.112,1.112,0,0,0,.523.145c.524,0,.94-.145.94-.579C444.79,483.864,443.976,483.177,443.2,483.177Zm-1.947,1.118c-.379,0-2.476,2.8-3.827,2.8-.324,0-.6-.614-.6-1.081,0-.253.162-.434.741-.561,3.1-.7,2.416-3.033,5.068-3.033a3.029,3.029,0,0,1,3.088,3.231c0,2.382-3.391,5.342-3.9,5.342-.415,0-.867-.6-.867-.992,0-.126.054-.289.416-.433a4.216,4.216,0,0,0,2.722-3.087.32.32,0,0,0-.325-.36c-.306,0-1.621,2.995-3.084,2.995-1.012,0-2.042-.918-2.042-1.353,0-.723,2.927-2.057,2.927-3.069C441.579,484.313,441.4,484.3,441.255,484.3Z" transform="translate(-396.848 -448.749)" fill="#08569b" fill-rule="evenodd"/>
        <path id="path3009" d="M208.818,313.55a2.166,2.166,0,0,1-1.173.4,1.357,1.357,0,0,1-1.39-1.389,1.522,1.522,0,0,1,.956-1.426,1.777,1.777,0,0,0-.018.307A2.1,2.1,0,0,0,208.818,313.55Zm3.862,3.465a3.429,3.429,0,0,0-.812,2.075,1.622,1.622,0,0,0,1.517,1.786,1.366,1.366,0,0,0,1.3-1.533,2.666,2.666,0,0,0-2-2.328Zm-5.991.721a.389.389,0,0,0-.054.2.384.384,0,0,0,.342.343c.144,0,.235-.036.307-.036.433,0,.92.306,1.624.306a3.446,3.446,0,0,0,1.516-.432,3.766,3.766,0,0,0,1.806-2.527c0-.344-.276-.3-.506-.614s-.142-.593-.289-.74c-.083-.085-.342-.09-.668-.126a3.947,3.947,0,0,0-.4-.018,3.659,3.659,0,0,0-2.093.578C206.711,315.668,206.942,317.322,206.69,317.737Zm4.24-2.238c.125.17.47.38.47.506,0,.252-.145.578-.434.578-.632,0-1.137-.957-1.137-1.5,0-.342.2-.378.469-.378a.435.435,0,0,1,.271.072C210.732,314.868,210.732,315.228,210.93,315.5Zm-1.661,2.2a1.489,1.489,0,0,1-1.245-1.408c0-.361.271-.812.469-.812.072,0,.109.055.127.181a2.053,2.053,0,0,0,1.228,1.642c.054.036.09.054.09.09C209.938,317.521,209.594,317.7,209.269,317.7Zm1.535-4.548a3.551,3.551,0,0,0,.162-1.047c0-.866-.4-2.184-1.625-2.184a1.2,1.2,0,0,0-1.21,1.227c0,1.426,1.426,2,2.673,2Zm-4.675,7.219c0,1.371.415,2.022,1.155,2.022a4.043,4.043,0,0,0,2.273-1.21,8.005,8.005,0,0,1-1.732.271A1.9,1.9,0,0,1,206.13,320.372Zm.632-1.606a1.391,1.391,0,0,0-.018.271c0,.848.451,1.318,1.046,1.318a1.941,1.941,0,0,0,1.442-.867,3.81,3.81,0,0,1-.649.054A2.162,2.162,0,0,1,206.762,318.765Zm4.421-.252a1.717,1.717,0,0,0-1.282,1.516,1.063,1.063,0,0,0,1.137,1.065,1.179,1.179,0,0,0,.7-.181,2.1,2.1,0,0,1-.686-1.569A2.413,2.413,0,0,1,211.183,318.513Zm.65-4.945a.722.722,0,1,0,.721-.722A.724.724,0,0,0,211.833,313.568Zm.938,1.624a.722.722,0,1,0,.723-.721A.725.725,0,0,0,212.77,315.192Z" transform="translate(-200.13 -301.663)" fill="#08569b" fill-rule="evenodd"/>
        <path id="path3011" d="M402.126,354.141a.694.694,0,0,1,1.387,0,.694.694,0,1,1-1.387,0Zm-6.337-5.558a.723.723,0,1,0,.721-.721A.724.724,0,0,0,395.79,348.582Zm-.613,2.544a1.029,1.029,0,1,0,1.028-1.029A1.038,1.038,0,0,0,395.177,351.127Zm2.274-1.155a1.1,1.1,0,1,0,1.1-1.1A1.093,1.093,0,0,0,397.451,349.972Zm.091-2.346a.684.684,0,1,0,.682-.685A.686.686,0,0,0,397.542,347.625Zm3.265-1.731a.687.687,0,1,0,.687-.687A.686.686,0,0,0,400.807,345.894Zm-1.354,2.22a1.156,1.156,0,1,0,1.155-1.155A1.163,1.163,0,0,0,399.453,348.114Zm-1.857,4.223a.721.721,0,1,0,.719-.722A.723.723,0,0,0,397.6,352.336Zm2.363-1.445a.722.722,0,1,0,.723-.721A.724.724,0,0,0,399.959,350.892Zm-.668,2.545a1.246,1.246,0,1,0,1.246-1.245A1.248,1.248,0,0,0,399.291,353.437Zm2.6-1.535a.847.847,0,1,0,.846-.848A.848.848,0,0,0,401.891,351.9Zm-.054-2.274a.757.757,0,1,0,.755-.757.763.763,0,0,0-.755.757Z" transform="translate(-361.328 -331.751)" fill="#08569b" fill-rule="evenodd"/>
        <path id="path3013" d="M415.172,524.585a5.315,5.315,0,0,1-3.392,1.172,4.465,4.465,0,0,1-1.553-.307c-.181,0-.379.18-.578.415a4.072,4.072,0,0,0-.989,2.473,1.479,1.479,0,0,0,1.6,1.442c3.378,0,5.9-2.111,5.9-3.824C416.165,524.982,415.588,524.585,415.172,524.585Zm-.939-.2a.66.66,0,0,0,.18-.524v-.415c0-.524-.791-.829-1.875-.829-1.318,0-2.023.594-2.023.848v.83c0,.344.8.687,1.771.687A3.013,3.013,0,0,0,414.233,524.386Zm-.145,1.787c.091,0,.2.053.2.38a1.582,1.582,0,0,1-.827,1.334,3.469,3.469,0,0,1-1.969.577,4.249,4.249,0,0,0,.253-1.315,3.444,3.444,0,0,0-.036-.416h.235A4.074,4.074,0,0,0,414.088,526.173Z" transform="translate(-372.825 -483.027)" fill="#08569b" fill-rule="evenodd"/>
        <path id="path3015" d="M391.933,397.035c.2,1.533,2.258.757,2.258,2.615,0,.271-.072.669-.072,1.012,0,.4.035.74.34.74s.379-.216.379-.505-.073-.65-.073-.848a.7.7,0,0,1,.723-.776c.686,0,1.21.7,2.24.7-.235,1.155-2.62.848-2.62,2.112,0,.632.632.775,1.048.775.38,0,.506-.054.506-.378,0-.182-.037-.38-.037-.506a.143.143,0,0,1,.145-.145c.4,0,2.344,1.48,2.344,1.932,0,.414-2.055.829-2.651.829a.192.192,0,0,1-.217-.2c0-.126.307-.505.307-.721,0-.163-.271-.271-.994-.271-.343,0-.6.036-.6.307,0,.486.795,1.082.795,1.533,0,.362-.216.578-.795.578-.488,0-1.225-.38-1.225-1.011,0-.505.521-1.01.521-1.317a.251.251,0,0,0-.285-.235c-.669,0-.849,1.768-3.215,1.967a1.813,1.813,0,0,0,.7-1.5c0-.379-.089-.687-.089-1.1,0-.542.252-.813.613-.813.667,0,.992.938,1.427.938a.521.521,0,0,0,.488-.541c0-1.372-2.636-1.173-2.636-3.1A4.468,4.468,0,0,1,391.933,397.035Zm8.608,5.288c0,.45.145.974.6.974.379,0,.7-.576.7-1.209,0-.722-.127-1.282-.127-1.571,0-.126.054-.18.127-.18.271.018.524.758.813.758.325,0,.809-.6,1.007-.6.055,0,.072.073.072.09,0,.271-.416.868-.416,1.1,0,.2,1.048.234,1.048.415,0,.271-1.1.271-1.622.506-.505.216-.814.487-.814.848s.362.433.868.433a7.173,7.173,0,0,0,2.325-.649.084.084,0,0,1,.09.09c0,.181-.613.776-.613,1.047,0,.306,1.12.666,1.1.848-.018.054-.09.072-.216.072-.2,0-.506-.054-.741-.054a.416.416,0,0,0-.326.09c-.125.145.037,1.1-.215,1.1-.235,0-.849-2.13-2.236-2.13-.2,0-.343.163-.343.433A2.718,2.718,0,0,0,403,406.689c.3.2.809.4.809.506,0,.215-1.152.018-1.152.378,0,.325.144.813.144,1.1,0,.09-.018.2-.126.2-.216,0-.741-.992-.994-.992-.216,0-.686.6-.885.6a.1.1,0,0,1-.09-.107c0-.415.668-1.354.668-2.274,0-.433-.054-1.372-.578-1.372-.433,0-.921.686-1.138,1.372-.125.4-.036,1.931-.325,1.931-.271,0-.2-1.029-.56-1.029-.266,0-.844.487-1.043.487-.036,0-.073-.018-.073-.054,0-.216.524-.921.524-1.065,0-.271-1.192-.306-1.192-.523,0-.127.469-.216.9-.289.918-.163,2.272-.83,2.272-1.768,0-1.047-1.011-1.5-1.676-1.932-.343-.216-.722-.4-.722-.54s.433-.145.614-.145c.271,0,.538-.018.538-.234,0-.163-.036-.487-.036-.74,0-.181.018-.325.091-.325.271,0,.65.884.831.884.289,0,.686-.722.958-.722.089,0,.126.054.126.216,0,.667-.343,1.425-.343,2.076Z" transform="translate(-357.562 -375.944)" fill="#08569b" fill-rule="evenodd"/>
        <path id="path3017" d="M370.2,459.029c.831.109,1.03.4,1.03.633,0,.4-.362.523-.705.523-.252,0-.542-.054-.848-.054a1.367,1.367,0,0,0-1.119.469.618.618,0,0,1,.578.56c0,1.047-2.906.179-2.906,2.87,0,1.425,1.48,2.978,3.717,2.978,1.157,0,1.9-.379,1.9-.813,0-.342-.614-.109-.614-.4,0-.126.216-.362.216-.561,0-.087-.072-.251-.216-.251a7.229,7.229,0,0,1-2.186.522c-.974,0-1.932-.558-1.932-1.316,0-.162.073-.253.181-.253s.252.073.379.073c.109,0,.127-.073.127-.271s0-.759.342-.759.994,1.264,3.486,1.264a5.666,5.666,0,0,0,3.031-.7,4.692,4.692,0,0,1-4.82,4.6,5.093,5.093,0,0,1-5.18-5.2,5.313,5.313,0,0,1,5.343-5.269c.793,0,1.463.27,1.463.613,0,.47-1.174.181-1.264.739Zm5.542.958a1.073,1.073,0,0,1,.181.577c0,.506-.343.975-.343,1.5a1.077,1.077,0,0,0,1.134,1.082,1.249,1.249,0,0,0,1.246-1.3C377.964,460.889,377.1,460.077,375.746,459.987Zm-5.975,1.154a.728.728,0,0,1,.235.541c0,.271-.126.56-.126.867a.793.793,0,0,0,.794.811.841.841,0,0,0,.85-.865A1.585,1.585,0,0,0,369.771,461.142Zm2.4-3.069A3.337,3.337,0,0,1,375.1,461.2a1.633,1.633,0,0,1-1.589,1.767,1.528,1.528,0,0,1-1.586-1.642c0-.758.592-1.552.592-2.328A1.4,1.4,0,0,0,372.17,458.073Zm.939,2.4a.433.433,0,0,0,.434.451.5.5,0,0,0,.469-.542c0-.378-.344-.9-.668-.9-.145,0-.09.217-.126.451C373.2,460.113,373.109,460.329,373.109,460.474Z" transform="translate(-335.309 -427.652)" fill="#08569b" fill-rule="evenodd"/>
        <path id="path3019" d="M269.507,321.765c.613,0,1.316-3.321,1.316-3.881,0-.145-.053-.253-.18-.253-.56,0-1.335,3.159-1.335,3.863C269.308,321.621,269.344,321.765,269.507,321.765Zm4.422.992c.451,0,.956-1.733.956-2.816,0-.235-.036-.487-.145-.487-.379,0-1.011,1.787-1.011,2.761C273.729,322.6,273.82,322.758,273.928,322.758Zm-2.943-1.606c.2,0,.451-.217.922-.74a4.7,4.7,0,0,0,.035-.722c0-.36-.144-.758-.361-.758-.542,0-.812,1.444-.812,1.824C270.77,320.971,270.877,321.151,270.985,321.151Zm2.473-.74c0-.308-.073-.38-.144-.38-.181,0-.378.217-.667.7.036.65.144.939.325.939C273.17,321.675,273.458,321.043,273.458,320.412Zm1.39-2.13c1.191,0,1.732,1.029,1.732,2.184,0,.5-.143,1.245-.378,1.245s-.2-.415-.235-.795c-.036-.487-.127-.6-.289-.6-.307,0-.5.721-.5,1.39,0,.414.072.884.4.884a.658.658,0,0,0,.452-.2,1.615,1.615,0,0,1-1.553,1.552c-1.588,0-2.184-1.859-2.364-2.942a4.383,4.383,0,0,1-3.43,1.751,2.032,2.032,0,0,1-2.147-2.111c0-.308.108-1.1.488-1.1.451,0,.054,1.479.938,1.479.217,0,.613-.18.83-.775a3.354,3.354,0,0,0,.2-1.065c0-.488-.108-.794-.469-.794a1.414,1.414,0,0,0-.813.36,2.719,2.719,0,0,1,2.634-1.967c1.427,0,2.185,1.263,2.185,2.671a3.53,3.53,0,0,1-.054.613,3.144,3.144,0,0,1,2.383-1.787Z" transform="translate(-251.631 -307.514)" fill="#08569b" fill-rule="evenodd"/>
        <path id="path3021" d="M268.028,359.9c-.776,0-.812.94-.812,2.834-.578-1.245-1.534-2.581-2.653-2.581-.758,0-1.046.506-1.046,1.389a3.37,3.37,0,0,0,.054.614.684.684,0,0,1,.739-.433,3.291,3.291,0,0,1,2.328,1.408,11.987,11.987,0,0,0-1.967-.253,2.267,2.267,0,0,0-.957.163,2.4,2.4,0,0,0-1.227,2.184,3.636,3.636,0,0,0,.054.6,3.886,3.886,0,0,1,3.393-2.04,3.382,3.382,0,0,1,.505.037,2.94,2.94,0,0,0-.722,1.985c-.017.289-.126.308-.325.308,0,.595.47,1.48.47,1.931a.382.382,0,0,1-.18.343c0,.794.793,1.372.793,1.877a.422.422,0,0,1-.09.289c.055.325.928.871,1.041,1.145.139.332.295.389.385.389.307,0,.793-.362.793-.687a.43.43,0,0,0-.161-.289,2.659,2.659,0,0,1-.668-1.154.338.338,0,0,1-.347-.266c-.1-.374-.1-1.07-.248-1.485-.234-.054-.343-.145-.343-.631,0-.235.145-1.156.145-1.481a.256.256,0,0,1-.252-.289c0-.577.578-1.028.739-1.768a2.655,2.655,0,0,1,1.281,2.22,4.725,4.725,0,0,1-.126,1.029c.758-.38,1.9-.939,1.9-2.076,0-.668-.307-1.408-2.347-1.7a6.375,6.375,0,0,1,2.094-.361c1.156,0,1.823.361,1.967,1.172a2.251,2.251,0,0,0,.415-1.154,1.525,1.525,0,0,0-1.679-1.461,5.759,5.759,0,0,0-3.123,1.281c.47-.975.794-1.552,1.372-1.552a1.388,1.388,0,0,1,.271.036C269.273,360.681,268.462,359.9,268.028,359.9Z" transform="translate(-248.186 -344.283)" fill="#08569b" fill-rule="evenodd"/>
        <path id="path3023" d="M487.506,448.243c.9,0,1.626,1.173,1.626,2.545a5.672,5.672,0,0,1-1.911,4.132c-.018-2.436-3-1.66-3-3.428a1.2,1.2,0,0,1,1.193-1.264,1.83,1.83,0,0,1,1.355.488,1.6,1.6,0,0,1-.488-1.156A1.227,1.227,0,0,1,487.506,448.243Z" transform="translate(-437.256 -419.608)" fill="#08569b" fill-rule="evenodd"/>
        <path id="path3025" d="M394.416,314.513a1.919,1.919,0,0,0,1.39.649c.2,0,.435-.053.561-.053.163,0,.27.071.27.2a1.136,1.136,0,0,1-.4.7,1.815,1.815,0,0,0,.7.126,2.124,2.124,0,0,0,2.2-2.274,2.41,2.41,0,0,1,.344,1.155,2.588,2.588,0,0,1-2.778,2.725,3.892,3.892,0,0,1-1.41-.29c-.342,0-.324.687-.559.669-.415-.072-.794-.993-.794-1.967A2.875,2.875,0,0,1,394.416,314.513Zm2.724-1.318a1.347,1.347,0,0,0-.935-.361,1.459,1.459,0,0,0-1.446,1.065,1.7,1.7,0,0,1-.127-.614,1.744,1.744,0,0,1,1.861-1.768,3.167,3.167,0,0,1,1.766.613c.18,0,.361-.181.506-.181.2,0,.2.307.2.524a2.959,2.959,0,0,1-1.138,2.418,1.839,1.839,0,0,0-.9-.867.286.286,0,0,1-.18-.271A.729.729,0,0,1,397.14,313.2Z" transform="translate(-360.28 -303.023)" fill="#08569b" fill-rule="evenodd"/>
        <path id="path3027" d="M222.556,257.969c0,.632,2.256,3.718,2.689,3.718.362,0,.632-.632.632-1.174a.738.738,0,0,0-.108-.4,10.569,10.569,0,0,0-3.123-2.256.1.1,0,0,0-.09.108Zm-13.265-1.859a3.448,3.448,0,0,1-1.858,1.57c-.18,0-.235-.216-.235-.414a1.6,1.6,0,0,1,.362-1.03,2.016,2.016,0,0,1,1.191-.324C209,255.913,209.291,255.966,209.291,256.11Zm16.479,1.047c0-1.083-2.929-3.05-2.961-3.9a.319.319,0,0,1,.1-.224c.5-.529,2.585-.915,2.585-1.366,0-.234-.434-.234-.65-.234-1.678,0-4.133.613-4.133,1.209,0,.615,2.2,2.112,2.2,2.853,0,.2-.126.271-.325.271-.613,0-1.949-.741-2.58-.741-.289,0-.4.2-.4.488,0,.866,1.029,2.508,1.029,2.994,0,.055-.018.127-.09.127-.325,0-1.858-1.8-2.4-1.8-.2,0-.216.27-.216.667v.613c0,.415-.018.668-.215.668-.47,0-.687-1.317-1.138-1.317-.469,0-.56,2.346-1.01,2.346-.524,0-.073-2.581-.578-2.581-.559,0-1.191,1.715-1.589,1.715-.144,0-.18-.145-.18-.271,0-.523.306-1.371.306-1.876,0-.254-.072-.4-.288-.4-.56,0-1.787.9-2.256.9-.072,0-.162-.036-.162-.109,0-.432,1.967-1.8,1.967-2.418,0-.6-2.708-.2-2.708-.885,0-.577,1.933-1.173,1.933-1.768,0-.524-2.293-.757-3.176-.757-1.065,0-1.643.125-1.643.432,0,.47,2.419.615,2.419,1.029,0,.4-2.509,1.462-2.509,2.076,0,.542,3.537.036,3.537.6,0,.613-3.085,3.265-3.085,4.15,0,.2.144.289.342.289.939,0,3.374-1.787,4.042-1.787.235,0,.253.288.253.541,0,.469-.162,1.191-.162,1.715,0,.414.108.7.468.7.669,0,1.281-1.137,1.734-1.137.577,0,.234,3.338,1.1,3.338.739,0,1.046-3.609,1.515-3.609s.849,1.046,1.282,1.046c.541,0,.289-1.823.867-1.823.631,0,2.436,2.166,3.248,2.166.253,0,.342-.2.342-.452,0-.957-1.335-3.122-1.335-3.807,0-.18.053-.235.252-.235.7,0,2.762.974,3.736.974.326,0,.524-.18.524-.415Zm-1.878-3.573c0,.324,1.137,1.029,1.661,1.029.306,0,.4-.416.4-.849,0-.541-.234-.559-.7-.559C224.65,253.205,223.892,253.368,223.892,253.584Zm-4.241-1.841c0-.109-.541-.217-1.281-.217-1.173,0-1.011.976-1.913.976-.939,0-.705-1.012-1.9-1.012-.722,0-1.389.127-1.389.289,0,.217.848.127.848.723,0,.631-1.823.812-1.823,1.191,0,.126.144.18.325.18.4,0,1.029-.18,1.48-.18.253,0,.488.053.488.288,0,.451-.975,1.264-.975,1.625,0,.108.09.145.18.145.362,0,.975-.921,1.553-.921.957,0,.326,2.039.848,2.039.541,0,.307-2,1.083-2,.633,0,1.1,1.39,1.534,1.39a.2.2,0,0,0,.2-.217c0-.378-.541-1.155-.541-1.66,0-.307.216-.452.505-.452.414,0,.974.253,1.28.253.108,0,.216-.036.216-.162,0-.433-1.6-.9-1.6-1.461S219.651,252,219.651,251.743Z" transform="translate(-200.963 -251.732)" fill="#08569b" fill-rule="evenodd"/>
        <path id="path3029" d="M468.423,254.875c0,1.605-1.17,2.833-3.284,3.176.235.018.452.018.669.018,2.471,0,3.375-1.118,3.375-2.057A1.147,1.147,0,0,0,468.423,254.875Zm-3.049,1.822c0-1.281-3.066-1.606-3.066-1.895,0-.234,1.712-.632,2.6-.65-1.353-1.732-3.282-1.551-3.282-1.858a5.57,5.57,0,0,1,2.778-.542c1.119,0,2.166.253,2.166,1.1,0,.47-.379.958-.379,1.679a.667.667,0,0,0,.722.74c.561,0,.686-.6.686-1.228,0-.522-.09-.92-.09-1.173a1.2,1.2,0,0,1,1.26-1.263c.614,0,.759.269,1.662.269a1.378,1.378,0,0,0-.669,1.065c0,.759.489,1.282.489,2.834,0,2.85-2.671,3.861-5.939,3.861a18.76,18.76,0,0,1-2.8-.216c-.143-.018-.18-.054-.18-.144,0-.235,1.283-.362,1.283-1.516a8.979,8.979,0,0,0-.145-1.047.143.143,0,0,1,.145-.145c.271,0,.813,1.046,1.821,1.046a.86.86,0,0,0,.938-.92Zm2.941-3.988a.452.452,0,1,0,.451-.452A.447.447,0,0,0,468.314,252.71Z" transform="translate(-417.738 -251.94)" fill="#08569b" fill-rule="evenodd"/>
        <path id="path3031" d="M455.318,350.03c0-.379-.958-.414-1.048-1.48-.019-.162-.073-.45-.272-.45-.324,0-.072.993-.433.993-.83,0-1.1-1.625-1.407-1.625-.072,0-.159.054-.159.271,0,.2.036.325.036.559s-.055.4-.271.4c-.488,0-.921-1.138-1.337-1.138a.164.164,0,0,0-.18.145c0,.217.361.613.361.812,0,.434-1.174.2-1.174.56,0,.163.162.216.379.216.38,0,.976-.161,1.283-.161.181,0,.451.036.451.269,0,.253-.65.577-.65.812a.182.182,0,0,0,.2.162c.488,0,1.351-.848,1.965-.848.108,0,.378.054.378.217,0,.234-.613.648-.613.992a.183.183,0,0,0,.163.2c.323,0,.757-.848,1.371-.848.235,0,.578.09.759.09C455.264,350.175,455.318,350.084,455.318,350.03Zm.469,8.753a10.98,10.98,0,0,1,1.242-2.509c-.591-.306-2.164-.957-2.164-2.021a2.793,2.793,0,0,1,1.875-2.22c.145,0,.181.127.181.361,0,.649-.307,1.7-.307,2.256,0,.5.325.993.614.993.307,0,1.155-1.083,1.155-2.148a2.432,2.432,0,0,0-2.2-2.491c-.487,0-1.373.793-3.449.793-3.879,0-4.764-3.843-4.764-5.522,0-.072.017-.09.035-.09a2.758,2.758,0,0,0,1.7.47c.632,0,1.21-.163,2.132-.163,2.162,0,3.12,1.5,4.457,3.411.808.5,2.742,1.318,2.742,3.61,0,2.021-2.15,3.14-2.669,5.306.827-.09,1.315-1.571,2.163-1.571.434,0,.632.343.632.886a3.929,3.929,0,0,1-1.319,2.725,1.219,1.219,0,0,0,.018-.271c0-.5-.2-1.226-.777-1.226-.9,0-1.188.974-1.693,1.785a8.625,8.625,0,0,0-2.492-4.512c-1.278-1.028-3.483-.469-3.483-2.346,0-.506.326-1.227.326-1.8a.847.847,0,0,0-.145-.524c1.735.65,1.12,1.8,2.187,3,.664.759,2.506,1.48,3.572,4.6a3.4,3.4,0,0,0,.036-.487c0-2.671-3.536-5.289-3.843-6.372,2.054.234,2.415.74,3.391,3.448a11.276,11.276,0,0,1,.849,2.635Z" transform="translate(-406.346 -332.585)" fill="#08569b" fill-rule="evenodd"/>
        <path id="path3033" d="M398.8,258.73c-1.265,0-2.1-.631-2.1-.957a.251.251,0,0,1,.253-.27c.4,0,1.264.613,1.552.613.073,0,.127-.035.127-.144,0-.325-.307-.866-.307-1.136,0-.073.054-.127.162-.127.487,0,1.21.2,1.59.2.126,0,.162-.072.162-.145,0-.4-1.174-1.173-1.174-1.408,0-.216,1.46-.542,1.46-.884,0-.362-1.984-.109-1.984-.452,0-.252.38-.686.38-.884,0-.091-.073-.126-.2-.126a14.266,14.266,0,0,1-1.391.343c-.18,0-.4-.036-.4-.289,0-.415.7-.866,1.807-.866,1.784,0,2.85,1.227,2.85,3.285C401.6,258.081,399.775,258.73,398.8,258.73Zm-3.518-3.428c0-.2-.705-.578-.705-.794,0-.036.035-.054.09-.054.2,0,.543.072.814.072.235,0,.271-1.011.448-1.011.126,0,.342.957.542.957.234,0,.667-.271.848-.271.036,0,.072.018.072.055,0,.126-.451.613-.451.757,0,.162,1.012.361,1.012.506,0,.181-1.03.163-1.03.325,0,.125.38.631.38.794a.049.049,0,0,1-.054.055c-.145,0-.7-.254-.867-.254-.2,0-.52.74-.683.74-.054,0-.09-.072-.09-.163l-.036-.722a.128.128,0,0,0-.126-.145c-.217,0-.633-.018-.76-.018-.09,0-.127-.018-.127-.054C394.557,255.933,395.281,255.428,395.281,255.3Zm-.525,2.958c.29,0,.344.7.4,1.119.036.217.072.235.163.235.217,0,.559-.83.791-.83.342,0,1.264.957,2.8.957a4.112,4.112,0,0,0,4.242-4.241c0-2.617-1.843-4.151-4.386-4.151a13.279,13.279,0,0,0-2.565.6c-.285.018-.718-.7-.935-.7-.09,0-.18.179-.18.487,0,.2,0,.83-.217.83-.434,0-2.112-1.245-2.112-.794,0,.415,1.118,1.679,1.118,2s-1.1.632-1.1.848c0,.4,1.173.469,1.173.975s-1.228.9-1.228,1.281c0,.306,1.228.09,1.228.469s-.9,1.642-.9,2c0,.091.018.091.089.091C393.474,259.434,394.5,258.26,394.756,258.26Z" transform="translate(-359.23 -251.626)" fill="#08569b" fill-rule="evenodd"/>
        <path id="path3035" d="M317.737,506.309a.826.826,0,0,1-.2.523,1.329,1.329,0,0,0-1.011-.541c-1.859,0-1.155,2.689-3.14,2.689a9.432,9.432,0,0,1-1.209-.109c-.127,0-.2.054-.2.163,0,.47.668,1.624,2.527,1.624s3.646-1.136,3.646-2.546a1.878,1.878,0,0,0-.163-.738.529.529,0,0,1,.416-.181c.289,0,.451.326.721.326a.494.494,0,0,0,.506-.506.546.546,0,0,0-.342-.507.622.622,0,0,0,.252-.487.573.573,0,0,0-.578-.6.516.516,0,0,0-.4.179c-.035-.323-.216-.63-.56-.63a.466.466,0,0,0-.47.506c0,.286.2.522.2.829Z" transform="translate(-290.386 -467.982)" fill="#08569b" fill-rule="evenodd"/>
        <path id="path3037" d="M276.3,481.639c1.444.359,2.166,1.135,2.31,2.056a4.011,4.011,0,0,0,.667,1.967,3.119,3.119,0,0,0,2.112.955c.65,0,1.172-.214,1.172-.81a2.476,2.476,0,0,0-2.183-2.112c-.126,0-.289.019-.469.019a.866.866,0,0,1-.541-.163c-.288-.253-.379-1.607-.92-2.419a2.27,2.27,0,0,0-2.129-1.155c-.631,0-1.336.342-1.336.848C274.983,481.133,275.145,481.349,276.3,481.639Zm5.036,4.042c-.542,0-1.354-.578-1.354-.9a.438.438,0,0,1,.451-.416c.452,0,1.263.561,1.263,1.03C281.7,485.518,281.605,485.681,281.336,485.681Z" transform="translate(-258.84 -446.668)" fill="#08569b" fill-rule="evenodd"/>
        <path id="path3039" d="M305.058,399.226c0-1.155,2.744-1.768,2.744-3.195a2.354,2.354,0,0,0-.253-.956,2.9,2.9,0,0,1,1.66,2.129c0,1.245-1.3,1.823-1.3,2.6,0,.9,1.39,1.047,1.39,2.166,0,.92-1.318,1.985-1.318,3.176a1.8,1.8,0,0,0,1.642,1.8,4.169,4.169,0,0,1-.92.127c-1.823,0-3.7-1.5-3.7-3.285a3.078,3.078,0,0,1,.956-2.219,2.582,2.582,0,0,0,1.336.721c.289,0,.416-.144.416-.36C307.712,401.265,305.058,400.652,305.058,399.226Zm5.758,9.114c-.619.283-.866.235-.866.867,0,.234-.054.54-.054.7,0,.216.036.343.289.343a2.31,2.31,0,0,0,1.679-2.04c0-.254-.145-.36-.307-.36C311.411,407.853,311.25,408.141,310.816,408.34Zm-.072-1.3c0-.812-1.679-.83-1.679-2.057a2.818,2.818,0,0,1,.6-1.391,1.958,1.958,0,0,0,1.354,1.734,2.31,2.31,0,0,1,1.822,2.455,3.684,3.684,0,0,1-4.061,3.646,4.11,4.11,0,0,1-4.025-3.863c0-.488.126-1.028.433-1.028.271,0,.361.216.578.432A3.758,3.758,0,0,0,308.741,408C309.9,408,310.744,407.528,310.744,407.04Z" transform="translate(-284.224 -374.272)" fill="#08569b" fill-rule="evenodd"/>
        <path id="path3041" d="M239.094,465.549a.686.686,0,1,1-.761-.6A.686.686,0,0,1,239.094,465.549Zm-3.373.71a1.178,1.178,0,0,0,1.3,1.011,1.485,1.485,0,0,0,.6-.18,1.111,1.111,0,0,0,1.284.863,1.144,1.144,0,0,0,1.045-1.278,1.3,1.3,0,0,0-.108-.415s.088-.009.154-.022a1.2,1.2,0,0,0,1.037-1.278,1.172,1.172,0,0,0-1.262-1.057,1.137,1.137,0,0,0-.6.245,1.216,1.216,0,0,0-1.366-.9,1.166,1.166,0,0,0-.98,1.312,1.188,1.188,0,0,0,.09.36l-.18.026A1.216,1.216,0,0,0,235.721,466.259Z" transform="translate(-225.355 -432.391)" fill="#08569b" fill-rule="evenodd"/>
      </g>
    </g>
  </g>
</svg>
