<svg xmlns="http://www.w3.org/2000/svg" width="198.871" height="47.583" viewBox="0 0 198.871 47.583">
  <g id="layer1" transform="translate(169.326 -247.028)">
    <g id="g545" transform="translate(-169.326 247.028)">
      <path id="path386" d="M-149.117,279.273a5.769,5.769,0,0,1-3.085,1.221,5.077,5.077,0,0,1-4.573-1.7c-.92-1.1-1.392-2.531-2.29-3.673a6.39,6.39,0,0,0-6.022-2.573,6.424,6.424,0,0,0-4.1,9.956c3.731,5.337,12.122,4.413,16.429.716a20.85,20.85,0,0,0,3.643-3.946" transform="translate(170.326 -247.7)" fill="#e51636"/>
      <path id="path388" d="M4.989,279.272a5.742,5.742,0,0,0,3.085,1.221,5.069,5.069,0,0,0,4.572-1.7c.919-1.1,1.394-2.531,2.29-3.673a6.391,6.391,0,0,1,6.023-2.573,6.423,6.423,0,0,1,4.1,9.956c-3.73,5.336-12.12,4.413-16.424.716a20.8,20.8,0,0,1-3.645-3.948" transform="translate(172.674 -247.7)" fill="#e51636"/>
      <path id="path390" d="M-10,251.092c-.116,0-11.137,0-11.238,0a2.473,2.473,0,0,0-2.264,2.306,2.479,2.479,0,0,0,2.264,2.5c.117,0,11.137,0,11.238,0a2.472,2.472,0,0,0,2.264-2.306,2.477,2.477,0,0,0-2.264-2.5" transform="translate(172.292 -247.987)" fill="#472380"/>
      <path id="path392" d="M-79.167,274.953a11.357,11.357,0,0,1-.28-1.9c-.007-.914-.007-2.2-.007-3.377.115-4.077.876-11.25-4.654-11.25-3.735,0-5.948,3.143-6.575,4.17-.089-2.865-2.35-4.944-5.8-4.944A4.72,4.72,0,0,0-100,259.407a3.648,3.648,0,0,1,2.149,3.632c.023,2.068,0,12.134,0,12.176a3.475,3.475,0,0,0,3.56,3.456,3.494,3.494,0,0,0,3.613-3.46v-8.928c.311-1.459,1.132-2.949,2.37-2.949,1.606,0,1.7,1.786,1.7,1.786l-.007,8.642a5.216,5.216,0,0,0,.092.815,4.46,4.46,0,0,0,.411,1.254,5.594,5.594,0,0,0,5.3,2.875,4.721,4.721,0,0,0,3.51-1.752,3.429,3.429,0,0,1-1.87-2" transform="translate(171.268 -247.899)" fill="#472380"/>
      <path id="path394" d="M-26.883,275.082a10.93,10.93,0,0,1-.28-1.9l.006-21.389a3.767,3.767,0,0,0-3.767-3.767,3.766,3.766,0,0,0-3.767,3.767l0,18.943c.019,1.706-.149,3.45.656,5.018a6.067,6.067,0,0,0,5.5,3.083,4.717,4.717,0,0,0,3.514-1.752,3.437,3.437,0,0,1-1.87-2" transform="translate(172.143 -248.028)" fill="#472380"/>
      <path id="path396" d="M-109.908,258.233a10.233,10.233,0,0,0-10.234,10.235A10.233,10.233,0,0,0-109.908,278.7a10.234,10.234,0,0,0,10.235-10.234,10.235,10.235,0,0,0-10.235-10.235m.075,16.121v.005c-.008,0-.015,0-.022,0s-.015,0-.021,0v-.005c-1.932-.035-2.9-2.255-2.9-5.887s1.227-5.849,2.9-5.889h.044c1.672.04,2.9,2.263,2.9,5.889s-.967,5.852-2.9,5.887" transform="translate(170.998 -247.891)" fill="#472380"/>
      <path id="path398" d="M-56.449,275.082a10.863,10.863,0,0,1-.28-1.9l0-21.389a3.766,3.766,0,0,0-3.767-3.767,3.767,3.767,0,0,0-3.767,3.767l-.015,10.131a7.574,7.574,0,0,0-6.046-3.393c-8.65,0-9.2,15.4-3.265,19.215a8.277,8.277,0,0,0,6.1.853c1.318-.344,3.4-1.638,3.729-3.184.048.113.1.226.156.339a6.067,6.067,0,0,0,5.5,3.083,4.718,4.718,0,0,0,3.514-1.752,3.437,3.437,0,0,1-1.87-2m-11.226-1.245v0h-.044v0c-1.933-.029-2.9-1.966-2.9-5.128s1.226-5.094,2.9-5.13v0c.01,0,.014,0,.023,0s.013,0,.021,0v0c1.676.035,2.9,1.971,2.9,5.13s-.969,5.1-2.9,5.128" transform="translate(171.569 -248.028)" fill="#472380"/>
      <path id="path400" d="M-37.152,272.367s-1.1,1.514-5.39,1.514-5.205-3.332-5.205-3.332c6.245,0,11.484-.418,11.484-5.475s-5.715-6.724-9.1-6.724c-5.6,0-9.683,4.462-9.683,10.352a9.747,9.747,0,0,0,9.742,10c7.782,0,8.156-6.332,8.156-6.332Zm-11-5.063c.219-1.614.606-3.648,2.058-4.59a1.924,1.924,0,0,1,2.92,1.616,2.9,2.9,0,0,1-2.436,2.979,11.283,11.283,0,0,1-2.542-.005" transform="translate(171.87 -247.889)" fill="#472380"/>
      <path id="path402" d="M-7.416,272.367s-1.1,1.514-5.39,1.514-5.205-3.332-5.205-3.332c6.245,0,11.484-.418,11.484-5.475s-5.715-6.724-9.1-6.724c-5.6,0-9.683,4.462-9.683,10.352a9.747,9.747,0,0,0,9.742,10c7.782,0,8.156-6.332,8.156-6.332Zm-11-5.062c.219-1.614.606-3.648,2.058-4.59a1.924,1.924,0,0,1,2.92,1.616,2.9,2.9,0,0,1-2.436,2.979,11.283,11.283,0,0,1-2.542-.005" transform="translate(172.268 -247.889)" fill="#472380"/>
      <path id="path404" d="M6.467,272.924H2.175a44.257,44.257,0,0,0,4.543-3.569c2.757-2.34,7.715-5.716,6.27-10.089l0,.031a3.229,3.229,0,0,0-1.067-1.642,2.257,2.257,0,0,1-1.319,1.231,7.124,7.124,0,0,1-1.248.2c-.343.006-12,0-12,0a2.9,2.9,0,0,0-2.919,2.761,2.765,2.765,0,0,0,2.826,2.739l6.8.043c-3.151,1.757-6.914,3.839-8.825,7.017-1.091,1.824-2.259,4.636-1.815,6.793a11.561,11.561,0,0,1,8.491-2,10.756,10.756,0,0,1,3.307,1.423c5.659,3.54,9.06-3.383,6.354-6.435,0,0-1.543,1.5-5.112,1.5" transform="translate(172.518 -247.899)" fill="#472380"/>
      <path id="path406" d="M-119.1,277.338c-3.471-3.806-4.557-10.135-4.771-14.342-.184-3.634.012-9.929,2.876-11.76a5.7,5.7,0,0,0-4.287-1.691c-3.229,0-4.786,2.151-5.89,3.7-.365.511-5.794,8-5.794,8s-4.567-7.065-5.128-7.914c-.776-1.171-2.228-3.323-4.781-3.7-1.1-.161-3.951-.306-5.5,1.824,2.676,2.141,2.609,7.592,2.028,11.314-1.743,11.172-6.5,12.2-6.5,12.2,2.435,6.576,8.706,3.978,10.478-1.265a44.548,44.548,0,0,0,2.06-11.3l6.882,10.557s7.792-10.524,7.792-10.514c-1.283,18.612,5.108,23.888,10.7,23.888a8.217,8.217,0,0,0,7.5-5.116,11.35,11.35,0,0,1-7.661-3.884" transform="translate(170.506 -248.007)" fill="#472380"/>
      <path id="path408" d="M-102.359,282.965a4.664,4.664,0,0,1,.12.813c0,.082-.005,9.737,0,9.852a1.658,1.658,0,0,0,1.546,1.519,1.663,1.663,0,0,0,1.674-1.519c0-.11,0-8.805,0-8.805a4.637,4.637,0,0,0-.281-2.147,2.6,2.6,0,0,0-2.355-1.321,2.02,2.02,0,0,0-1.5.75,1.469,1.469,0,0,1,.8.857" transform="translate(171.225 -247.581)" fill="#472380"/>
      <path id="path410" d="M-1.607,293.543a4.685,4.685,0,0,1-.12-.813c0-.082,0-9.736,0-9.851a1.66,1.66,0,0,0-1.547-1.52,1.664,1.664,0,0,0-1.674,1.52c0,.11,0,8.8,0,8.8a4.653,4.653,0,0,0,.281,2.148,2.6,2.6,0,0,0,2.355,1.32,2.018,2.018,0,0,0,1.5-.75,1.473,1.473,0,0,1-.8-.858" transform="translate(172.541 -247.581)" fill="#472380"/>
      <path id="path412" d="M-59.056,286.3A3.66,3.66,0,0,0-62,288.164l-.01.007c0-.466,0-.834,0-.853a1.6,1.6,0,0,0-1.546-1.454,1.609,1.609,0,0,0-1.673,1.454c0,.11,0,6.164,0,6.246a1.659,1.659,0,0,0,1.547,1.517,1.662,1.662,0,0,0,1.672-1.517c0-.063,0-2.038,0-3.74l.013-.009c.138-.654.506-1.321,1.062-1.321.719,0,.759.8.763.8l-.007,4.269a1.659,1.659,0,0,0,1.547,1.517,1.662,1.662,0,0,0,1.672-1.517l0-2.231c0-2.294.239-5.048-2.09-5.037" transform="translate(171.733 -247.521)" fill="#472380"/>
      <path id="path414" d="M-18.449,286.3a3.66,3.66,0,0,0-2.946,1.868l-.009.007c0-.466,0-.834,0-.853a1.6,1.6,0,0,0-1.546-1.454,1.609,1.609,0,0,0-1.673,1.454c0,.11,0,6.164,0,6.246a1.658,1.658,0,0,0,1.546,1.517,1.663,1.663,0,0,0,1.673-1.517c0-.063,0-2.038,0-3.74l.013-.009c.138-.654.506-1.321,1.062-1.321.719,0,.759.8.762.8l-.007,4.269a1.658,1.658,0,0,0,1.546,1.517,1.663,1.663,0,0,0,1.673-1.517l0-2.231c0-2.294.24-5.048-2.09-5.037" transform="translate(172.277 -247.521)" fill="#472380"/>
      <path id="path416" d="M-91.309,286.3a3.66,3.66,0,0,0-2.946,1.868l-.009.007c0-.466,0-.834,0-.853a1.6,1.6,0,0,0-1.546-1.454,1.609,1.609,0,0,0-1.673,1.454c0,.11,0,6.164,0,6.246a1.659,1.659,0,0,0,1.547,1.517,1.663,1.663,0,0,0,1.672-1.517c0-.063,0-2.038,0-3.74l.014-.009c.138-.654.506-1.321,1.062-1.321.719,0,.759.8.763.8l-.007,4.269a1.658,1.658,0,0,0,1.546,1.517,1.662,1.662,0,0,0,1.673-1.517l0-2.231c0-2.294.24-5.048-2.09-5.037" transform="translate(171.301 -247.521)" fill="#472380"/>
      <path id="path418" d="M-29.986,285.891a4.585,4.585,0,0,0-4.586,4.585,4.584,4.584,0,0,0,4.586,4.585,4.585,4.585,0,0,0,4.585-4.585,4.585,4.585,0,0,0-4.585-4.585m.033,7.222v0h-.019v0c-.867-.017-1.3-1.01-1.3-2.637s.549-2.62,1.3-2.638h.019c.749.018,1.3,1.014,1.3,2.638s-.433,2.62-1.3,2.637" transform="translate(172.144 -247.52)" fill="#472380"/>
      <path id="path420" d="M-46.82,287.211a1.751,1.751,0,0,0-1.632-1.591,1.742,1.742,0,0,0-1.753,1.591c0,.062-.008.193-.008.217a3.4,3.4,0,0,0-2.71-1.52c-3.876,0-4.121,6.9-1.463,8.609a3.714,3.714,0,0,0,2.736.382,2.812,2.812,0,0,0,1.519-1.065,1.774,1.774,0,0,0,1.56,1.228,1.741,1.741,0,0,0,1.752-1.59c0-.115,0-6.184,0-6.262m-4.919,5.555h-.019c-.866-.014-1.3-.882-1.3-2.3s.549-2.282,1.3-2.3h.019c.75.016,1.3.883,1.3,2.3s-.435,2.285-1.3,2.3" transform="translate(171.855 -247.524)" fill="#472380"/>
      <path id="path422" d="M-6.246,287.211a1.749,1.749,0,0,0-1.632-1.591,1.742,1.742,0,0,0-1.752,1.591c0,.062-.01.193-.01.217a3.391,3.391,0,0,0-2.708-1.52c-3.876,0-4.122,6.9-1.463,8.609a3.712,3.712,0,0,0,2.735.382,2.811,2.811,0,0,0,1.52-1.065A1.774,1.774,0,0,0-8,295.063a1.741,1.741,0,0,0,1.752-1.59c0-.115,0-6.184,0-6.262m-4.917,5.555h-.02c-.866-.014-1.3-.882-1.3-2.3s.549-2.282,1.3-2.3h.02c.75.016,1.3.883,1.3,2.3s-.434,2.285-1.3,2.3" transform="translate(172.399 -247.524)" fill="#472380"/>
      <path id="path424" d="M-35.526,288.062a1.579,1.579,0,0,0-1.459-1.494,1.305,1.305,0,0,0-.137-.015,1.641,1.641,0,0,0-1.619,1.4l0,2.969h0c.01.926,0,2.6,0,2.618a1.579,1.579,0,0,0,1.458,1.494,1.093,1.093,0,0,0,.138.015,1.641,1.641,0,0,0,1.619-1.4l0-2.48h0c-.011-.927,0-3.088,0-3.106" transform="translate(172.088 -247.512)" fill="#472380"/>
      <path id="path426" d="M-35.538,284.1a1.6,1.6,0,0,1-1.6,1.594,1.594,1.594,0,0,1-1.6-1.594,1.6,1.6,0,0,1,1.6-1.6,1.6,1.6,0,0,1,1.6,1.6" transform="translate(172.088 -247.566)" fill="#472380"/>
      <path id="path428" d="M-67.691,286.185c-.956.039-1.429.751-2.079,1.646,0,.007,0-.413,0-.429a1.659,1.659,0,0,0-1.545-1.518,1.662,1.662,0,0,0-1.673,1.518v6.182h0a1.657,1.657,0,0,0,1.546,1.518,1.664,1.664,0,0,0,1.67-1.495h.007v-3.916c.049-.574.3-1.291.761-1.288.653.006-.022,1.586,1.477,1.586,2.149,0,2.379-3.909-.16-3.8" transform="translate(171.63 -247.521)" fill="#472380"/>
      <path id="path430" d="M-74.133,292.219s-.5.679-2.417.679a2.277,2.277,0,0,1-2.336-1.494c2.8,0,5.152-.188,5.152-2.456s-2.563-3.016-4.083-3.016a4.385,4.385,0,0,0-4.344,4.643,4.373,4.373,0,0,0,4.371,4.485c3.491,0,3.658-2.84,3.658-2.84Zm-4.935-2.272a2.816,2.816,0,0,1,.924-2.059.863.863,0,0,1,1.31.725,1.3,1.3,0,0,1-1.093,1.337,5.08,5.08,0,0,1-1.141,0" transform="translate(171.507 -247.52)" fill="#472380"/>
      <path id="path432" d="M-82.27,293.393a3.054,3.054,0,0,1-2.384,1.695,3.027,3.027,0,0,1-2.906-2.753c0-.015-.009-2.358-.015-4.316h-.432a.633.633,0,0,1-.626-.723.655.655,0,0,1,.672-.713h.382c0-.685,0-1.155,0-1.184a1.657,1.657,0,0,1,1.669-1.514A1.672,1.672,0,0,1-84.35,285.4v1.184h1.363a.644.644,0,0,1,.626.723.644.644,0,0,1-.673.714H-84.35v3.6a1.873,1.873,0,0,0,2.084,1.776" transform="translate(171.42 -247.547)" fill="#472380"/>
      <path id="path434" d="M-39.77,293.393a3.055,3.055,0,0,1-2.384,1.695,3.026,3.026,0,0,1-2.906-2.753c0-.015-.009-2.358-.015-4.316h-.432a.633.633,0,0,1-.626-.723.655.655,0,0,1,.672-.713h.382c0-.685,0-1.155,0-1.184a1.658,1.658,0,0,1,1.669-1.514A1.673,1.673,0,0,1-41.85,285.4v1.184h1.363a.644.644,0,0,1,.626.723.644.644,0,0,1-.673.714H-41.85v3.6a1.873,1.873,0,0,0,2.084,1.776" transform="translate(171.989 -247.547)" fill="#472380"/>
    </g>
  </g>
</svg>
