<svg id="Componente_78_2" data-name="Componente 78 – 2" xmlns="http://www.w3.org/2000/svg" width="204.845" height="58.053" viewBox="0 0 204.845 58.053">
  <text id="DISTRIBUIÇÃO" transform="translate(102.771 56.053)" fill="#c6c6c6" font-size="6" font-family="Montserrat-BoldItalic, Montserrat" font-weight="700" font-style="italic" letter-spacing="0.227em"><tspan x="0" y="0">DISTRIBUIÇÃO</tspan></text>
  <g id="Camada_2" data-name="Camada 2">
    <g id="Camada_1" data-name="Camada 1" transform="translate(0 0)">
      <path id="Caminho_491" data-name="Caminho 491" d="M771.791,96.991c.861-2.771,2.956-3.739,5.467-2.614a.967.967,0,0,1,.665,1.226c-.73,4.263-1.42,8.545-2.125,12.8-.021.132-.03.263-.044.4-.231,2.111.026,2.367,2.078,2.092a3.271,3.271,0,0,1-2.713,4.633,9.638,9.638,0,0,1-2.771,0c-1.552-.21-2.289-1.222-2.654-3.316a32.613,32.613,0,0,1-3.048,2.309,9.236,9.236,0,0,1-8.344.714c-2.691-1.039-4.025-3.217-4.575-5.977A14.2,14.2,0,0,1,759.5,95.19a8.92,8.92,0,0,1,12.293,1.794m-.924,6.674c0-2.771-1.155-4.483-3.487-4.85-5.637-.868-8.683,4.6-7.667,8.545a4.128,4.128,0,0,0,3.646,3.233c4.074.619,7.5-2.54,7.508-6.956" transform="translate(-573.267 -70.128)" fill="#2b327c"/>
      <path id="Caminho_492" data-name="Caminho 492" d="M251.887,106.413a3.563,3.563,0,0,0,2.42,4.141,10.894,10.894,0,0,0,10.2-1.275,2.133,2.133,0,0,1,.956,2.667,4.307,4.307,0,0,1-2.917,2.933,15.39,15.39,0,0,1-11.492-.051c-3.506-1.5-5.312-4.744-5.037-8.82.411-6.252,4.178-10.808,10.307-12.085,3.43-.714,6.857-.536,9.766,1.848a5.984,5.984,0,0,1,2.016,6.129,5.639,5.639,0,0,1-4.238,4.57,21.766,21.766,0,0,1-10.956.069c-.261-.053-.52-.12-.781-.171a.88.88,0,0,0-.247.051m.614-3.349a22.306,22.306,0,0,0,8.062.212,2.177,2.177,0,0,0,1.972-2.078,2.261,2.261,0,0,0-1.617-2.367,10.142,10.142,0,0,0-3.316-.411,5.838,5.838,0,0,0-5.1,4.637" transform="translate(-187.18 -70.164)" fill="#2b327c"/>
      <path id="Caminho_493" data-name="Caminho 493" d="M601.538,106.328a3.464,3.464,0,0,0,2.268,4.189,10.874,10.874,0,0,0,10.293-1.24,2.161,2.161,0,0,1,.945,2.677,4.307,4.307,0,0,1-2.831,2.889,15.5,15.5,0,0,1-10.854.289c-4.051-1.425-6.053-4.767-5.773-9.129.416-6.259,4.185-10.808,10.312-12.081,3.4-.707,6.792-.529,9.7,1.783a5.958,5.958,0,0,1,2.078,6.2,5.621,5.621,0,0,1-4.245,4.566,21.756,21.756,0,0,1-10.953.065c-.319-.065-.635-.136-.951-.2m.561-3.261a22.641,22.641,0,0,0,8,.231,2.2,2.2,0,0,0,2.023-2.132,2.259,2.259,0,0,0-1.661-2.339,10.148,10.148,0,0,0-3.319-.39,5.793,5.793,0,0,0-5.039,4.635" transform="translate(-453.174 -70.164)" fill="#2b327c"/>
      <path id="Caminho_494" data-name="Caminho 494" d="M350.732,109.261a11.386,11.386,0,0,0,8.524,2.192,3.278,3.278,0,0,0,.487-.1c1.282-.316,1.97-.924,1.938-1.827-.039-1.173-.945-1.529-1.868-1.769-1.254-.326-2.527-.573-3.792-.859-.259-.058-.517-.12-.774-.2-2.035-.6-3.82-1.533-4.289-3.836a6.335,6.335,0,0,1,2.079-6.325c2.617-2.309,5.827-2.838,9.157-2.591a13.394,13.394,0,0,1,4.6,1.074c2.159,1.007,2.212,3.792.249,5.272a10.023,10.023,0,0,0-7.344-1.829,4.875,4.875,0,0,0-1.947.693,1.355,1.355,0,0,0,.164,2.524,39.7,39.7,0,0,0,4,1.185,21.016,21.016,0,0,1,2.561.811,5.142,5.142,0,0,1,3.222,6.159,6.5,6.5,0,0,1-3.778,4.972,16.187,16.187,0,0,1-11.778.561,3.174,3.174,0,0,1-.369-.15c-2.935-1.309-3.356-3.6-1.042-5.947" transform="translate(-265.798 -70.421)" fill="#2b327c"/>
      <path id="Caminho_495" data-name="Caminho 495" d="M451.1,79.409c-.711,0-1.3-.046-1.887.014-.67.067-.866-.284-.963-.843-.423-2.446.82-3.926,3.621-4.173.252-1.566.547-3.159.746-4.764a1.364,1.364,0,0,1,1.155-1.386,11.294,11.294,0,0,1,2.443-.346c1.711.069,2.42,1.044,2.15,2.737-.185,1.155-.369,2.309-.547,3.464a1.852,1.852,0,0,0,.032.386c1.226,0,2.455.046,3.677-.016.707-.037.924.307,1.058.891a3.363,3.363,0,0,1-3.205,4.141c-.811.046-1.864-.171-2.358.254s-.347,1.487-.476,2.275c-.34,2.1-.661,4.208-1.019,6.309-.337,1.986.5,2.942,2.5,2.732a10.411,10.411,0,0,0,1.725-.478,3.176,3.176,0,0,1-1.386,4.744,7.3,7.3,0,0,1-7,.037,3.464,3.464,0,0,1-1.931-3.381c.1-2.118.4-4.231.679-6.337.272-2.035.626-4.06.968-6.235" transform="translate(-341.177 -50.44)" fill="#2b327c"/>
      <path id="Caminho_496" data-name="Caminho 496" d="M710.763,86a3.129,3.129,0,0,1-1.718,4.388,5.518,5.518,0,0,1-1.053.291c-3.926.769-5.949-1.129-5.349-5.081.709-4.67,1.5-9.33,2.249-14,.45-2.792.924-5.58,1.321-8.381a1.639,1.639,0,0,1,1.342-1.593,11.418,11.418,0,0,1,1.663-.3c2.1-.159,3.062.878,2.723,2.942q-1.594,9.755-3.21,19.5c-.021.132-.055.261-.072.393-.231,1.808.265,2.259,2.1,1.848" transform="translate(-534.081 -45.366)" fill="#2b327c"/>
      <path id="Caminho_497" data-name="Caminho 497" d="M525.26,97.961c.815-.868,1.506-1.716,2.309-2.439a5.774,5.774,0,0,1,4.949-1.6,2.656,2.656,0,0,1,2.182,3.771,15.309,15.309,0,0,1-1.517,2.466A5.729,5.729,0,0,0,526,101.917c-1.647,2.078-2.143,4.533-2.522,7.048-.275,1.808-.529,3.621-.873,5.416a1.426,1.426,0,0,1-.767.993,12.752,12.752,0,0,1-3.3.418,1.753,1.753,0,0,1-1.617-2.192c.924-5.912,1.891-11.82,2.813-17.734a1.215,1.215,0,0,1,1-1.18,11.713,11.713,0,0,1,2.924-.314c1.46.132,1.972.951,1.792,2.43-.041.356-.108.709-.178,1.155" transform="translate(-393.408 -70.388)" fill="#2b327c"/>
      <path id="Caminho_498" data-name="Caminho 498" d="M13.67,63.08,3.128,64.613A3.651,3.651,0,0,0,1.1,70.849l3.787,3.7,2.016,1.968A19.074,19.074,0,0,1,13.67,63.087" transform="translate(0.005 -47.788)" fill="#ef7d00"/>
      <path id="Caminho_499" data-name="Caminho 499" d="M83.56,82.255A3.24,3.24,0,0,0,86.5,79.167a3.365,3.365,0,0,0-2.411-3.529,15.172,15.172,0,0,0-4.942-.612,8.7,8.7,0,0,0-7.6,6.914c4.062.63,8.023,1.155,12.021.314" transform="translate(-55.017 -56.947)" fill="#ef7d00"/>
      <path id="Caminho_500" data-name="Caminho 500" d="M80.472,10.619c3.926-.82,7.868-.85,11.45.794L87.3,2.032a3.654,3.654,0,0,0-6.554,0L75.74,12.194a21.452,21.452,0,0,1,4.732-1.575" transform="translate(-58.247 0.006)" fill="#ef7d00"/>
      <path id="Caminho_501" data-name="Caminho 501" d="M42.5,169.464A12.24,12.24,0,0,1,37.79,166l-.393,2.284-.767,4.471a3.653,3.653,0,0,0,5.312,3.852l10.263-5.395c.083-.044.166-.083.252-.12a21.066,21.066,0,0,1-9.961-1.628" transform="translate(-28.129 -125.878)" fill="#ef7d00"/>
      <path id="Caminho_502" data-name="Caminho 502" d="M100.172,64.706,89.81,63.2a9.146,9.146,0,0,1,1.751,7.907,8.384,8.384,0,0,1-6.319,6.815c-5.434,1.663-10.882,1.226-16.332.1-.388-.081-.774-.18-1.155-.254a1.261,1.261,0,0,0-.37.074c-.381,2.9.859,5.231,3.61,6.173,5.3,1.813,10.161,2.573,22.591-4.637a3.468,3.468,0,0,1,.316-.351l8.3-8.083a3.653,3.653,0,0,0-2.025-6.235" transform="translate(-51.771 -47.65)" fill="#ef7d00"/>
      <path id="Caminho_503" data-name="Caminho 503" d="M129.459,157.41a59.22,59.22,0,0,1-10.034,5.515,29.31,29.31,0,0,1-5.095,1.319,3.622,3.622,0,0,1,1.062.365L125.655,170a3.656,3.656,0,0,0,5.312-3.852Z" transform="translate(-87.925 -119.272)" fill="#ef7d00"/>
    </g>
  </g>
</svg>
