<svg id="Camada_2" data-name="Camada 2" xmlns="http://www.w3.org/2000/svg" width="17.83" height="32.988" viewBox="0 0 17.83 32.988">
  <g id="Layer_1" data-name="Layer 1" transform="translate(0 0)">
    <g id="NewGroupe15">
      <g id="NewGroup0-84">
        <path id="Caminho_8" data-name="Caminho 8" d="M13.432,24.541A1.056,1.056,0,0,1,12.376,25.6H4.354a1.056,1.056,0,0,1-1.016-1.056V12.108a1.056,1.056,0,0,1,1.056-1.07h8.021a1.056,1.056,0,0,1,1.056,1.07V24.541ZM2.055,6.654A1.551,1.551,0,0,1,1.4,6.52v21.2H15.37V6.52a1.5,1.5,0,0,1-.642.134Z" transform="translate(0.472 2.197)" fill="#8f8f8f"/>
        <path id="Caminho_9" data-name="Caminho 9" d="M7.015,4.566a.535.535,0,0,1-.388.16H3.953a.541.541,0,1,1,0-1.083H6.627a.548.548,0,0,1,.548.548.535.535,0,0,1-.16.374Zm7.072-2.192a2.794,2.794,0,0,1-.468,0H3.071a1.457,1.457,0,0,1-.348,0L1.534,6.384a.508.508,0,0,0,.481.628H14.689a.495.495,0,0,0,.468-.615L14.087,2.32Z" transform="translate(0.512 0.782)" fill="#8f8f8f"/>
        <path id="Caminho_10" data-name="Caminho 10" d="M13.487,0H2.939a1.016,1.016,0,0,0-.722.307,1,1,0,0,0-.307.722,1.016,1.016,0,0,0,.12.307,1.056,1.056,0,0,0,.909.668H13.728a1.029,1.029,0,0,0,.535-.281,1.043,1.043,0,0,0,.294-.548.815.815,0,0,0,0-.187A1.029,1.029,0,0,0,13.487,0Z" transform="translate(0.643 0.001)" fill="#8f8f8f"/>
        <path id="Caminho_11" data-name="Caminho 11" d="M10.752,13.21H4.361a.508.508,0,0,0-.388.16.558.558,0,0,0,.388.963h6.39a.6.6,0,0,0,.4-.16.628.628,0,0,0,.16-.4A.561.561,0,0,0,10.752,13.21Z" transform="translate(1.28 4.451)" fill="#8f8f8f"/>
        <path id="Caminho_12" data-name="Caminho 12" d="M10.752,14.93H4.361a.575.575,0,0,0-.388.16.558.558,0,0,0,.388.963h6.39a.548.548,0,0,0,.4-.16.6.6,0,0,0,.16-.4.561.561,0,0,0-.561-.561Z" transform="translate(1.28 5.03)" fill="#8f8f8f"/>
        <path id="Caminho_13" data-name="Caminho 13" d="M10.752,16.65H4.361a.521.521,0,0,0-.388.174.535.535,0,0,0-.174.4.561.561,0,0,0,.561.561h6.39a.568.568,0,1,0,0-1.136Z" transform="translate(1.28 5.61)" fill="#8f8f8f"/>
        <path id="Caminho_14" data-name="Caminho 14" d="M1.016,25.18H16.7a1.016,1.016,0,1,0,0-2.019H1.016a1.016,1.016,0,0,0-.722.294A.976.976,0,0,0,0,24.164,1.016,1.016,0,0,0,1.016,25.18Z" transform="translate(0 7.801)" fill="#8f8f8f"/>
      </g>
    </g>
  </g>
</svg>
