<svg xmlns="http://www.w3.org/2000/svg" xmlns:xlink="http://www.w3.org/1999/xlink" width="27.523" height="27.523" viewBox="0 0 27.523 27.523">
  <defs>
    <clipPath id="clip-path">
      <rect id="Retângulo_2273" data-name="Retângulo 2273" width="27.523" height="27.523" fill="none"/>
    </clipPath>
  </defs>
  <g id="Grupo_872" data-name="Grupo 872" transform="translate(0.337 0.337)">
    <g id="Grupo_138" data-name="Grupo 138" transform="translate(-0.337 -0.337)" clip-path="url(#clip-path)">
      <path id="Caminho_606" data-name="Caminho 606" d="M12.439,17.794A3.824,3.824,0,0,1,9.3,16.185a.422.422,0,1,1,.67-.514,3.261,3.261,0,0,0,4.122.914l.038-.018a1.614,1.614,0,0,0,.894-1.679,1.992,1.992,0,0,0-1.361-1.666s-1.247-.371-2.472-.734A2.345,2.345,0,0,1,9.272,10.07a2.258,2.258,0,0,1,.758-1.723A3.782,3.782,0,0,1,12.638,7.6a3.312,3.312,0,0,1,3.236,2.229.422.422,0,0,1-.81.234,2.456,2.456,0,0,0-2.435-1.62,3.038,3.038,0,0,0-2.041.54,1.409,1.409,0,0,0-.471,1.1,1.529,1.529,0,0,0,1.31,1.6c1.227.363,2.469.733,2.469.733a2.821,2.821,0,0,1,1.965,2.4,2.463,2.463,0,0,1-1.4,2.532,4.93,4.93,0,0,1-2.019.45" transform="translate(1.211 1)" fill="#2b317c"/>
      <path id="Caminho_607" data-name="Caminho 607" d="M12.284,8.669a.422.422,0,0,1-.422-.422V6.3a.422.422,0,0,1,.844,0V8.247a.422.422,0,0,1-.422.422" transform="translate(1.56 0.773)" fill="#2b317c"/>
      <path id="Caminho_608" data-name="Caminho 608" d="M12.284,18.774a.422.422,0,0,1-.422-.422V16.4a.422.422,0,0,1,.844,0v1.951a.422.422,0,0,1-.422.422" transform="translate(1.56 2.102)" fill="#2b317c"/>
      <path id="Caminho_609" data-name="Caminho 609" d="M13.508,25.087A11.578,11.578,0,1,1,25.087,13.508,11.592,11.592,0,0,1,13.508,25.087m0-22.314A10.735,10.735,0,1,0,24.243,13.508,10.747,10.747,0,0,0,13.508,2.773" transform="translate(0.254 0.254)" fill="#2b317c"/>
      <path id="Caminho_610" data-name="Caminho 610" d="M13.762,27.522A13.761,13.761,0,1,1,27.523,13.762,13.777,13.777,0,0,1,13.762,27.522m0-26.678A12.918,12.918,0,1,0,26.679,13.762,12.932,12.932,0,0,0,13.762.844" transform="translate(0 0.001)" fill="#2b317c"/>
    </g>
  </g>
</svg>
