<svg xmlns="http://www.w3.org/2000/svg" width="13.243" height="22.912" viewBox="0 0 13.243 22.912">
  <g id="noun-clean-3049907" transform="translate(-188.18)">
    <path id="Caminho_839" data-name="Caminho 839" d="M413.206,95.77l.235.321.243-.321a5.743,5.743,0,0,1,.548-.619,4.64,4.64,0,0,1,.423-.36l.329-.243-.329-.243a4.753,4.753,0,0,1-.971-.971l-.243-.321-.235.321a5.419,5.419,0,0,1-.689.752l-.611.47.321.235h0a5.04,5.04,0,0,1,.979.979Z" transform="translate(-214.571 -89.211)" fill="#ef7d00"/>
    <path id="Caminho_840" data-name="Caminho 840" d="M212.149,4.813l.251.392.258-.392a6.788,6.788,0,0,1,1.958-1.966L215,2.589l-.384-.25A6.669,6.669,0,0,1,212.658.38L212.4,0l-.251.384a6.485,6.485,0,0,1-1.958,1.958l-.384.251.384.258h0a6.6,6.6,0,0,1,1.958,1.962Z" transform="translate(-20.742)" fill="#ef7d00"/>
    <path id="Caminho_841" data-name="Caminho 841" d="M207.467,305.279a8.744,8.744,0,0,1-5.482-1.817l-.6-.493,1.7,10.518h8.764l1.7-10.518-.611.493h0a8.7,8.7,0,0,1-5.467,1.817Z" transform="translate(-12.662 -290.575)" fill="#ef7d00"/>
    <path id="Caminho_842" data-name="Caminho 842" d="M188.18,222.39l.125.791c.783,2.248,3.446,3.814,6.5,3.814,3.023,0,5.694-1.551,6.485-3.83l.133-.775Z" transform="translate(0 -213.293)" fill="#ef7d00"/>
  </g>
</svg>
