<svg xmlns="http://www.w3.org/2000/svg" width="8.775" height="24.672" viewBox="0 0 8.775 24.672">
  <g id="noun_Bottle_1863846" transform="translate(-7.707 -2)">
    <g id="Grupo_59" data-name="Grupo 59" transform="translate(8 2)">
      <path id="Caminho_512" data-name="Caminho 512" d="M9.877,22.653V17.091a2.144,2.144,0,0,1,2.208-2.06h4.636a12.355,12.355,0,0,0-1.159-3.657,11.462,11.462,0,0,1-1.214-5.2V4.987h.276V2H10.208V4.987h.331V6.223a11.775,11.775,0,0,1-1.159,5.15A11.78,11.78,0,0,0,8,16.988v8.241a1.5,1.5,0,0,0,1.545,1.442H15.23a1.493,1.493,0,0,0,1.545-1.442v-.567H12.029A2.088,2.088,0,0,1,9.877,22.653Z" transform="translate(-8.293 -2)" fill="#ef7d00"/>
      <path id="Caminho_513" data-name="Caminho 513" d="M13.4,30.764v7.9a1.414,1.414,0,0,0,1.35,1.464h5.8l-.083-10.692L14.75,29.3a1.414,1.414,0,0,0-1.35,1.464Z" transform="translate(-12.072 -16.504)" fill="#ef7d00"/>
    </g>
  </g>
</svg>
