<svg xmlns="http://www.w3.org/2000/svg" width="23.715" height="15.101" viewBox="0 0 23.715 15.101">
  <g id="noun-food-service-1153101" transform="translate(-0.009 -71.407)">
    <path id="Caminho_833" data-name="Caminho 833" d="M22.88,428H.778a.765.765,0,0,0-.769.75.733.733,0,0,0,.735.747l2.519.012v.1a1.478,1.478,0,0,0,1.442,1.416H18.953a1.709,1.709,0,0,0,1.675-1.416v-.1l2.4-.009a.7.7,0,0,0,.694-.75.835.835,0,0,0-.845-.75Z" transform="translate(0 -344.512)" fill="#8f8f8f"/>
    <path id="Caminho_834" data-name="Caminho 834" d="M46.641,73.4a2.463,2.463,0,0,0-2.407-1.995h-.755a2.462,2.462,0,0,0-2.408,2A10.628,10.628,0,0,0,33.1,82.733H54.63A10.632,10.632,0,0,0,46.641,73.4Zm-2.778-.347a10.828,10.828,0,0,0-2,.2,1.791,1.791,0,0,1,1.665-1.094h.654a1.784,1.784,0,0,1,1.663,1.086,10.664,10.664,0,0,0-1.983-.194Z" transform="translate(-31.966 0)" fill="#8f8f8f"/>
  </g>
</svg>
