<svg xmlns="http://www.w3.org/2000/svg" width="13.579" height="23.942" viewBox="0 0 13.579 23.942">
  <g id="noun-soap-1873670" transform="translate(-207.088 -28.001)">
    <path id="Caminho_835" data-name="Caminho 835" d="M336.32,72.387h1.3v2.59h-1.3Z" transform="translate(-123.093 -42.278)" fill="#ef7d00"/>
    <path id="Caminho_836" data-name="Caminho 836" d="M220.666,217.132a4.887,4.887,0,0,0-4.882-4.882H211.97a4.887,4.887,0,0,0-4.882,4.882v8.481a1.829,1.829,0,0,0,1.827,1.827h9.925a1.829,1.829,0,0,0,1.827-1.827v-8.481Z" transform="translate(0 -175.497)" fill="#ef7d00"/>
    <path id="Caminho_837" data-name="Caminho 837" d="M312.49,145.987h3.564V144.5a1,1,0,0,0-.993-.994h-1.576a1,1,0,0,0-.994.994Z" transform="translate(-100.395 -110.024)" fill="#ef7d00"/>
    <path id="Caminho_838" data-name="Caminho 838" d="M292.062,28.66a.659.659,0,0,1-.659.66h-6.2a.66.66,0,0,1,0-1.319h6.2a.659.659,0,0,1,.659.659Z" transform="translate(-73.776)" fill="#ef7d00"/>
  </g>
</svg>
